<svg width="170" height="128" viewBox="0 0 170 128" fill="none" xmlns="http://www.w3.org/2000/svg">
<g filter="url(#filter0_d)">
<path d="M29.2 87.36C27.256 87.36 25.432 87 23.728 86.28C22.048 85.536 20.572 84.516 19.3 83.22C18.052 81.9 17.068 80.364 16.348 78.612C15.652 76.86 15.304 74.964 15.304 72.924C15.304 70.908 15.652 69.036 16.348 67.308C17.068 65.556 18.052 64.032 19.3 62.736C20.572 61.416 22.048 60.384 23.728 59.64C25.408 58.896 27.232 58.524 29.2 58.524C31.048 58.524 32.632 58.764 33.952 59.244C35.296 59.724 36.64 60.516 37.984 61.62C38.272 61.86 38.464 62.088 38.56 62.304C38.656 62.52 38.704 62.784 38.704 63.096C38.704 63.552 38.536 63.936 38.2 64.248C37.888 64.536 37.504 64.704 37.048 64.752C36.592 64.776 36.148 64.62 35.716 64.284C34.828 63.516 33.904 62.928 32.944 62.52C32.008 62.112 30.76 61.908 29.2 61.908C27.784 61.908 26.452 62.196 25.204 62.772C23.956 63.348 22.852 64.14 21.892 65.148C20.956 66.156 20.224 67.332 19.696 68.676C19.168 69.996 18.904 71.412 18.904 72.924C18.904 74.46 19.168 75.9 19.696 77.244C20.224 78.564 20.956 79.728 21.892 80.736C22.852 81.744 23.956 82.536 25.204 83.112C26.452 83.664 27.784 83.94 29.2 83.94C30.424 83.94 31.576 83.736 32.656 83.328C33.76 82.896 34.816 82.308 35.824 81.564C36.256 81.252 36.676 81.12 37.084 81.168C37.516 81.192 37.876 81.36 38.164 81.672C38.452 81.96 38.596 82.368 38.596 82.896C38.596 83.4 38.404 83.844 38.02 84.228C35.428 86.316 32.488 87.36 29.2 87.36ZM50.991 87.144C49.239 87.144 47.667 86.712 46.275 85.848C44.883 84.96 43.779 83.772 42.963 82.284C42.171 80.772 41.775 79.068 41.775 77.172C41.775 75.276 42.207 73.572 43.071 72.06C43.959 70.548 45.147 69.36 46.635 68.496C48.147 67.608 49.839 67.164 51.711 67.164C53.583 67.164 55.263 67.608 56.751 68.496C58.239 69.36 59.415 70.548 60.279 72.06C61.167 73.572 61.611 75.276 61.611 77.172V85.2C61.611 85.728 61.431 86.172 61.071 86.532C60.735 86.868 60.303 87.036 59.775 87.036C59.247 87.036 58.803 86.868 58.443 86.532C58.107 86.172 57.939 85.728 57.939 85.2V83.868C57.099 84.876 56.079 85.68 54.879 86.28C53.703 86.856 52.407 87.144 50.991 87.144ZM51.711 83.904C52.935 83.904 54.027 83.616 54.987 83.04C55.947 82.44 56.703 81.636 57.255 80.628C57.807 79.596 58.083 78.444 58.083 77.172C58.083 75.876 57.807 74.724 57.255 73.716C56.703 72.684 55.947 71.88 54.987 71.304C54.027 70.704 52.935 70.404 51.711 70.404C50.511 70.404 49.419 70.704 48.435 71.304C47.475 71.88 46.707 72.684 46.131 73.716C45.579 74.724 45.303 75.876 45.303 77.172C45.303 78.444 45.579 79.596 46.131 80.628C46.707 81.636 47.475 82.44 48.435 83.04C49.419 83.616 50.511 83.904 51.711 83.904ZM68.9119 95.424C68.3839 95.424 67.9399 95.244 67.5799 94.884C67.2439 94.548 67.0759 94.116 67.0759 93.588V77.172C67.0999 75.276 67.5439 73.572 68.4079 72.06C69.2719 70.548 70.4479 69.36 71.9359 68.496C73.4239 67.608 75.1039 67.164 76.9759 67.164C78.8719 67.164 80.5639 67.608 82.0519 68.496C83.5399 69.36 84.7159 70.548 85.5799 72.06C86.4679 73.572 86.9119 75.276 86.9119 77.172C86.9119 79.068 86.5039 80.772 85.6879 82.284C84.8959 83.772 83.8039 84.96 82.4119 85.848C81.0199 86.712 79.4479 87.144 77.6959 87.144C76.2799 87.144 74.9719 86.856 73.7719 86.28C72.5959 85.68 71.5879 84.876 70.7479 83.868V93.588C70.7479 94.116 70.5799 94.548 70.2439 94.884C69.9079 95.244 69.4639 95.424 68.9119 95.424ZM76.9759 83.904C78.1999 83.904 79.2919 83.616 80.2519 83.04C81.2119 82.44 81.9679 81.636 82.5199 80.628C83.0959 79.596 83.3839 78.444 83.3839 77.172C83.3839 75.876 83.0959 74.724 82.5199 73.716C81.9679 72.684 81.2119 71.88 80.2519 71.304C79.2919 70.704 78.1999 70.404 76.9759 70.404C75.7759 70.404 74.6839 70.704 73.6999 71.304C72.7399 71.88 71.9839 72.684 71.4319 73.716C70.8799 74.724 70.6039 75.876 70.6039 77.172C70.6039 78.444 70.8799 79.596 71.4319 80.628C71.9839 81.636 72.7399 82.44 73.6999 83.04C74.6839 83.616 75.7759 83.904 76.9759 83.904ZM101.64 87.144C99.6484 87.144 97.8724 86.724 96.3124 85.884C94.7764 85.02 93.5644 83.844 92.6764 82.356C91.8124 80.844 91.3804 79.116 91.3804 77.172C91.3804 75.204 91.7884 73.476 92.6044 71.988C93.4444 70.476 94.5964 69.3 96.0604 68.46C97.5244 67.596 99.2044 67.164 101.1 67.164C102.972 67.164 104.58 67.584 105.924 68.424C107.268 69.24 108.288 70.38 108.984 71.844C109.704 73.284 110.064 74.952 110.064 76.848C110.064 77.304 109.908 77.688 109.596 78C109.284 78.288 108.888 78.432 108.408 78.432H94.7284C94.9924 80.088 95.7484 81.444 96.9964 82.5C98.2684 83.532 99.8164 84.048 101.64 84.048C102.384 84.048 103.14 83.916 103.908 83.652C104.7 83.364 105.336 83.04 105.816 82.68C106.176 82.416 106.56 82.284 106.968 82.284C107.4 82.26 107.772 82.38 108.084 82.644C108.492 83.004 108.708 83.4 108.732 83.832C108.756 84.264 108.564 84.636 108.156 84.948C107.34 85.596 106.32 86.124 105.096 86.532C103.896 86.94 102.744 87.144 101.64 87.144ZM101.1 70.26C99.3244 70.26 97.8964 70.752 96.8164 71.736C95.7364 72.72 95.0524 73.992 94.7644 75.552H106.752C106.536 74.016 105.948 72.756 104.988 71.772C104.028 70.764 102.732 70.26 101.1 70.26ZM119.428 87C118.372 87 117.436 86.712 116.62 86.136C115.804 85.56 115.168 84.78 114.712 83.796C114.256 82.788 114.028 81.636 114.028 80.34V60.684C114.028 60.156 114.196 59.724 114.532 59.388C114.868 59.052 115.3 58.884 115.828 58.884C116.356 58.884 116.788 59.052 117.124 59.388C117.46 59.724 117.628 60.156 117.628 60.684V80.34C117.628 81.228 117.796 81.96 118.132 82.536C118.468 83.112 118.9 83.4 119.428 83.4H120.328C120.808 83.4 121.192 83.568 121.48 83.904C121.792 84.24 121.948 84.672 121.948 85.2C121.948 85.728 121.72 86.16 121.264 86.496C120.808 86.832 120.22 87 119.5 87H119.428ZM130.221 87C129.165 87 128.229 86.712 127.413 86.136C126.597 85.56 125.961 84.78 125.505 83.796C125.049 82.788 124.821 81.636 124.821 80.34V60.684C124.821 60.156 124.989 59.724 125.325 59.388C125.661 59.052 126.093 58.884 126.621 58.884C127.149 58.884 127.581 59.052 127.917 59.388C128.253 59.724 128.421 60.156 128.421 60.684V80.34C128.421 81.228 128.589 81.96 128.925 82.536C129.261 83.112 129.693 83.4 130.221 83.4H131.121C131.601 83.4 131.985 83.568 132.273 83.904C132.585 84.24 132.741 84.672 132.741 85.2C132.741 85.728 132.513 86.16 132.057 86.496C131.601 86.832 131.013 87 130.293 87H130.221ZM143.452 87.144C141.7 87.144 140.128 86.712 138.736 85.848C137.344 84.96 136.24 83.772 135.424 82.284C134.632 80.772 134.236 79.068 134.236 77.172C134.236 75.276 134.668 73.572 135.532 72.06C136.42 70.548 137.608 69.36 139.096 68.496C140.608 67.608 142.3 67.164 144.172 67.164C146.044 67.164 147.724 67.608 149.212 68.496C150.7 69.36 151.876 70.548 152.74 72.06C153.628 73.572 154.072 75.276 154.072 77.172V85.2C154.072 85.728 153.892 86.172 153.532 86.532C153.196 86.868 152.764 87.036 152.236 87.036C151.708 87.036 151.264 86.868 150.904 86.532C150.568 86.172 150.4 85.728 150.4 85.2V83.868C149.56 84.876 148.54 85.68 147.34 86.28C146.164 86.856 144.868 87.144 143.452 87.144ZM144.172 83.904C145.396 83.904 146.488 83.616 147.448 83.04C148.408 82.44 149.164 81.636 149.716 80.628C150.268 79.596 150.544 78.444 150.544 77.172C150.544 75.876 150.268 74.724 149.716 73.716C149.164 72.684 148.408 71.88 147.448 71.304C146.488 70.704 145.396 70.404 144.172 70.404C142.972 70.404 141.88 70.704 140.896 71.304C139.936 71.88 139.168 72.684 138.592 73.716C138.04 74.724 137.764 75.876 137.764 77.172C137.764 78.444 138.04 79.596 138.592 80.628C139.168 81.636 139.936 82.44 140.896 83.04C141.88 83.616 142.972 83.904 144.172 83.904Z" fill="url(#paint0_linear)"/>
</g>
<g filter="url(#filter1_d)">
<path d="M91.624 109C91.272 109 90.976 108.888 90.736 108.664C90.512 108.424 90.4 108.128 90.4 107.776V97.096C90.4 96.728 90.512 96.432 90.736 96.208C90.976 95.984 91.272 95.872 91.624 95.872C91.992 95.872 92.288 95.984 92.512 96.208C92.736 96.432 92.848 96.728 92.848 97.096V107.776C92.848 108.128 92.736 108.424 92.512 108.664C92.288 108.888 91.992 109 91.624 109ZM91.624 93.736C91.192 93.736 90.816 93.584 90.496 93.28C90.192 92.96 90.04 92.584 90.04 92.152C90.04 91.72 90.192 91.352 90.496 91.048C90.816 90.728 91.192 90.568 91.624 90.568C92.056 90.568 92.424 90.728 92.728 91.048C93.048 91.352 93.208 91.72 93.208 92.152C93.208 92.584 93.048 92.96 92.728 93.28C92.424 93.584 92.056 93.736 91.624 93.736ZM103.354 109.096C102.074 109.096 100.93 108.808 99.9222 108.232C98.9302 107.64 98.1462 106.848 97.5702 105.856C97.0102 104.848 96.7302 103.712 96.7302 102.448C96.7302 101.152 97.0102 100 97.5702 98.992C98.1302 97.984 98.8982 97.2 99.8742 96.64C100.85 96.064 101.97 95.776 103.234 95.776C105.122 95.776 106.69 96.496 107.938 97.936C108.162 98.192 108.242 98.456 108.178 98.728C108.114 99 107.938 99.24 107.65 99.448C107.426 99.608 107.178 99.664 106.906 99.616C106.634 99.552 106.386 99.408 106.162 99.184C105.378 98.352 104.402 97.936 103.234 97.936C102.002 97.936 101.002 98.352 100.234 99.184C99.4662 100 99.0822 101.088 99.0822 102.448C99.0822 103.312 99.2582 104.08 99.6102 104.752C99.9782 105.424 100.482 105.96 101.122 106.36C101.762 106.744 102.506 106.936 103.354 106.936C104.442 106.936 105.322 106.656 105.994 106.096C106.25 105.888 106.514 105.776 106.786 105.76C107.058 105.728 107.298 105.8 107.506 105.976C107.778 106.2 107.93 106.456 107.962 106.744C107.994 107.016 107.898 107.264 107.674 107.488C106.522 108.56 105.082 109.096 103.354 109.096ZM117.768 109.096C116.472 109.096 115.328 108.816 114.336 108.256C113.344 107.68 112.56 106.896 111.984 105.904C111.424 104.896 111.144 103.744 111.144 102.448C111.144 101.136 111.424 99.984 111.984 98.992C112.56 97.984 113.344 97.2 114.336 96.64C115.328 96.064 116.472 95.776 117.768 95.776C119.048 95.776 120.184 96.064 121.176 96.64C122.168 97.2 122.944 97.984 123.504 98.992C124.08 99.984 124.368 101.136 124.368 102.448C124.368 103.744 124.088 104.896 123.528 105.904C122.968 106.896 122.192 107.68 121.2 108.256C120.208 108.816 119.064 109.096 117.768 109.096ZM117.768 106.936C118.6 106.936 119.336 106.744 119.976 106.36C120.616 105.976 121.112 105.448 121.464 104.776C121.832 104.104 122.016 103.328 122.016 102.448C122.016 101.568 121.832 100.792 121.464 100.12C121.112 99.432 120.616 98.896 119.976 98.512C119.336 98.128 118.6 97.936 117.768 97.936C116.936 97.936 116.2 98.128 115.56 98.512C114.92 98.896 114.416 99.432 114.048 100.12C113.68 100.792 113.496 101.568 113.496 102.448C113.496 103.328 113.68 104.104 114.048 104.776C114.416 105.448 114.92 105.976 115.56 106.36C116.2 106.744 116.936 106.936 117.768 106.936ZM129.236 109.024C128.884 109.024 128.588 108.912 128.348 108.688C128.124 108.448 128.012 108.152 128.012 107.8V97.096C128.012 96.728 128.124 96.432 128.348 96.208C128.588 95.984 128.884 95.872 129.236 95.872C129.604 95.872 129.9 95.984 130.124 96.208C130.348 96.432 130.46 96.728 130.46 97.096V97.36C130.956 96.864 131.556 96.472 132.26 96.184C132.964 95.896 133.724 95.752 134.54 95.752C135.644 95.752 136.628 95.992 137.492 96.472C138.372 96.936 139.06 97.624 139.556 98.536C140.068 99.448 140.324 100.568 140.324 101.896V107.8C140.324 108.152 140.204 108.448 139.964 108.688C139.74 108.912 139.452 109.024 139.1 109.024C138.748 109.024 138.452 108.912 138.212 108.688C137.988 108.448 137.876 108.152 137.876 107.8V101.896C137.876 100.536 137.508 99.544 136.772 98.92C136.052 98.28 135.148 97.96 134.06 97.96C133.388 97.96 132.78 98.096 132.236 98.368C131.692 98.64 131.26 99.008 130.94 99.472C130.62 99.92 130.46 100.44 130.46 101.032V107.8C130.46 108.152 130.348 108.448 130.124 108.688C129.9 108.912 129.604 109.024 129.236 109.024ZM149.147 109.096C148.027 109.096 146.987 108.928 146.027 108.592C145.083 108.24 144.347 107.8 143.819 107.272C143.579 107.016 143.475 106.728 143.507 106.408C143.555 106.072 143.715 105.8 143.987 105.592C144.307 105.336 144.619 105.232 144.923 105.28C145.243 105.312 145.515 105.448 145.739 105.688C146.011 105.992 146.443 106.28 147.035 106.552C147.643 106.808 148.315 106.936 149.051 106.936C149.979 106.936 150.683 106.784 151.163 106.48C151.659 106.176 151.915 105.784 151.931 105.304C151.947 104.824 151.715 104.408 151.235 104.056C150.771 103.704 149.915 103.416 148.667 103.192C147.051 102.872 145.875 102.392 145.139 101.752C144.419 101.112 144.059 100.328 144.059 99.4C144.059 98.584 144.299 97.912 144.779 97.384C145.259 96.84 145.875 96.44 146.627 96.184C147.379 95.912 148.163 95.776 148.979 95.776C150.035 95.776 150.971 95.944 151.787 96.28C152.603 96.616 153.251 97.08 153.731 97.672C153.955 97.928 154.059 98.2 154.043 98.488C154.027 98.76 153.891 98.992 153.635 99.184C153.379 99.36 153.075 99.416 152.723 99.352C152.371 99.288 152.075 99.144 151.835 98.92C151.435 98.536 151.003 98.272 150.539 98.128C150.075 97.984 149.539 97.912 148.931 97.912C148.227 97.912 147.627 98.032 147.131 98.272C146.651 98.512 146.411 98.864 146.411 99.328C146.411 99.616 146.483 99.88 146.627 100.12C146.787 100.344 147.091 100.552 147.539 100.744C147.987 100.92 148.643 101.096 149.507 101.272C151.315 101.624 152.563 102.128 153.251 102.784C153.955 103.424 154.307 104.216 154.307 105.16C154.307 105.896 154.107 106.56 153.707 107.152C153.323 107.744 152.747 108.216 151.979 108.568C151.227 108.92 150.283 109.096 149.147 109.096Z" fill="url(#paint1_linear)"/>
</g>
<g filter="url(#filter2_d)">
<path d="M88.0002 30.0005C88.0002 21.1639 95.1637 14.0005 104 14.0005C112.837 14.0005 120 21.1639 120 30.0005C120 38.837 112.837 46.0005 104 46.0005H88.0002V30.0005Z" fill="url(#paint2_linear)"/>
<path d="M82.0002 45.0005C82.0002 53.837 74.8368 61.0005 66.0002 61.0005C57.1637 61.0005 50.0002 53.837 50.0002 45.0005C50.0002 36.1639 57.1637 29.0005 66.0002 29.0005L82.0002 29.0005L82.0002 45.0005Z" fill="url(#paint3_linear)"/>
</g>
<defs>
<filter id="filter0_d" x="13.304" y="56.5239" width="144.768" height="42.9" filterUnits="userSpaceOnUse" color-interpolation-filters="sRGB">
<feFlood flood-opacity="0" result="BackgroundImageFix"/>
<feColorMatrix in="SourceAlpha" type="matrix" values="0 0 0 0 0 0 0 0 0 0 0 0 0 0 0 0 0 0 127 0"/>
<feOffset dx="1" dy="1"/>
<feGaussianBlur stdDeviation="1.5"/>
<feColorMatrix type="matrix" values="0 0 0 0 0 0 0 0 0 0 0 0 0 0 0 0 0 0 0.25 0"/>
<feBlend mode="normal" in2="BackgroundImageFix" result="effect1_dropShadow"/>
<feBlend mode="normal" in="SourceGraphic" in2="effect1_dropShadow" result="shape"/>
</filter>
<filter id="filter1_d" x="88.04" y="88.5679" width="70.2669" height="24.528" filterUnits="userSpaceOnUse" color-interpolation-filters="sRGB">
<feFlood flood-opacity="0" result="BackgroundImageFix"/>
<feColorMatrix in="SourceAlpha" type="matrix" values="0 0 0 0 0 0 0 0 0 0 0 0 0 0 0 0 0 0 127 0"/>
<feOffset dx="1" dy="1"/>
<feGaussianBlur stdDeviation="1.5"/>
<feColorMatrix type="matrix" values="0 0 0 0 0 0 0 0 0 0 0 0 0 0 0 0 0 0 0.25 0"/>
<feBlend mode="normal" in2="BackgroundImageFix" result="effect1_dropShadow"/>
<feBlend mode="normal" in="SourceGraphic" in2="effect1_dropShadow" result="shape"/>
</filter>
<filter id="filter2_d" x="48.0002" y="12.0005" width="76" height="53" filterUnits="userSpaceOnUse" color-interpolation-filters="sRGB">
<feFlood flood-opacity="0" result="BackgroundImageFix"/>
<feColorMatrix in="SourceAlpha" type="matrix" values="0 0 0 0 0 0 0 0 0 0 0 0 0 0 0 0 0 0 127 0"/>
<feOffset dx="1" dy="1"/>
<feGaussianBlur stdDeviation="1.5"/>
<feColorMatrix type="matrix" values="0 0 0 0 0 0 0 0 0 0 0 0 0 0 0 0 0 0 0.25 0"/>
<feBlend mode="normal" in2="BackgroundImageFix" result="effect1_dropShadow"/>
<feBlend mode="normal" in="SourceGraphic" in2="effect1_dropShadow" result="shape"/>
</filter>
<linearGradient id="paint0_linear" x1="83.9392" y1="55" x2="83.9392" y2="94.9998" gradientUnits="userSpaceOnUse">
<stop stop-color="#40BAFF"/>
<stop offset="1" stop-color="#0070B7"/>
</linearGradient>
<linearGradient id="paint1_linear" x1="114.113" y1="88" x2="114.113" y2="115" gradientUnits="userSpaceOnUse">
<stop stop-color="#D83131"/>
<stop offset="1" stop-color="#9C0F42"/>
</linearGradient>
<linearGradient id="paint2_linear" x1="103.765" y1="14.0005" x2="103.765" y2="46.0003" gradientUnits="userSpaceOnUse">
<stop stop-color="#40BAFF"/>
<stop offset="1" stop-color="#0070B7"/>
</linearGradient>
<linearGradient id="paint3_linear" x1="69.7116" y1="61.0005" x2="69.7116" y2="29.0005" gradientUnits="userSpaceOnUse">
<stop stop-color="#D83131"/>
<stop offset="1" stop-color="#9C0F42"/>
</linearGradient>
</defs>
</svg>
