<svg width="275" height="276" viewBox="0 0 275 276" fill="none" xmlns="http://www.w3.org/2000/svg">
<path d="M18 88.5772C18 88.5772 18 88.5772 18 88.5772V41C18 29.9543 26.9543 21 38 21H237C248.046 21 257 29.9543 257 41V88.5772C257 88.5772 257 88.5772 257 88.5772C257 88.5774 257 153 137.5 153C18 153 18 88.5772 18 88.5772Z" fill="#696969"/>
<path d="M18 140.535C18 140.535 18 140.535 18 140.535V41.5C18 30.4543 26.9543 21.5 38 21.5H53.1216C56.167 21.5 59.1356 22.1692 61.7607 23.7129C77.9345 33.2232 137.5 74.1443 137.5 161C137.5 74.1443 197.065 33.2232 213.239 23.7129C215.864 22.1692 218.833 21.5 221.878 21.5H237C248.046 21.5 257 30.4543 257 41.5V140.535C257 140.535 257 140.535 257 140.535C257 140.535 257 254.013 137.5 254.013C18 254.013 18 140.535 18 140.535Z" fill="url(#paint0_linear)"/>
<mask id="mask0" mask-type="alpha" maskUnits="userSpaceOnUse" x="18" y="21" width="239" height="234">
<path d="M18 140.535C18 140.535 18 140.535 18 140.535V41.5C18 30.4543 26.9543 21.5 38 21.5H53.1216C56.167 21.5 59.1356 22.1692 61.7607 23.7129C77.9345 33.2232 137.5 74.1443 137.5 161C137.5 74.1443 197.065 33.2232 213.239 23.7129C215.864 22.1692 218.833 21.5 221.878 21.5H237C248.046 21.5 257 30.4543 257 41.5V140.535C257 140.535 257 140.535 257 140.535C257 140.535 257 254.013 137.5 254.013C18 254.013 18 140.535 18 140.535Z" fill="url(#paint1_linear)"/>
</mask>
<g mask="url(#mask0)">
<path d="M111.855 186.488L89.7725 236H82.668L104.677 188.246H75.8198V182.68H111.855V186.488Z" fill="#383838"/>
<path d="M127.103 230.47H150.284V236H118.826V231.02L140.689 201.979H119.156V196.376H149.185V201.173L127.103 230.47ZM165.298 236H158.523V196.376H165.298V236ZM157.974 185.866C157.974 184.767 158.304 183.839 158.963 183.083C159.646 182.326 160.647 181.947 161.966 181.947C163.284 181.947 164.285 182.326 164.969 183.083C165.652 183.839 165.994 184.767 165.994 185.866C165.994 186.964 165.652 187.88 164.969 188.612C164.285 189.345 163.284 189.711 161.966 189.711C160.647 189.711 159.646 189.345 158.963 188.612C158.304 187.88 157.974 186.964 157.974 185.866ZM209.646 216.627C209.646 222.658 208.267 227.516 205.508 231.203C202.75 234.889 199.014 236.732 194.302 236.732C189.493 236.732 185.708 235.207 182.95 232.155V251.234H176.175V196.376H182.364L182.693 200.771C185.452 197.353 189.285 195.644 194.192 195.644C198.953 195.644 202.713 197.438 205.472 201.027C208.255 204.616 209.646 209.608 209.646 216.005V216.627ZM202.872 215.858C202.872 211.391 201.919 207.863 200.015 205.275C198.111 202.687 195.499 201.393 192.178 201.393C188.077 201.393 185 203.212 182.95 206.85V225.783C184.976 229.396 188.077 231.203 192.251 231.203C195.499 231.203 198.074 229.921 199.979 227.357C201.907 224.77 202.872 220.937 202.872 215.858Z" fill="#383838"/>
</g>
<rect x="92" y="54.603" width="12" height="12" transform="rotate(-39.3148 92 54.603)" fill="white"/>
<rect x="75" y="39.0496" width="12" height="12" transform="rotate(-48.9486 75 39.0496)" fill="white"/>
<rect x="123.238" y="116.874" width="12" height="12" transform="rotate(-7.83553 123.238 116.874)" fill="white"/>
<rect x="118" y="93.5354" width="12" height="12" transform="rotate(-17.1342 118 93.5354)" fill="white"/>
<path fill-rule="evenodd" clip-rule="evenodd" d="M127 145C124.239 145 122 147.239 122 150V184C122 186.761 124.239 189 127 189H149C151.761 189 154 186.761 154 184V150C154 147.239 151.761 145 149 145H127ZM134 168C131.239 168 129 170.239 129 173V176C129 178.761 131.239 181 134 181H142C144.761 181 147 178.761 147 176V173C147 170.239 144.761 168 142 168H134Z" fill="white"/>
<rect x="184.485" y="37" width="12" height="12" transform="rotate(45 184.485 37)" fill="white"/>
<rect x="202.695" y="22.0867" width="12" height="12" transform="rotate(53.1941 202.695 22.0867)" fill="white"/>
<rect x="143.068" y="102.481" width="12" height="12" transform="rotate(17.3957 143.068 102.481)" fill="white"/>
<rect x="152.277" y="78" width="12" height="12" transform="rotate(20.8809 152.277 78)" fill="white"/>
<rect x="166.597" y="56.4824" width="12" height="11" transform="rotate(37.5631 166.597 56.4824)" fill="white"/>
<rect x="136" y="128" width="12" height="11" fill="white"/>
<rect x="107" y="73" width="12" height="12" transform="rotate(-30 107 73)" fill="white"/>
<defs>
<linearGradient id="paint0_linear" x1="137.5" y1="21.5" x2="137.5" y2="254.013" gradientUnits="userSpaceOnUse">
<stop stop-color="#EDEDED"/>
<stop offset="1" stop-color="#696969"/>
</linearGradient>
<linearGradient id="paint1_linear" x1="137.5" y1="21.5" x2="137.5" y2="254.013" gradientUnits="userSpaceOnUse">
<stop stop-color="#EDEDED"/>
<stop offset="1" stop-color="#696969"/>
</linearGradient>
</defs>
</svg>
