<svg width="275" height="275" viewBox="0 0 275 275" fill="none" xmlns="http://www.w3.org/2000/svg">
<path d="M253.514 137.5C253.514 201.573 201.573 253.514 137.5 253.514C73.4274 253.514 21.4863 201.573 21.4863 137.5C21.4863 73.4272 73.4274 21.486 137.5 21.486C201.573 21.486 253.514 73.4272 253.514 137.5Z" fill="url(#paint0_linear)"/>
<path fill-rule="evenodd" clip-rule="evenodd" d="M69.0001 193.326C68.9138 160.441 116.465 65.4775 138.6 65.0028C149.668 64.7223 166.259 85.7603 180.197 112.948C194.155 140.115 205.439 173.452 206 197.792C206 197.792 152.43 93.1614 139.075 92.8594C125.483 92.4925 88.5469 166.569 92.9481 174.812C97.2631 182.86 176.831 156.903 176.831 156.903C175.105 159.557 123.174 193.908 84.2103 202C78.3204 201.741 69.4963 202 69.0001 193.326V193.326Z" fill="white"/>
<defs>
<linearGradient id="paint0_linear" x1="137.5" y1="253.514" x2="137.5" y2="21.486" gradientUnits="userSpaceOnUse">
<stop stop-color="#E04D30"/>
<stop offset="1" stop-color="#FFA316"/>
</linearGradient>
</defs>
</svg>
