<svg width="275" height="276" viewBox="0 0 275 276" fill="none" xmlns="http://www.w3.org/2000/svg">
<rect y="23" width="275" height="224" rx="20" fill="#30A5E7"/>
<path fill-rule="evenodd" clip-rule="evenodd" d="M34 49C28.4772 49 24 53.4771 24 59V216C24 221.523 28.4772 226 34 226H43.3571C46.0238 226 48.58 224.935 50.4577 223.041L137.233 135.537C141.145 131.592 147.522 131.592 151.434 135.537L184.143 168.521C187.632 172.039 193.32 172.039 196.81 168.521C200.299 165.002 205.987 165.002 209.476 168.521L252 211.402V201.366V59C252 53.4772 247.523 49 242 49H34ZM77 119C86.3888 119 94 111.389 94 102C94 92.6112 86.3888 85 77 85C67.6112 85 60 92.6112 60 102C60 111.389 67.6112 119 77 119Z" fill="white"/>
</svg>
