<svg width="64" height="64" viewBox="0 0 64 64" fill="none" xmlns="http://www.w3.org/2000/svg">
<path d="M32 60C47.464 60 60 47.4639 60 31.9999C60 16.536 47.464 4 32 4C16.536 4 4 16.536 4 31.9999C4 47.4639 16.536 60 32 60Z" fill="url(#paint0_linear)"/>
<g filter="url(#filter0_i)">
<path d="M32 55C44.7025 55 55 44.7025 55 32C55 19.2974 44.7025 9 32 9C19.2975 9 9 19.2974 9 32C9 44.7025 19.2975 55 32 55Z" fill="#333333"/>
</g>
<g filter="url(#filter1_i)">
<path d="M32 41C36.9706 41 41 36.9705 41 32C41 27.0294 36.9706 23 32 23C27.0294 23 23 27.0294 23 32C23 36.9705 27.0294 41 32 41Z" fill="#040404"/>
</g>
<path d="M39 33C43.9706 33 48 28.9705 48 24C48 19.0294 43.9706 15 39 15C34.0294 15 30 19.0294 30 24C30 28.9705 34.0294 33 39 33Z" fill="url(#paint1_radial)"/>
<path fill-rule="evenodd" clip-rule="evenodd" d="M44.6668 47.4781C47.2339 45.3747 44.3188 41.9998 41 41.9998V41.9998C29.9543 41.9998 21 33.0454 21 21.9997V21.9997C21 19.3872 18.1775 17.3121 16.5218 19.3329C13.6958 22.782 12 27.1929 12 31.9998C12 43.0455 20.9543 51.9998 32 51.9998C36.8069 51.9998 41.2176 50.304 44.6668 47.4781Z" fill="url(#paint2_radial)"/>
<path d="M23 39C20.7909 39 19 40.7909 19 43C19 45.2091 20.7909 47 23 47C25.2091 47 27 45.2091 27 43C27 40.7909 25.2091 39 23 39Z" fill="url(#paint3_radial)"/>
<defs>
<filter id="filter0_i" x="9" y="9" width="46" height="50" filterUnits="userSpaceOnUse" color-interpolation-filters="sRGB">
<feFlood flood-opacity="0" result="BackgroundImageFix"/>
<feBlend mode="normal" in="SourceGraphic" in2="BackgroundImageFix" result="shape"/>
<feColorMatrix in="SourceAlpha" type="matrix" values="0 0 0 0 0 0 0 0 0 0 0 0 0 0 0 0 0 0 127 0" result="hardAlpha"/>
<feOffset dy="4"/>
<feGaussianBlur stdDeviation="2"/>
<feComposite in2="hardAlpha" operator="arithmetic" k2="-1" k3="1"/>
<feColorMatrix type="matrix" values="0 0 0 0 0 0 0 0 0 0 0 0 0 0 0 0 0 0 0.25 0"/>
<feBlend mode="normal" in2="shape" result="effect1_innerShadow"/>
</filter>
<filter id="filter1_i" x="23" y="23" width="18" height="22" filterUnits="userSpaceOnUse" color-interpolation-filters="sRGB">
<feFlood flood-opacity="0" result="BackgroundImageFix"/>
<feBlend mode="normal" in="SourceGraphic" in2="BackgroundImageFix" result="shape"/>
<feColorMatrix in="SourceAlpha" type="matrix" values="0 0 0 0 0 0 0 0 0 0 0 0 0 0 0 0 0 0 127 0" result="hardAlpha"/>
<feOffset dy="4"/>
<feGaussianBlur stdDeviation="2"/>
<feComposite in2="hardAlpha" operator="arithmetic" k2="-1" k3="1"/>
<feColorMatrix type="matrix" values="0 0 0 0 0 0 0 0 0 0 0 0 0 0 0 0 0 0 0.25 0"/>
<feBlend mode="normal" in2="shape" result="effect1_innerShadow"/>
</filter>
<linearGradient id="paint0_linear" x1="33.75" y1="7.8473" x2="33.75" y2="59.7186" gradientUnits="userSpaceOnUse">
<stop stop-color="#DFDFDF"/>
<stop offset="1" stop-color="#949090"/>
</linearGradient>
<radialGradient id="paint1_radial" cx="0" cy="0" r="1" gradientUnits="userSpaceOnUse" gradientTransform="translate(49 13.5) rotate(135) scale(27.5772)">
<stop stop-color="#BDE7FF"/>
<stop offset="1" stop-color="#BDE7FF" stop-opacity="0"/>
</radialGradient>
<radialGradient id="paint2_radial" cx="0" cy="0" r="1" gradientUnits="userSpaceOnUse" gradientTransform="translate(13.4715 52.7557) rotate(-45.7725) scale(36.9185 36.9051)">
<stop stop-color="#8F76E4"/>
<stop offset="1" stop-color="#E91E63" stop-opacity="0"/>
</radialGradient>
<radialGradient id="paint3_radial" cx="0" cy="0" r="1" gradientUnits="userSpaceOnUse" gradientTransform="translate(18.5556 47.6667) rotate(-45) scale(12.2565)">
<stop stop-color="#BDE7FF"/>
<stop offset="1" stop-color="#BDE7FF" stop-opacity="0"/>
</radialGradient>
</defs>
</svg>
