<svg width="64" height="64" viewBox="0 0 64 64" fill="none" xmlns="http://www.w3.org/2000/svg">
<path d="M15 52.3847C19.0165 55.1118 24.5786 57 32.2809 57C60 57 60 32.5449 60 32.5449V11.3101C60 8.9297 57.923 7 55.3608 7H15V52.3847Z" fill="url(#paint0_linear)"/>
<path d="M27.242 46.585C26.906 46.585 26.648 46.441 26.468 46.153C26.288 45.865 26.27 45.559 26.414 45.235L31.472 33.157C31.652 32.737 31.946 32.527 32.354 32.527C32.786 32.527 33.08 32.737 33.236 33.157L38.312 45.271C38.444 45.607 38.42 45.913 38.24 46.189C38.072 46.453 37.814 46.585 37.466 46.585C37.286 46.585 37.112 46.537 36.944 46.441C36.788 46.333 36.674 46.189 36.602 46.009L35.594 43.489H29.132L28.106 46.009C28.022 46.201 27.896 46.345 27.728 46.441C27.572 46.537 27.41 46.585 27.242 46.585ZM29.762 41.941H34.964L32.39 35.533L29.762 41.941ZM44.0287 46.657C43.1527 46.657 42.3667 46.441 41.6707 46.009C40.9747 45.565 40.4227 44.971 40.0147 44.227C39.6187 43.471 39.4207 42.619 39.4207 41.671C39.4207 40.723 39.6367 39.871 40.0687 39.115C40.5127 38.359 41.1067 37.765 41.8507 37.333C42.6067 36.889 43.4527 36.667 44.3887 36.667C45.3247 36.667 46.1647 36.889 46.9087 37.333C47.6527 37.765 48.2407 38.359 48.6727 39.115C49.1167 39.871 49.3387 40.723 49.3387 41.671V45.685C49.3387 45.949 49.2487 46.171 49.0687 46.351C48.9007 46.519 48.6847 46.603 48.4207 46.603C48.1567 46.603 47.9347 46.519 47.7547 46.351C47.5867 46.171 47.5027 45.949 47.5027 45.685V45.019C47.0827 45.523 46.5727 45.925 45.9727 46.225C45.3847 46.513 44.7367 46.657 44.0287 46.657ZM44.3887 45.037C45.0007 45.037 45.5467 44.893 46.0267 44.605C46.5067 44.305 46.8847 43.903 47.1607 43.399C47.4367 42.883 47.5747 42.307 47.5747 41.671C47.5747 41.023 47.4367 40.447 47.1607 39.943C46.8847 39.427 46.5067 39.025 46.0267 38.737C45.5467 38.437 45.0007 38.287 44.3887 38.287C43.7887 38.287 43.2427 38.437 42.7507 38.737C42.2707 39.025 41.8867 39.427 41.5987 39.943C41.3227 40.447 41.1847 41.023 41.1847 41.671C41.1847 42.307 41.3227 42.883 41.5987 43.399C41.8867 43.903 42.2707 44.305 42.7507 44.605C43.2427 44.893 43.7887 45.037 44.3887 45.037Z" fill="white"/>
<path d="M15 7H9.44444C6.98985 7 5 8.92537 5 11.3004V32.4876C5 32.4876 5 45.2117 15 52.283V7Z" fill="#9C0F42"/>
<path d="M20 7H32V29L26 23.4538L20 29V7Z" fill="white"/>
<defs>
<linearGradient id="paint0_linear" x1="32.2809" y1="7" x2="32.2809" y2="57" gradientUnits="userSpaceOnUse">
<stop stop-color="#D83131"/>
<stop offset="1" stop-color="#9C0F42"/>
</linearGradient>
</defs>
</svg>
