<svg width="64" height="64" viewBox="0 0 64 64" fill="none" xmlns="http://www.w3.org/2000/svg">
<path fill-rule="evenodd" clip-rule="evenodd" d="M60.0001 31.9995V8.82731C60.0001 6.16126 57.8853 4 55.2765 4H14.1819V53.6001C18.993 57.5734 25.1541 59.9703 31.8742 59.9999C32.2613 59.999 32.6431 59.993 33.0196 59.9819C45.8405 59.523 56.4651 50.4441 59.2731 38.3658C59.6778 36.4914 59.8572 34.9201 59.9368 33.8955C59.9786 33.2691 59.9999 32.6371 59.9999 32.0002L60.0001 31.9995Z" fill="url(#paint0_linear)"/>
<path d="M14.1818 53.6001V4H8.52525C6.02602 4 4 6.15642 4 8.8165V31.9502L4.00003 31.9572L4 32.0183C4.00034 32.5617 4.01617 33.1015 4.04706 33.6373C4.10781 34.5354 4.24699 35.9341 4.56586 37.6285C5.86831 44.0108 9.34202 49.6031 14.1818 53.6001Z" fill="#9C0F42"/>
<path d="M46 56.2542V4H55.2765C57.8853 4 60.0001 6.16126 60.0001 8.82731V31.9995C60.0001 32.6365 59.9786 33.2691 59.9368 33.8955C59.8572 34.9202 59.6778 36.4914 59.2731 38.3658C57.4983 45.9999 52.6009 52.4357 46 56.2542Z" fill="#9C0F42"/>
<path fill-rule="evenodd" clip-rule="evenodd" d="M46.239 49.2325C54.7612 43.3826 54.7613 30.866 54.7613 30.866V13.3323C54.7613 11.3668 53.0584 9.77344 50.9578 9.77344H46.239V49.2325Z" fill="white"/>
<defs>
<linearGradient id="paint0_linear" x1="31.777" y1="4" x2="31.777" y2="59.9999" gradientUnits="userSpaceOnUse">
<stop stop-color="#D83131"/>
<stop offset="1" stop-color="#9C0F42"/>
</linearGradient>
</defs>
</svg>
