<svg width="275" height="275" viewBox="0 0 275 275" fill="none" xmlns="http://www.w3.org/2000/svg">
<g clip-path="url(#clip0)">
<path d="M257 140.522V43.9868C257 32.9411 248.046 23.9868 237 23.9868H38C26.9543 23.9868 18 32.9411 18 43.9868V140.522C18 140.522 18 254 137.5 254C257 254 257 140.522 257 140.522Z" fill="url(#paint0_linear)"/>
<path d="M48.52 119C47.0267 119 45.88 118.36 45.08 117.08C44.28 115.8 44.2 114.44 44.84 113L67.32 59.32C68.12 57.4533 69.4267 56.52 71.24 56.52C73.16 56.52 74.4667 57.4533 75.16 59.32L97.72 113.16C98.3067 114.653 98.2 116.013 97.4 117.24C96.6533 118.413 95.5067 119 93.96 119C93.16 119 92.3867 118.787 91.64 118.36C90.9467 117.88 90.44 117.24 90.12 116.44L85.64 105.24H56.92L52.36 116.44C51.9867 117.293 51.4267 117.933 50.68 118.36C49.9867 118.787 49.2667 119 48.52 119ZM59.72 98.36H82.84L71.4 69.88L59.72 98.36ZM123.128 119.32C119.234 119.32 115.741 118.36 112.648 116.44C109.554 114.467 107.101 111.827 105.288 108.52C103.528 105.16 102.648 101.373 102.648 97.16C102.648 92.9467 103.608 89.16 105.528 85.8C107.501 82.44 110.141 79.8 113.448 77.88C116.808 75.9067 120.568 74.92 124.728 74.92C128.888 74.92 132.621 75.9067 135.928 77.88C139.234 79.8 141.848 82.44 143.768 85.8C145.741 89.16 146.728 92.9467 146.728 97.16V115C146.728 116.173 146.328 117.16 145.528 117.96C144.781 118.707 143.821 119.08 142.648 119.08C141.474 119.08 140.488 118.707 139.688 117.96C138.941 117.16 138.568 116.173 138.568 115V112.04C136.701 114.28 134.434 116.067 131.768 117.4C129.154 118.68 126.274 119.32 123.128 119.32ZM124.728 112.12C127.448 112.12 129.874 111.48 132.008 110.2C134.141 108.867 135.821 107.08 137.048 104.84C138.274 102.547 138.888 99.9867 138.888 97.16C138.888 94.28 138.274 91.72 137.048 89.48C135.821 87.1867 134.141 85.4 132.008 84.12C129.874 82.7867 127.448 82.12 124.728 82.12C122.061 82.12 119.634 82.7867 117.448 84.12C115.314 85.4 113.608 87.1867 112.328 89.48C111.101 91.72 110.488 94.28 110.488 97.16C110.488 99.9867 111.101 102.547 112.328 104.84C113.608 107.08 115.314 108.867 117.448 110.2C119.634 111.48 122.061 112.12 124.728 112.12Z" fill="black"/>
<path d="M52 180L111 180" stroke="#4B4B4B" stroke-width="10" stroke-linecap="round"/>
<path d="M179 180H224" stroke="#4B4B4B" stroke-width="10" stroke-linecap="round"/>
<line x1="80" y1="213" x2="110" y2="213" stroke="#4B4B4B" stroke-width="10" stroke-linecap="round"/>
<line x1="150" y1="213" x2="203" y2="213" stroke="#4B4B4B" stroke-width="10" stroke-linecap="round"/>
<line x1="48" y1="148" x2="124" y2="148" stroke="#4B4B4B" stroke-width="10" stroke-linecap="round"/>
<line x1="158" y1="148" x2="229" y2="148" stroke="#4B4B4B" stroke-width="10" stroke-linecap="round"/>
<path d="M171.685 202.901L129.25 178.401L126.901 232.47L171.685 202.901Z" fill="url(#paint1_linear)"/>
<path d="M147.427 218.918L127.941 207.668L126.651 232.904L147.427 218.918Z" fill="black"/>
<rect x="212.25" y="34.6411" width="25" height="166" transform="rotate(30 212.25 34.6411)" fill="#D83131"/>
<rect x="233.9" y="47.1411" width="24" height="166" transform="rotate(30 233.9 47.1411)" fill="#8C1717"/>
<rect x="242.4" y="32.4185" width="24" height="17" transform="rotate(30 242.4 32.4185)" fill="#BF621E"/>
<rect x="220.75" y="19.9185" width="25" height="17" transform="rotate(30 220.75 19.9185)" fill="#FF9900"/>
<path d="M227.25 8.66025C230.011 3.87733 236.127 2.23858 240.91 5L266.025 19.5C270.808 22.2614 272.447 28.3773 269.685 33.1603L263.185 44.4186L220.75 19.9186L227.25 8.66025Z" fill="url(#paint2_linear)"/>
</g>
<defs>
<linearGradient id="paint0_linear" x1="137.5" y1="86.9869" x2="137.5" y2="254" gradientUnits="userSpaceOnUse">
<stop stop-color="white"/>
<stop offset="1" stop-color="#EDEDED"/>
</linearGradient>
<linearGradient id="paint1_linear" x1="116.749" y1="199.107" x2="156.586" y2="222.107" gradientUnits="userSpaceOnUse">
<stop stop-color="#F8E0C4"/>
<stop offset="1" stop-color="#D9A86E"/>
</linearGradient>
<linearGradient id="paint2_linear" x1="226.25" y1="10.3923" x2="268.685" y2="34.8923" gradientUnits="userSpaceOnUse">
<stop stop-color="white"/>
<stop offset="1" stop-color="#ACACAC"/>
</linearGradient>
<clipPath id="clip0">
<rect width="275" height="275" fill="white"/>
</clipPath>
</defs>
</svg>
