<svg width="64" height="64" viewBox="0 0 64 64" fill="none" xmlns="http://www.w3.org/2000/svg">
<path d="M32 60C47.464 60 60 47.4639 60 31.9999C60 16.536 47.464 4 32 4C16.536 4 4 16.536 4 31.9999C4 47.4639 16.536 60 32 60Z" fill="url(#paint0_linear)"/>
<g filter="url(#filter0_i)">
<path d="M32 55C44.7025 55 55 44.7025 55 32C55 19.2974 44.7025 9 32 9C19.2975 9 9 19.2974 9 32C9 44.7025 19.2975 55 32 55Z" fill="#333333"/>
</g>
<g filter="url(#filter1_i)">
<path d="M32 52C43.0457 52 52 43.0457 52 32C52 20.9543 43.0457 12 32 12C20.9543 12 12 20.9543 12 32C12 43.0457 20.9543 52 32 52Z" fill="#40BAFF" fill-opacity="0.29"/>
</g>
<g filter="url(#filter2_i)">
<path d="M32 41C36.9706 41 41 36.9705 41 32C41 27.0294 36.9706 23 32 23C27.0294 23 23 27.0294 23 32C23 36.9705 27.0294 41 32 41Z" fill="#040404"/>
</g>
<path fill-rule="evenodd" clip-rule="evenodd" d="M52 32C52 43.0457 43.0457 52 32 52C20.9543 52 12 43.0457 12 32C12 20.9543 20.9543 12 32 12C37.7072 12 42.8561 14.3905 46.5 18.2249C49.9084 21.8116 52 26.6615 52 32ZM41 32C41 36.9705 36.9706 41 32 41C27.0294 41 23 36.9705 23 32C23 27.0294 27.0294 23 32 23C34.5683 23 36.8853 24.0757 38.525 25.8012C40.0588 27.4152 41 29.5977 41 32Z" fill="url(#paint1_radial)"/>
<path d="M23 39C20.7909 39 19 40.7909 19 43C19 45.2091 20.7909 47 23 47C25.2091 47 27 45.2091 27 43C27 40.7909 25.2091 39 23 39Z" fill="url(#paint2_radial)"/>
<path fill-rule="evenodd" clip-rule="evenodd" d="M12 32C12 20.9544 20.9543 12 32 12C43.0457 12 52 20.9543 52 32C52 43.0457 43.0457 52 32 52C26.2928 52 21.1439 49.6095 17.5 45.7751C14.0916 42.1884 12 37.3385 12 32ZM15.3525 35C15.3525 27.8203 21.3967 22 28.8525 22C36.3084 22 42.3525 27.8203 42.3525 35C42.3525 42.1797 36.3084 48 28.8525 48C25.0002 48 21.5246 46.4462 19.065 43.9538C16.7644 41.6225 15.3525 38.47 15.3525 35Z" fill="url(#paint3_radial)"/>
<path d="M38 35C42.9706 35 47 30.9705 47 26C47 21.0294 42.9706 17 38 17C33.0294 17 29 21.0294 29 26C29 30.9705 33.0294 35 38 35Z" fill="url(#paint4_radial)"/>
<defs>
<filter id="filter0_i" x="9" y="9" width="46" height="50" filterUnits="userSpaceOnUse" color-interpolation-filters="sRGB">
<feFlood flood-opacity="0" result="BackgroundImageFix"/>
<feBlend mode="normal" in="SourceGraphic" in2="BackgroundImageFix" result="shape"/>
<feColorMatrix in="SourceAlpha" type="matrix" values="0 0 0 0 0 0 0 0 0 0 0 0 0 0 0 0 0 0 127 0" result="hardAlpha"/>
<feOffset dy="4"/>
<feGaussianBlur stdDeviation="2"/>
<feComposite in2="hardAlpha" operator="arithmetic" k2="-1" k3="1"/>
<feColorMatrix type="matrix" values="0 0 0 0 0 0 0 0 0 0 0 0 0 0 0 0 0 0 0.25 0"/>
<feBlend mode="normal" in2="shape" result="effect1_innerShadow"/>
</filter>
<filter id="filter1_i" x="12" y="12" width="40" height="44" filterUnits="userSpaceOnUse" color-interpolation-filters="sRGB">
<feFlood flood-opacity="0" result="BackgroundImageFix"/>
<feBlend mode="normal" in="SourceGraphic" in2="BackgroundImageFix" result="shape"/>
<feColorMatrix in="SourceAlpha" type="matrix" values="0 0 0 0 0 0 0 0 0 0 0 0 0 0 0 0 0 0 127 0" result="hardAlpha"/>
<feOffset dy="4"/>
<feGaussianBlur stdDeviation="2"/>
<feComposite in2="hardAlpha" operator="arithmetic" k2="-1" k3="1"/>
<feColorMatrix type="matrix" values="0 0 0 0 0 0 0 0 0 0 0 0 0 0 0 0 0 0 0.25 0"/>
<feBlend mode="normal" in2="shape" result="effect1_innerShadow"/>
</filter>
<filter id="filter2_i" x="23" y="23" width="18" height="22" filterUnits="userSpaceOnUse" color-interpolation-filters="sRGB">
<feFlood flood-opacity="0" result="BackgroundImageFix"/>
<feBlend mode="normal" in="SourceGraphic" in2="BackgroundImageFix" result="shape"/>
<feColorMatrix in="SourceAlpha" type="matrix" values="0 0 0 0 0 0 0 0 0 0 0 0 0 0 0 0 0 0 127 0" result="hardAlpha"/>
<feOffset dy="4"/>
<feGaussianBlur stdDeviation="2"/>
<feComposite in2="hardAlpha" operator="arithmetic" k2="-1" k3="1"/>
<feColorMatrix type="matrix" values="0 0 0 0 0 0 0 0 0 0 0 0 0 0 0 0 0 0 0.25 0"/>
<feBlend mode="normal" in2="shape" result="effect1_innerShadow"/>
</filter>
<linearGradient id="paint0_linear" x1="33.75" y1="7.8473" x2="33.75" y2="59.7186" gradientUnits="userSpaceOnUse">
<stop stop-color="#DFDFDF"/>
<stop offset="1" stop-color="#949090"/>
</linearGradient>
<radialGradient id="paint1_radial" cx="0" cy="0" r="1" gradientUnits="userSpaceOnUse" gradientTransform="translate(13.6327 52.8696) rotate(-46.8087) scale(41.7445 41.6613)">
<stop stop-color="#8F76E4"/>
<stop offset="1" stop-color="#E91E63" stop-opacity="0"/>
</radialGradient>
<radialGradient id="paint2_radial" cx="0" cy="0" r="1" gradientUnits="userSpaceOnUse" gradientTransform="translate(18.5556 47.6667) rotate(-45) scale(12.2565)">
<stop stop-color="white"/>
<stop offset="1" stop-color="white" stop-opacity="0"/>
</radialGradient>
<radialGradient id="paint3_radial" cx="0" cy="0" r="1" gradientUnits="userSpaceOnUse" gradientTransform="translate(50.6266 11.2725) rotate(133.334) scale(35.0215 34.9623)">
<stop stop-color="#59A5FF" stop-opacity="0.85"/>
<stop offset="0.8125" stop-color="#1E88E9" stop-opacity="0"/>
</radialGradient>
<radialGradient id="paint4_radial" cx="0" cy="0" r="1" gradientUnits="userSpaceOnUse" gradientTransform="translate(48 15.5) rotate(135) scale(27.5772)">
<stop stop-color="white"/>
<stop offset="1" stop-color="#F3FBFF" stop-opacity="0"/>
</radialGradient>
</defs>
</svg>
