<svg width="275" height="275" viewBox="0 0 275 275" fill="none" xmlns="http://www.w3.org/2000/svg">
<path d="M137 254C201.617 254 254 201.617 254 137C254 72.3825 201.617 20 137 20C72.3827 20 20 72.3825 20 137C20 201.617 72.3827 254 137 254Z" fill="url(#paint0_linear)"/>
<path d="M218.749 145.964C207.155 133.639 175.088 138.652 167.567 139.906C156.496 129.147 148.766 116.404 146.155 111.704C150.333 99.7962 153.049 87.1576 153.466 74.7278C153.466 63.447 148.975 51.3306 136.441 51.3306C132.054 51.435 128.085 53.8374 125.891 57.4932C120.564 66.685 122.653 85.6952 131.218 104.914C126.204 119.015 118.997 139.384 109.492 155.887C96.6446 161.005 69.3827 173.539 66.7714 187.431C65.9357 191.505 67.3981 195.683 70.5316 198.503C73.5607 201.219 77.5299 202.577 81.6035 202.472C98.0025 202.472 114.401 179.702 125.473 160.169C134.77 156.931 149.602 152.649 164.538 149.933C181.877 165.079 197.336 167.377 205.17 167.377C215.824 167.377 219.793 162.781 221.256 158.916C222.823 154.529 221.882 149.515 218.749 145.964ZM207.468 153.902C206.946 156.931 203.081 159.961 195.874 158.394C187.518 156.305 179.684 152.336 173.103 146.904C178.744 145.964 191.905 144.711 201.201 146.486C204.543 147.113 208.408 148.993 207.468 153.902ZM132.681 61.4624C133.412 60.1045 134.77 59.1645 136.336 59.1645C140.306 59.1645 141.141 63.9692 141.141 67.9384C140.619 77.4435 138.53 87.1576 135.919 95.8271C129.234 78.0703 130.174 65.7449 132.681 61.4624ZM131.74 148.262C135.292 141.264 140.306 128.521 142.081 123.402C146.05 129.983 152.735 138.235 156.287 141.995C156.391 141.89 142.708 144.711 131.74 148.262ZM105.523 166.228C94.9734 183.149 84.6326 193.803 78.5744 193.803C77.6344 193.803 76.5898 193.49 75.8587 192.863C74.7097 191.923 74.1874 190.46 74.5008 188.998C75.6498 182.94 87.6617 174.166 105.523 166.228Z" fill="#D83131"/>
<defs>
<linearGradient id="paint0_linear" x1="137" y1="20" x2="137" y2="254" gradientUnits="userSpaceOnUse">
<stop stop-color="#696969"/>
<stop offset="1" stop-color="#383838"/>
</linearGradient>
</defs>
</svg>
