<svg width="275" height="275" viewBox="0 0 275 275" fill="none" xmlns="http://www.w3.org/2000/svg">
<path d="M137 254.152C201.617 254.152 254 201.959 254 137.576C254 73.1927 201.617 21 137 21C72.3827 21 20 73.1927 20 137.576C20 201.959 72.3827 254.152 137 254.152Z" fill="url(#paint0_linear)"/>
<path d="M136.985 73C101.762 73 73.2897 100.669 72 135.557C81.2878 159.971 104.894 177.209 132.651 177.209C152.283 177.209 169.737 168.598 181.606 154.912C176.721 177.783 159.889 196.061 137.903 203C173.526 202.556 202 173.766 202 138.013C202 101.967 173.038 73.0268 137.015 73.0268" fill="white"/>
<defs>
<linearGradient id="paint0_linear" x1="137" y1="21" x2="137" y2="254.152" gradientUnits="userSpaceOnUse">
<stop stop-color="#8296DB"/>
<stop offset="1" stop-color="#3A389A"/>
</linearGradient>
</defs>
</svg>
