<svg width="275" height="275" viewBox="0 0 275 275" fill="none" xmlns="http://www.w3.org/2000/svg">
<path d="M137 254C201.617 254 254 201.617 254 137C254 72.3825 201.617 20 137 20C72.3827 20 20 72.3825 20 137C20 201.617 72.3827 254 137 254Z" fill="url(#paint0_linear)"/>
<path d="M124.158 96.0274C106.281 96.0071 93.2161 109.675 84.8644 125.595C73.9783 146.34 62.4933 177 84.6561 177C107.982 177 127.363 164.092 141.066 154.337C146.037 163.372 153.272 177 163.381 177C173.49 177 182.705 173.031 187.208 169.498L204 146.181L202.182 144.096C180.929 154.594 173.678 161.813 161.736 139.155L176.811 125.335L198.949 98.0147L197.319 96L157.486 130.777C151.038 117.469 137.791 96.0415 124.142 96.0249L124.158 96.0274ZM109.23 113.215C121.888 113.215 129.311 131.803 136.76 145.576C125.777 151.803 111.429 159.482 100.913 157.336C88.4483 154.79 85.2749 141.79 90.2966 132.024C94.7495 122.872 100.213 113.224 109.215 113.224" fill="#24E0D5"/>
<defs>
<linearGradient id="paint0_linear" x1="137" y1="20" x2="137" y2="254" gradientUnits="userSpaceOnUse">
<stop stop-color="#696969"/>
<stop offset="1" stop-color="#383838"/>
</linearGradient>
</defs>
</svg>
