<svg width="275" height="275" viewBox="0 0 275 275" fill="none" xmlns="http://www.w3.org/2000/svg">
<path d="M138 255C202.617 255 255 202.617 255 138C255 73.3825 202.617 21 138 21C73.3827 21 21 73.3825 21 138C21 202.617 73.3827 255 138 255Z" fill="url(#paint0_linear)"/>
<path fill-rule="evenodd" clip-rule="evenodd" d="M147.349 127.813C147.349 135.057 147.527 141.066 144.035 147.464C141.226 152.678 136.76 155.877 131.79 155.877C124.985 155.877 121.039 150.469 121.039 142.479C121.039 126.693 134.567 123.818 147.349 123.818V127.83V127.813ZM165.197 172.946C164.638 173.452 163.933 173.769 163.184 173.851C162.434 173.933 161.678 173.775 161.023 173.4C155.16 168.301 154.105 165.93 150.856 161.058C141.145 171.419 134.291 174.521 121.689 174.521C106.796 174.521 95.1841 164.923 95.1841 145.678C95.1841 130.656 102.98 120.424 114.056 115.422C123.637 110.988 137.068 110.225 147.332 108.991V106.587C147.332 102.202 147.657 96.989 145.205 93.1887C143.045 89.7782 138.903 88.3816 135.266 88.3816C128.51 88.3816 122.501 91.9869 121.039 99.49C120.714 101.163 119.577 102.803 117.953 102.884L100.787 100.968C99.3416 100.611 97.7501 99.3926 98.1399 97.0702C102.119 75.3567 120.909 68.7793 137.734 68.7793C146.342 68.7793 157.596 71.1666 164.369 77.9876C172.992 86.4002 172.164 97.6224 172.164 109.819V138.662C172.164 147.351 175.607 151.135 178.839 155.828C179.976 157.485 180.235 159.515 178.806 160.749C174.237 164.798 169.711 168.897 165.229 173.043L165.164 172.978" fill="#201F1F"/>
<path fill-rule="evenodd" clip-rule="evenodd" d="M193.033 188.796C177.979 200.165 156.168 206.239 137.361 206.239C112.14 206.325 87.8298 196.814 69.3622 179.637C67.9493 178.338 69.1998 176.551 70.9051 177.558C91.5351 189.675 115.027 196.061 138.953 196.056C156.812 195.973 174.469 192.271 190.857 185.175C193.407 184.07 195.551 186.88 193.05 188.78" fill="#FF9900"/>
<path fill-rule="evenodd" clip-rule="evenodd" d="M199.302 181.456C197.385 178.939 186.569 180.254 181.746 180.855C180.252 181.034 180.024 179.718 181.372 178.76C189.964 172.572 204.109 174.343 205.733 176.438C207.373 178.516 205.311 193.019 197.207 199.938C195.973 201.009 194.803 200.441 195.355 199.028C197.142 194.383 201.234 183.973 199.302 181.456Z" fill="#FF9900"/>
<defs>
<linearGradient id="paint0_linear" x1="138" y1="21" x2="138" y2="255" gradientUnits="userSpaceOnUse">
<stop stop-color="white"/>
<stop offset="1" stop-color="#EDEDED"/>
</linearGradient>
</defs>
</svg>
