<svg width="275" height="275" viewBox="0 0 275 275" fill="none" xmlns="http://www.w3.org/2000/svg">
<path d="M137.501 253.654C201.575 253.654 253.517 201.711 253.517 137.637C253.517 73.5633 201.575 21.6211 137.501 21.6211C73.4267 21.6211 21.4844 73.5633 21.4844 137.637C21.4844 201.711 73.4267 253.654 137.501 253.654Z" fill="url(#paint0_linear)"/>
<path d="M133.137 91.0889L117.012 100.398L200.799 245.523L218.17 256.993L216.923 236.214L133.137 91.0889Z" fill="#ECECEC"/>
<path d="M205.765 120.879C205.765 145.757 198.373 151.657 189.376 162.17C184.726 167.527 179.268 172.076 173.001 175.513C164.51 180.264 151.601 182.892 141.19 182.892C130.778 182.892 120.973 180.163 112.584 175.513C106.463 170.582 94.05 189.201 102.274 191.642C113.797 198.112 127.14 201.614 141.291 201.614C155.442 201.614 171.889 198.112 183.412 191.642C189.578 188.206 195.239 183.961 200.192 179.108C215.152 164.553 224.553 143.523 224.553 120.982C218.17 120.92 211.426 120.982 205.765 120.92V120.879Z" fill="#CCCCCC"/>
<path d="M141.845 91.0889L157.97 100.398L74.1837 245.523L56.812 256.993L58.0589 236.214L141.845 91.0889Z" fill="#CCCCCC"/>
<path d="M156.821 89.8488H149.908V71.228H125.083V89.8488H118.069C111.711 89.8488 106.463 95.1024 106.463 101.388V131.771H106.564C106.463 132.769 107.069 133.867 108.381 135.163L131.693 155.724C133.307 157.321 135.427 158.119 137.445 158.119V158.02L137.546 158.119C139.665 158.119 141.784 157.321 143.298 155.724L166.61 135.163C167.922 133.867 168.427 132.669 168.427 131.771H168.528V101.488C168.427 95.1031 163.28 89.8488 156.821 89.8488H156.821Z" fill="#363C3E"/>
<path d="M137.537 127.087H137.456C130.664 127.087 125.084 121.562 125.084 114.757C125.084 107.951 130.664 102.426 137.456 102.426V102.265L137.537 102.426C144.33 102.507 149.91 107.951 149.91 114.757C149.91 121.562 144.33 127.007 137.537 127.087Z" fill="white"/>
<defs>
<linearGradient id="paint0_linear" x1="137.501" y1="21.6211" x2="137.501" y2="253.654" gradientUnits="userSpaceOnUse">
<stop stop-color="#A2CA4C"/>
<stop offset="1" stop-color="#3F812D"/>
</linearGradient>
</defs>
</svg>
