<svg width="275" height="275" viewBox="0 0 275 275" fill="none" xmlns="http://www.w3.org/2000/svg">
<path d="M137 254C201.617 254 254 201.617 254 137C254 72.3825 201.617 20 137 20C72.3827 20 20 72.3825 20 137C20 201.617 72.3827 254 137 254Z" fill="url(#paint0_linear)"/>
<path d="M180.558 67.1098C177.042 68.0806 171.142 75.8519 168.149 76.4236C164.713 77.0762 154.477 70.3133 152.094 72.821C149.731 75.3504 157.233 85.252 156.813 88.682C156.37 92.0958 146.576 99.8241 148.259 102.839C149.947 105.832 161.785 101.809 164.924 103.259C168.084 104.716 172.425 116.154 175.834 115.502C179.248 114.849 179.016 102.607 181.394 100.083C183.772 97.5752 196.16 96.9657 196.581 93.5304C197.002 90.1166 185.228 86.6219 183.519 83.6072C181.831 80.5924 184.975 68.5659 181.815 67.1098C181.437 66.9426 181.033 66.9858 180.531 67.1098" fill="#78CFFF"/>
<path d="M121.504 110.146C114.655 111.096 113.749 135.974 108.761 140.779C103.767 145.584 79.2659 145.374 78.0471 152.218C76.8229 159.045 99.8351 167.658 102.866 173.952C105.881 180.208 98.1255 203.592 104.214 206.86C110.325 210.144 125.598 190.681 132.441 189.732C139.291 188.783 159.089 203.446 164.061 198.641C169.076 193.836 155.34 173.256 156.559 166.407C157.783 159.541 177.775 145.234 174.761 138.999C171.746 132.743 148.092 139.528 142.003 136.238C135.893 132.954 128.375 109.219 121.504 110.2" fill="#78CFFF"/>
<defs>
<linearGradient id="paint0_linear" x1="137" y1="20" x2="137" y2="254" gradientUnits="userSpaceOnUse">
<stop stop-color="#344853"/>
<stop offset="1" stop-color="#1E3440"/>
</linearGradient>
</defs>
</svg>
