<svg width="275" height="276" viewBox="0 0 275 276" fill="none" xmlns="http://www.w3.org/2000/svg">
<path d="M254 137.5C254 201.841 201.841 254 137.5 254C73.1588 254 21 201.841 21 137.5C21 73.1588 73.1588 21 137.5 21C201.841 21 254 73.1588 254 137.5Z" fill="url(#paint0_linear)"/>
<path d="M195.961 98.7261L154.595 73.6112C151.263 71.5881 147 73.9869 147 77.8851V128.115C147 132.013 151.263 134.412 154.595 132.389L195.961 107.274C199.167 105.327 199.167 100.673 195.961 98.7261Z" fill="#383838"/>
<rect x="76" y="75" width="56" height="56" rx="5" fill="#383838"/>
<rect x="76" y="149" width="56" height="56" rx="5" fill="#383838"/>
<rect x="147" y="149" width="56" height="56" rx="5" fill="#383838"/>
<defs>
<linearGradient id="paint0_linear" x1="137.5" y1="21" x2="137.5" y2="254" gradientUnits="userSpaceOnUse">
<stop stop-color="#EEEEEE"/>
<stop offset="1" stop-color="#C4C4C4"/>
</linearGradient>
</defs>
</svg>
