<svg width="275" height="275" viewBox="0 0 275 275" fill="none" xmlns="http://www.w3.org/2000/svg">
<path d="M137 254C201.617 254 254 201.617 254 137C254 72.3825 201.617 20 137 20C72.3827 20 20 72.3825 20 137C20 201.617 72.3827 254 137 254Z" fill="url(#paint0_linear)"/>
<path d="M93.8942 96.0204C88.5203 96.0138 83.2 97.0891 78.2504 99.1815C73.3008 101.274 68.8231 104.341 65.0843 108.2C57.2775 116.145 52.9333 126.856 53.0008 137.993C53.0008 143.547 54.0722 149.042 56.1556 154.14C58.2191 159.237 61.2747 163.879 65.0843 167.767C68.7869 171.581 73.2106 174.621 78.0984 176.712C82.9861 178.803 88.2407 179.903 93.5569 179.947H93.9141C99.5066 180.237 105.097 179.344 110.322 177.327C115.546 175.311 120.286 172.216 124.232 168.243C129.331 163.245 133.359 157.373 137.01 151.383C140.661 157.373 144.669 163.245 149.768 168.243C157.248 175.523 167.427 180.542 180.106 179.947H180.463C185.681 179.907 190.84 178.836 195.662 176.793C200.622 174.71 205.126 171.635 208.936 167.767L208.955 167.728C216.737 159.793 221.066 149.105 220.999 137.993C220.999 132.439 219.928 126.945 217.864 121.847L217.825 121.748C215.76 116.692 212.734 112.084 208.916 108.18C205.172 104.322 200.69 101.256 195.738 99.164C190.785 97.0717 185.463 95.9957 180.086 96.0004C166.772 96.0004 156.236 101.495 148.459 109.112C143.954 113.516 140.304 118.554 136.99 123.711C133.736 118.429 129.896 113.532 125.542 109.112C121.402 104.934 116.472 101.623 111.038 99.3722C105.604 97.121 99.7761 95.9743 93.8942 96.0004V96.0204ZM93.7553 108.021C104.41 108.021 111.216 111.83 117.426 118.138C122.387 123.137 126.712 129.94 130.998 137.379C126.097 146.027 121.355 153.941 116.037 159.317C110.164 165.228 104.093 168.501 94.1522 167.926H93.7553C89.9854 167.926 86.156 167.132 82.6639 165.605C79.1959 164.08 76.0611 161.891 73.4376 159.158L73.3185 159.059C67.9205 153.372 64.9402 145.813 65.0049 137.974C64.9507 130.138 67.9379 122.587 73.3384 116.908L73.4376 116.789C76.0492 114.017 79.201 111.809 82.6988 110.301C86.1965 108.793 89.9661 108.017 93.7752 108.021H93.7553ZM180.245 108.021C184.015 108.021 187.844 108.815 191.356 110.342C194.789 111.85 197.963 114.071 200.582 116.789L200.681 116.928C206.084 122.606 209.071 130.157 209.015 137.993C209.015 141.861 208.261 145.769 206.852 149.359C205.443 152.93 203.32 156.302 200.681 159.079L200.562 159.158C197.949 161.929 194.797 164.135 191.3 165.643C187.802 167.151 184.034 167.927 180.225 167.926H179.848C169.927 168.521 163.836 165.248 157.963 159.337C152.645 153.981 147.903 146.047 143.002 137.379C147.308 129.96 151.633 123.156 156.574 118.138C162.804 111.85 169.61 108.021 180.245 108.021ZM173.003 120.022V132.003H160.998V144.004H173.003V156.005H185.007V144.004H196.991V132.003H185.007V120.022H173.003ZM77.0091 132.003V144.004H113.002V132.003H77.0091Z" fill="white"/>
<defs>
<linearGradient id="paint0_linear" x1="137" y1="20" x2="137" y2="254" gradientUnits="userSpaceOnUse">
<stop stop-color="#169BA1"/>
<stop offset="1" stop-color="#006569"/>
</linearGradient>
</defs>
</svg>
