<svg width="275" height="275" viewBox="0 0 275 275" fill="none" xmlns="http://www.w3.org/2000/svg">
<path d="M137.5 253.41C201.573 253.41 253.515 201.468 253.515 137.395C253.515 73.3211 201.573 21.3794 137.5 21.3794C73.4263 21.3794 21.4844 73.3211 21.4844 137.395C21.4844 201.468 73.4263 253.41 137.5 253.41Z" fill="url(#paint0_linear)"/>
<path d="M112.871 74.0082C111.519 73.9399 110.165 74.0875 108.86 74.4463C104.037 76.1191 101.016 79.7082 99.3592 85.7172C97.8976 90.9466 97.9463 100.35 99.4567 108.535C99.7165 109.964 99.9926 111.264 100.058 111.459C100.139 111.767 99.6191 111.946 97.3454 112.465C86.2207 115.031 78.1167 118.864 73.2283 123.834C71.2927 125.63 69.8739 127.913 69.1195 130.443C68.6236 132.657 68.6236 134.953 69.1195 137.167C70.4837 141.779 74.3327 146.099 80.4066 149.932C84.6291 152.563 85.8796 152.855 87.2276 151.475C87.8772 150.825 88.0234 150.517 88.0234 149.737C88.0234 148.243 87.5687 147.626 85.5873 146.489C73.1471 139.392 70.9709 132.295 79.2535 125.961C83.4761 122.778 89.3714 120.245 97.3129 118.279C100.772 117.419 101.568 117.305 101.568 117.76C101.568 118.393 104.118 126.692 105.449 130.265L106.814 134L105.011 137.508C97.8164 151.556 93.2203 165.88 92.6682 176.355C92.1972 184.427 93.6426 190.193 97.1668 193.782C101 197.679 106.424 198.491 113.375 196.25C117.194 194.78 120.838 192.89 124.24 190.615C126.432 189.137 126.919 188.698 127.212 187.918C127.504 187.139 127.504 186.896 127.212 186.084C126.773 184.866 125.864 184.183 124.613 184.183C123.817 184.183 123.265 184.443 121.203 185.856C116.509 189.088 112.108 191.085 108.454 191.703C103.403 192.596 100.155 190.338 98.6609 184.979C98.0113 182.657 98.06 175.235 98.7746 171.37C99.8465 165.247 101.714 158.897 104.41 152.206C106.002 148.243 109.039 141.584 109.445 141.162C109.656 140.919 109.932 141.292 110.598 142.884C114.073 150.777 119.368 160.424 124.564 168.219C136.94 186.814 150.484 198.913 160.943 200.651L160.813 200.667C165.409 201.414 169.275 200.278 172.263 197.241C174.699 194.723 176.323 191.199 177.232 186.278C177.785 183.209 177.785 174.601 177.232 170.428C175.543 157.906 171.028 143.55 164.272 129.258C163.217 127.017 162.632 126.465 161.268 126.465C160.91 126.456 160.554 126.519 160.22 126.649C159.887 126.78 159.582 126.976 159.325 127.225C159.068 127.475 158.864 127.773 158.723 128.103C158.583 128.432 158.509 128.786 158.507 129.144C158.507 129.664 159.027 131.077 159.888 132.945C168.203 150.891 172.685 168.268 172.23 180.854C171.954 188.325 170.103 192.839 166.611 194.577C164.776 195.503 162.454 195.471 159.384 194.464C145.352 189.656 126.351 165.62 114.106 137.183L112.888 134.341L114.674 131.272C116.672 127.797 121.739 119.984 124.061 116.785L125.636 114.674H129.778C154.885 114.674 179.717 120.407 192.904 129.209C195.584 131.012 198.832 134.293 199.807 136.225C200.505 137.557 200.57 137.914 200.57 139.684C200.57 141.422 200.505 141.844 199.92 142.9C198.312 146.034 194.074 149.299 188.584 151.621C186.051 152.709 185.369 153.408 185.369 154.902C185.369 156.152 186.181 157.208 187.399 157.582C188.178 157.809 188.438 157.776 189.835 157.208C198.686 153.667 204.776 148.178 206.01 142.608C206.348 140.694 206.337 138.736 205.978 136.826C205.328 133.951 202.957 130.281 200.245 127.813C188.178 116.85 162.6 109.786 132.23 109.055L130.054 108.99L132.604 106.099C133.968 104.491 136.388 101.812 138.06 100.09C146.7 91.2229 154.707 85.4086 161.723 82.9888C163.292 82.3047 165 81.9989 166.709 82.0957C168.868 82.0957 169.388 82.1606 170.33 82.6478C171.78 83.4582 172.965 84.6708 173.741 86.1394C175.154 88.9978 175.641 94.0161 174.942 99.3755C174.74 100.939 174.605 102.51 174.536 104.085C174.536 105.32 174.585 105.498 175.283 106.115C175.498 106.35 175.763 106.534 176.058 106.652C176.353 106.77 176.671 106.819 176.989 106.797C178.191 106.797 179.311 106.148 179.636 105.271C180.627 102.672 181.146 93.4963 180.513 89.6311C179.506 83.6871 176.989 79.6756 172.994 77.7268C165.896 74.2676 155.616 77.6457 143.598 87.4062C136.148 93.7448 129.368 100.83 123.363 108.551L122.794 109.201L119.432 109.412C116.607 109.575 111.994 110.029 106.651 110.679L105.482 110.825L104.995 107.967C104.174 104.016 103.82 99.9822 103.939 95.9488C103.939 91.1578 104.004 90.2321 104.459 88.3157C105.579 83.4598 107.788 80.4552 110.695 79.8218C114.706 78.9773 119.676 80.9914 126.659 86.2371C128.901 87.9423 131.613 86.497 131.288 83.8011C131.126 82.648 130.07 81.6411 126.53 79.2538C123.745 77.3113 120.692 75.7845 117.467 74.7223C115.986 74.3052 114.458 74.0762 112.92 74.0404L112.871 74.0082ZM118.231 115.161C118.231 115.259 117.272 116.753 116.103 118.507C114.815 120.389 113.569 122.301 112.368 124.24C111.795 125.217 111.183 126.171 110.533 127.098C110.305 127.342 109.981 126.692 108.974 123.428C107.512 118.929 106.911 116.509 107.09 116.298C107.415 115.973 118.214 114.837 118.214 115.161H118.231ZM140.155 132.165C139.112 132.161 138.078 132.363 137.112 132.759C136.147 133.155 135.27 133.738 134.53 134.475C133.791 135.211 133.204 136.086 132.804 137.05C132.404 138.014 132.197 139.047 132.197 140.091C132.197 141.134 132.404 142.167 132.804 143.131C133.204 144.094 133.791 144.97 134.53 145.706C135.27 146.442 136.147 147.025 137.112 147.422C138.078 147.818 139.112 148.02 140.155 148.016C142.257 148.016 144.273 147.181 145.759 145.695C147.246 144.208 148.081 142.193 148.081 140.091C148.081 139.049 147.875 138.017 147.476 137.054C147.077 136.091 146.491 135.217 145.754 134.481C145.016 133.745 144.14 133.161 143.177 132.764C142.214 132.367 141.181 132.163 140.139 132.165H140.155Z" fill="white"/>
<defs>
<linearGradient id="paint0_linear" x1="137.5" y1="21.3794" x2="137.5" y2="253.41" gradientUnits="userSpaceOnUse">
<stop stop-color="#6FD16F"/>
<stop offset="1" stop-color="#27854C"/>
</linearGradient>
</defs>
</svg>
