<svg width="64" height="64" viewBox="0 0 64 64" fill="none" xmlns="http://www.w3.org/2000/svg">
<path d="M32 60C47.464 60 60 47.4639 60 31.9999C60 16.536 47.464 4 32 4C16.536 4 4 16.536 4 31.9999C4 47.4639 16.536 60 32 60Z" fill="url(#paint0_linear)"/>
<g filter="url(#filter0_dd)">
<path d="M25.8726 15.0043C25.5088 14.986 25.1445 15.0256 24.7932 15.1217C23.4954 15.5699 22.6826 16.5316 22.2368 18.1416C21.8435 19.5427 21.8567 22.0621 22.2631 24.2552C22.333 24.6381 22.4073 24.9864 22.4247 25.0386C22.4466 25.1213 22.3068 25.169 21.695 25.3083C18.7016 25.9958 16.521 27.0228 15.2057 28.3543C14.6848 28.8357 14.3031 29.4471 14.1001 30.1252C13.9666 30.7183 13.9666 31.3335 14.1001 31.9267C14.4671 33.1625 15.5028 34.32 17.1372 35.3469C18.2733 36.0518 18.6098 36.1301 18.9725 35.7603C19.1473 35.5862 19.1866 35.5036 19.1866 35.2947C19.1866 34.8944 19.0643 34.729 18.5312 34.4244C15.1838 32.5228 14.5982 30.6213 16.8269 28.9242C17.9631 28.0714 19.5493 27.3926 21.6862 26.8661C22.617 26.6354 22.8311 26.6051 22.8311 26.7269C22.8311 26.8966 23.5172 29.1201 23.8756 30.0774L24.2426 31.0783L23.7576 32.018C21.8217 35.782 20.585 39.6199 20.4364 42.4265C20.3097 44.5891 20.6986 46.134 21.6469 47.0956C22.6782 48.1399 24.1377 48.3574 26.0081 47.7569C27.0357 47.363 28.0163 46.8567 28.9315 46.2471C29.5215 45.8511 29.6526 45.7335 29.7312 45.5247C29.8099 45.3158 29.8099 45.2506 29.7312 45.0331C29.6132 44.7067 29.3685 44.5239 29.032 44.5239C28.8179 44.5239 28.6693 44.5936 28.1144 44.9721C26.8515 45.838 25.6672 46.3732 24.684 46.5385C23.3249 46.7779 22.451 46.173 22.0489 44.7371C21.8741 44.1148 21.8872 42.1263 22.0795 41.0907C22.3679 39.4503 22.8705 37.7488 23.5959 35.956C24.0241 34.8943 24.8413 33.1103 24.9506 32.9971C25.0074 32.9318 25.0816 33.032 25.2608 33.4584C26.196 35.5732 27.6206 38.1579 29.0189 40.2466C32.3488 45.2289 35.9933 48.4705 38.8075 48.9361L38.7726 48.9405C40.0093 49.1407 41.0493 48.8361 41.8534 48.0224C42.5088 47.3479 42.9458 46.4037 43.1905 45.0853C43.3391 44.2629 43.3391 41.9566 43.1905 40.8383C42.7361 37.4834 41.5212 33.6368 39.7034 29.8076C39.4193 29.2071 39.262 29.0591 38.8949 29.0591C38.7986 29.0568 38.7027 29.0737 38.613 29.1087C38.5232 29.1437 38.4414 29.1961 38.3722 29.263C38.303 29.3298 38.248 29.4097 38.2101 29.498C38.1723 29.5863 38.1526 29.6812 38.152 29.7772C38.152 29.9164 38.2919 30.295 38.5235 30.7954C40.7609 35.6037 41.967 40.2595 41.8446 43.6318C41.7703 45.6335 41.2722 46.8431 40.3326 47.3087C39.8388 47.5568 39.2139 47.5481 38.388 47.2783C34.6124 45.9903 29.4996 39.5503 26.2047 31.9311L25.877 31.1696L26.3577 30.3472C26.8952 29.416 28.2586 27.3229 28.8835 26.4657L29.3073 25.9001H30.4217C37.1776 25.9001 43.8591 27.4361 47.4075 29.7946C48.1285 30.2776 49.0025 31.1566 49.2647 31.6744C49.4526 32.0312 49.4701 32.1268 49.4701 32.6011C49.4701 33.0667 49.4526 33.1799 49.2953 33.4627C48.8627 34.3025 47.7221 35.1772 46.2451 35.7994C45.5634 36.091 45.3799 36.2781 45.3799 36.6784C45.3799 37.0135 45.5984 37.2963 45.9261 37.3964C46.1359 37.4573 46.2058 37.4486 46.5816 37.2963C48.9632 36.3477 50.6019 34.877 50.934 33.3845C51.0248 32.8718 51.0219 32.3469 50.9253 31.8353C50.7505 31.0651 50.1125 30.0817 49.3827 29.4203C46.1359 26.4832 39.2533 24.5903 31.0815 24.3945L30.496 24.3771L31.182 23.6026C31.5491 23.1718 32.2002 22.4538 32.6503 21.9926C34.9751 19.6167 37.1295 18.0589 39.0173 17.4106C39.4395 17.2273 39.899 17.1453 40.3588 17.1713C40.94 17.1713 41.0799 17.1886 41.3333 17.3192C41.7235 17.5363 42.0422 17.8612 42.251 18.2547C42.6312 19.0206 42.7623 20.3651 42.5744 21.8011C42.52 22.22 42.4835 22.641 42.4651 23.063C42.4651 23.3937 42.4782 23.4416 42.6662 23.6069C42.7239 23.6698 42.7951 23.719 42.8746 23.7506C42.954 23.7823 43.0396 23.7956 43.125 23.7897C43.4484 23.7897 43.7499 23.6156 43.8373 23.3807C44.1039 22.6844 44.2437 20.2259 44.0733 19.1902C43.8023 17.5976 43.125 16.5229 42.05 16.0007C40.1404 15.0738 37.3742 15.979 34.1405 18.5941C32.1359 20.2924 30.3114 22.1909 28.6956 24.2596L28.5426 24.4337L27.638 24.4903C26.8777 24.5338 25.6366 24.6556 24.1989 24.8297L23.8843 24.8689L23.7532 24.1029C23.5325 23.0443 23.4371 21.9637 23.4692 20.883C23.4692 19.5993 23.4866 19.3513 23.609 18.8378C23.9105 17.5368 24.5048 16.7317 25.287 16.562C26.3664 16.3357 27.7036 16.8754 29.5827 18.2809C30.1857 18.7378 30.9155 18.3505 30.8281 17.6282C30.7844 17.3193 30.5003 17.0495 29.5477 16.4098C28.7984 15.8894 27.977 15.4803 27.1093 15.1957C26.7107 15.0839 26.2997 15.0226 25.8857 15.013L25.8726 15.0043ZM27.3147 26.0307C27.3147 26.0568 27.0568 26.4571 26.7422 26.927C26.3955 27.4314 26.0604 27.9435 25.7371 28.463C25.5831 28.7249 25.4184 28.9804 25.2433 29.2289C25.1822 29.2941 25.0948 29.1201 24.8238 28.2455C24.4305 27.0402 24.2688 26.3917 24.3169 26.3352C24.4043 26.2481 27.3103 25.9436 27.3103 26.0307H27.3147ZM33.214 30.5865C32.9333 30.5854 32.655 30.6394 32.3953 30.7456C32.1355 30.8518 31.8994 31.008 31.7005 31.2053C31.5015 31.4026 31.3437 31.6371 31.236 31.8953C31.1282 32.1535 31.0728 32.4304 31.0728 32.71C31.0728 32.9896 31.1282 33.2664 31.236 33.5246C31.3437 33.7828 31.5015 34.0173 31.7005 34.2146C31.8994 34.4119 32.1355 34.5681 32.3953 34.6743C32.655 34.7805 32.9333 34.8345 33.214 34.8334C33.7796 34.8334 34.322 34.6097 34.722 34.2115C35.1219 33.8133 35.3466 33.2732 35.3466 32.71C35.3466 32.4308 35.2913 32.1543 35.1838 31.8964C35.0764 31.6385 34.9189 31.4042 34.7204 31.2069C34.5219 31.0097 34.2863 30.8534 34.0271 30.7469C33.7679 30.6405 33.4901 30.586 33.2097 30.5865H33.214Z" fill="white"/>
</g>
<defs>
<filter id="filter0_dd" x="10" y="14" width="45" height="43" filterUnits="userSpaceOnUse" color-interpolation-filters="sRGB">
<feFlood flood-opacity="0" result="BackgroundImageFix"/>
<feColorMatrix in="SourceAlpha" type="matrix" values="0 0 0 0 0 0 0 0 0 0 0 0 0 0 0 0 0 0 127 0"/>
<feOffset dy="4"/>
<feGaussianBlur stdDeviation="2"/>
<feColorMatrix type="matrix" values="0 0 0 0 0 0 0 0 0 0 0 0 0 0 0 0 0 0 0.1 0"/>
<feBlend mode="hard-light" in2="BackgroundImageFix" result="effect1_dropShadow"/>
<feColorMatrix in="SourceAlpha" type="matrix" values="0 0 0 0 0 0 0 0 0 0 0 0 0 0 0 0 0 0 127 0"/>
<feOffset dy="1"/>
<feGaussianBlur stdDeviation="1"/>
<feColorMatrix type="matrix" values="0 0 0 0 0 0 0 0 0 0 0 0 0 0 0 0 0 0 0.25 0"/>
<feBlend mode="hard-light" in2="effect1_dropShadow" result="effect2_dropShadow"/>
<feBlend mode="normal" in="SourceGraphic" in2="effect2_dropShadow" result="shape"/>
</filter>
<linearGradient id="paint0_linear" x1="32" y1="4" x2="32" y2="60" gradientUnits="userSpaceOnUse">
<stop stop-color="#6FEB6F"/>
<stop offset="0.0001" stop-color="#84F784"/>
<stop offset="1" stop-color="#19964B"/>
</linearGradient>
</defs>
</svg>
