<svg width="275" height="276" viewBox="0 0 275 276" fill="none" xmlns="http://www.w3.org/2000/svg">
<g clip-path="url(#clip0)">
<path d="M138 255C202.617 255 255 202.617 255 138C255 73.3825 202.617 21 138 21C73.3827 21 21 73.3825 21 138C21 202.617 73.3827 255 138 255Z" fill="url(#paint0_linear)"/>
<path fill-rule="evenodd" clip-rule="evenodd" d="M233.291 205.904C212.074 235.624 177.3 255 138 255C76.9121 255 26.7587 208.183 21.4624 148.472C30.4618 146.993 39.8556 146.486 49.2494 147.615C70.8605 150.212 92.4716 161.465 114.083 172.719C124.888 178.345 135.694 183.972 146.499 188.517C175.43 200.684 204.36 205.095 233.291 205.904Z" fill="url(#paint1_linear)" fill-opacity="0.5"/>
<path fill-rule="evenodd" clip-rule="evenodd" d="M254.998 138.743C254.598 203.018 202.37 255 138 255C91.7151 255 51.7073 228.124 32.7319 189.126C36.1875 190.748 39.7538 191.53 43.3201 190.786C48.5833 189.706 54.5838 186.825 60.7818 183.85C71.8869 178.52 83.6259 172.885 92.8934 176.755C99.4546 179.495 103.538 182.165 107.396 184.688C112.028 187.716 116.335 190.532 124.213 193C138.653 197.523 159.347 189.878 173.787 177.816L173.787 177.816C188.227 165.755 202.667 153.694 217.107 146.156C229.681 139.591 242.256 136.457 254.998 138.743Z" fill="url(#paint2_linear)" fill-opacity="0.5"/>
<path d="M182.28 116L181.74 150.56C181.74 174.5 184.35 188.9 189.57 193.76C190.29 194.48 190.65 195.29 190.65 196.19C190.65 198.89 184.8 200.24 173.1 200.24C161.58 200.24 155.46 196.82 154.74 189.98C154.56 188.36 154.47 185.03 154.47 179.99L155.55 136.79C155.55 135.53 154.83 134.9 153.39 134.9C144.75 134.9 136.65 137.33 129.09 142.19C121.53 147.05 117.75 153.26 117.75 160.82C117.75 164.78 118.83 168.11 120.99 170.81C123.15 173.51 125.76 174.86 128.82 174.86C132.06 174.86 134.67 174.23 136.65 172.97C138.81 171.71 140.07 170.99 140.43 170.81C143.49 171.17 145.02 174.41 145.02 180.53C145.02 186.47 142.23 191.33 136.65 195.11C131.07 198.71 125.22 200.51 119.1 200.51C112.98 200.51 107.67 199.43 103.17 197.27C98.85 195.11 95.7 192.68 93.72 189.98C91.74 187.28 90.12 184.22 88.86 180.8C87.6 176.66 86.97 173.06 86.97 170C86.97 157.4 90.93 147.32 98.85 139.76C106.77 132.2 116.94 126.8 129.36 123.56C145.74 120.32 154.29 117.35 155.01 114.65C155.55 112.67 155.82 109.34 155.82 104.66C155.82 95.12 150.96 90.35 141.24 90.35C137.1 90.35 133.41 91.7 130.17 94.4C126.93 96.92 125.31 100.16 125.31 104.12L126.93 110.6C126.57 113.66 123.33 115.46 117.21 116L114.24 116.27C108.84 116.27 104.52 114.92 101.28 112.22C98.22 109.52 96.69 105.92 96.69 101.42C96.69 98.54 97.59 95.39 99.39 91.97C101.37 88.37 103.8 85.49 106.68 83.33C109.56 81.17 113.97 79.28 119.91 77.66C126.03 75.86 131.88 74.96 137.46 74.96C143.04 74.96 147.36 75.14 150.42 75.5C153.48 75.86 157.62 76.76 162.84 78.2C168.24 79.46 172.65 81.98 176.07 85.76C179.67 89.54 181.56 93.59 181.74 97.91C182.1 102.05 182.28 108.08 182.28 116Z" fill="white"/>
</g>
<defs>
<linearGradient id="paint0_linear" x1="138" y1="21" x2="138" y2="255" gradientUnits="userSpaceOnUse">
<stop stop-color="#696969"/>
<stop offset="1" stop-color="#383838"/>
</linearGradient>
<linearGradient id="paint1_linear" x1="127.376" y1="147" x2="127.376" y2="255" gradientUnits="userSpaceOnUse">
<stop stop-color="white" stop-opacity="0.5"/>
<stop offset="0.473958" stop-color="white" stop-opacity="0.164062"/>
<stop offset="1" stop-color="white" stop-opacity="0"/>
</linearGradient>
<linearGradient id="paint2_linear" x1="143.865" y1="138" x2="143.865" y2="255" gradientUnits="userSpaceOnUse">
<stop stop-color="white" stop-opacity="0.5"/>
<stop offset="0.473958" stop-color="white" stop-opacity="0.164062"/>
<stop offset="1" stop-color="white" stop-opacity="0"/>
</linearGradient>
<clipPath id="clip0">
<rect width="275" height="276" fill="white"/>
</clipPath>
</defs>
</svg>
