<svg width="275" height="275" viewBox="0 0 275 275" fill="none" xmlns="http://www.w3.org/2000/svg">
<path d="M137 254.152C201.617 254.152 254 201.959 254 137.576C254 73.1927 201.617 21 137 21C72.3827 21 20 73.1927 20 137.576C20 201.959 72.3827 254.152 137 254.152Z" fill="url(#paint0_linear)"/>
<path d="M104.062 77V93.6875H120.75V77H104.062ZM154.125 77V93.6875H170.812V77H154.125ZM79.0312 85.3438V102.031H95.7188V85.3438H79.0312ZM179.156 85.3438V102.031H195.844V85.3438H179.156ZM54 93.6875V110.375H70.6875V93.6875H54ZM129.094 93.6875V110.375H145.781V93.6875H129.094ZM204.188 93.6875V110.375H220.875V93.6875H204.188ZM104.062 102.031V118.719H120.75V102.031H104.062ZM154.125 102.031V118.719H170.812V102.031H154.125ZM79.0312 110.375V127.062H95.7188V110.375H79.0312ZM179.156 110.375V127.062H195.844V110.375H179.156ZM54 118.719V135.406H70.6875V118.719H54ZM129.094 118.719V135.406H145.781V118.719H129.094ZM204.188 118.719V135.406H220.875V118.719H204.188ZM104.062 127.062V143.75H120.75V127.062H104.062ZM154.125 127.062V143.75H170.812V127.062H154.125ZM79.0312 135.406V152.094H95.7188V135.406H79.0312ZM179.156 135.406V152.094H195.844V135.406H179.156ZM54 143.75V160.438H70.6875V143.75H54ZM129.094 143.75V160.438H145.781V143.75H129.094ZM204.188 143.75V160.438H220.875V143.75H204.188ZM104.062 152.094V168.781H120.75V152.094H104.062ZM154.125 152.094V168.781H170.812V152.094H154.125ZM79.0312 160.438V177.125H95.7188V160.438H79.0312ZM179.156 160.438V177.125H195.844V160.438H179.156ZM129.094 168.781V185.469H145.781V168.781H129.094ZM104.062 177.125V193.812H120.75V177.125H104.062ZM154.125 177.125V193.812H170.812V177.125H154.125ZM129.094 193.812V210.5H145.781V193.812H129.094Z" fill="#FCE4EC"/>
<defs>
<linearGradient id="paint0_linear" x1="137" y1="21" x2="137" y2="254.152" gradientUnits="userSpaceOnUse">
<stop stop-color="#F06292"/>
<stop offset="1" stop-color="#D0366A"/>
</linearGradient>
</defs>
</svg>
