<svg width="275" height="275" viewBox="0 0 275 275" fill="none" xmlns="http://www.w3.org/2000/svg">
<path d="M138 255C202.617 255 255 202.617 255 138C255 73.3825 202.617 21 138 21C73.3827 21 21 73.3825 21 138C21 202.617 73.3827 255 138 255Z" fill="url(#paint0_linear)"/>
<path d="M114.663 142.56C115.356 130.188 121.403 119.288 130.526 111.562C139.473 103.973 151.515 99.334 164.654 99.334C177.781 99.334 189.823 103.973 198.777 111.562C207.893 119.288 213.94 130.188 214.639 142.547C215.331 155.259 210.231 167.068 201.284 175.822C192.161 184.726 179.185 190.313 164.654 190.313C150.124 190.313 137.122 184.726 128.005 175.822C119.052 167.068 113.965 155.259 114.663 142.56Z" fill="white"/>
<path d="M140.244 143.721C140.582 137.68 143.534 132.358 147.989 128.586C152.357 124.88 158.237 122.615 164.652 122.615C171.061 122.615 176.941 124.88 181.313 128.586C185.764 132.358 188.717 137.68 189.058 143.714C189.396 149.921 186.906 155.687 182.537 159.961C178.083 164.309 171.747 167.037 164.652 167.037C157.558 167.037 151.209 164.309 146.758 159.961C142.386 155.687 139.902 149.921 140.244 143.721Z" fill="#265787"/>
<path d="M101.372 155.927C101.413 158.29 102.165 162.884 103.294 166.471C105.667 174.065 109.691 181.089 115.29 187.28C121.036 193.643 128.111 198.754 136.284 202.383C144.874 206.194 154.181 208.136 163.849 208.12C173.501 208.108 182.809 206.127 191.399 202.287C199.571 198.623 206.64 193.49 212.377 187.123C217.973 180.907 221.99 173.87 224.369 166.277C225.565 162.44 226.321 158.546 226.623 154.639C226.92 150.79 226.796 146.934 226.25 143.082C225.185 135.575 222.593 128.531 218.601 122.11C214.95 116.21 210.244 111.045 204.648 106.697L204.66 106.688L148.187 63.2464C148.136 63.2081 148.094 63.1666 148.04 63.1315C144.335 60.2821 138.104 60.2917 134.029 63.1475C129.91 66.0352 129.438 70.8109 133.105 73.8232L133.089 73.8392L156.643 93.0281L84.8513 93.1049C84.8162 93.1049 84.7812 93.1049 84.7557 93.1049C78.8217 93.1112 73.1172 97.0116 71.9885 101.941C70.8278 106.962 74.8582 111.128 81.0282 111.15L81.0186 111.173L117.407 111.102L52.4741 161.034C52.3912 161.095 52.3019 161.159 52.2254 161.22C46.1001 165.919 44.12 173.732 47.9782 178.677C51.8938 183.705 60.2193 183.715 66.4084 178.706L101.847 149.65C101.847 149.65 101.33 153.572 101.372 155.927ZM192.435 169.062C185.133 176.515 174.91 180.741 163.849 180.763C152.772 180.783 142.549 176.595 135.247 169.155C131.679 165.529 129.058 161.357 127.442 156.914C125.857 152.547 125.241 147.912 125.65 143.235C126.035 138.664 127.394 134.303 129.562 130.358C131.692 126.48 134.626 122.976 138.248 120.012C145.346 114.217 154.382 111.08 163.833 111.067C173.294 111.054 182.324 114.163 189.428 119.938C193.044 122.89 195.975 126.381 198.104 130.253C200.282 134.195 201.631 138.539 202.033 143.123C202.435 147.794 201.819 152.422 200.234 156.792C198.615 161.249 196.003 165.42 192.435 169.062Z" fill="#E87D0D"/>
<defs>
<linearGradient id="paint0_linear" x1="138" y1="21" x2="138" y2="255" gradientUnits="userSpaceOnUse">
<stop stop-color="white"/>
<stop offset="1" stop-color="#EDEDED"/>
</linearGradient>
</defs>
</svg>
