<svg width="64" height="64" viewBox="0 0 64 64" fill="none" xmlns="http://www.w3.org/2000/svg">
<path d="M32 60C47.464 60 60 47.4639 60 31.9999C60 16.536 47.464 4 32 4C16.536 4 4 16.536 4 31.9999C4 47.4639 16.536 60 32 60Z" fill="white"/>
<path d="M26.6852 33.178C26.8463 30.2988 28.2537 27.7621 30.3769 25.9639C32.4591 24.1977 35.2616 23.1182 38.3196 23.1182C41.3744 23.1182 44.177 24.1977 46.2607 25.9639C48.3824 27.7621 49.7897 30.2987 49.9523 33.175C50.1134 36.1334 48.9265 38.8817 46.8443 40.9189C44.7211 42.9912 41.7012 44.2915 38.3196 44.2915C34.9379 44.2915 31.9119 42.9912 29.7903 40.9189C27.7066 38.8817 26.5226 36.1334 26.6852 33.178V33.178Z" fill="white"/>
<path d="M32.6386 33.448C32.7172 32.0422 33.4044 30.8036 34.4411 29.9256C35.4577 29.0632 36.8261 28.5361 38.3192 28.5361C39.8108 28.5361 41.1792 29.0632 42.1965 29.9256C43.2325 30.8036 43.9196 32.0421 43.999 33.4465C44.0777 34.891 43.4981 36.2329 42.4815 37.2276C41.4448 38.2394 39.9703 38.8743 38.3192 38.8743C36.6681 38.8743 35.1906 38.2394 34.1547 37.2276C33.1373 36.2329 32.5592 34.891 32.6386 33.448V33.448Z" fill="#265787"/>
<path d="M23.592 36.2883C23.6017 36.8384 23.7768 37.9075 24.0395 38.7424C24.5916 40.5095 25.5281 42.1443 26.8312 43.5851C28.1684 45.066 29.8151 46.2555 31.717 47.1C33.7162 47.9869 35.8823 48.439 38.1323 48.4352C40.3786 48.4323 42.5447 47.9713 44.5438 47.0777C46.4458 46.225 48.091 45.0303 49.426 43.5487C50.7283 42.1019 51.6633 40.4642 52.2169 38.697C52.4952 37.8042 52.6711 36.8979 52.7416 35.9887C52.8106 35.0929 52.7816 34.1955 52.6547 33.299C52.4069 31.5519 51.8036 29.9126 50.8745 28.4183C50.0248 27.0452 48.9295 25.8431 47.6272 24.8313L47.6301 24.829L34.4872 14.7191C34.4753 14.7102 34.4657 14.7005 34.4531 14.6923C33.5908 14.0292 32.1408 14.0314 31.1924 14.6961C30.2336 15.3681 30.1238 16.4795 30.9772 17.1806L30.9735 17.1843L36.4552 21.6501L19.7473 21.668C19.7392 21.668 19.731 21.668 19.7251 21.668C18.3441 21.6695 17.0165 22.5772 16.7538 23.7243C16.4837 24.893 17.4217 25.8624 18.8576 25.8676L18.8554 25.8728L27.3239 25.8565L12.2123 37.477C12.193 37.4912 12.1722 37.506 12.1544 37.5202C10.7289 38.6138 10.268 40.4322 11.1659 41.583C12.0772 42.7532 14.0148 42.7554 15.4552 41.5897L23.7026 34.8274C23.7026 34.8274 23.5824 35.7404 23.592 36.2883V36.2883ZM44.785 39.3453C43.0856 41.0797 40.7066 42.0633 38.1323 42.0685C35.5543 42.073 33.1752 41.0983 31.4759 39.3669C30.6455 38.5231 30.0355 37.5521 29.6592 36.518C29.2904 35.5018 29.1472 34.423 29.2422 33.3346C29.332 32.2708 29.6481 31.256 30.1527 30.3379C30.6484 29.4353 31.3312 28.6198 32.1742 27.9299C33.826 26.5813 35.9291 25.8512 38.1286 25.8483C40.3303 25.8453 42.4319 26.5687 44.0852 27.9128C44.9267 28.5997 45.6087 29.4123 46.1044 30.3133C46.6113 31.2307 46.9252 32.2418 47.0187 33.3086C47.1122 34.3955 46.9689 35.4728 46.6001 36.4898C46.2232 37.5269 45.6154 38.4978 44.785 39.3453V39.3453Z" fill="#E87D0D"/>
</svg>
