<svg width="275" height="275" viewBox="0 0 275 275" fill="none" xmlns="http://www.w3.org/2000/svg">
<path d="M138 255C202.617 255 255 202.617 255 138C255 73.3825 202.617 21 138 21C73.3827 21 21 73.3825 21 138C21 202.617 73.3827 255 138 255Z" fill="url(#paint0_linear)"/>
<path d="M137.498 65.0043C133.448 65.0085 129.407 65.3519 125.415 66.0309V167.712C125.415 171.059 122.72 173.753 119.373 173.753H113.332C109.985 173.753 107.291 171.059 107.291 167.712V71.6915C94.6869 77.4686 84.0041 86.7389 76.5084 98.4028C69.0128 110.067 65.0187 123.635 65 137.5C65 156.728 72.6385 175.169 86.2349 188.765C99.8313 202.362 118.272 210 137.5 210C156.728 210 175.169 202.362 188.765 188.765C202.362 175.169 210 156.728 210 137.5C210 118.272 202.362 99.831 188.765 86.2347C175.169 72.6383 156.728 65 137.5 65L137.498 65.0043ZM134.503 101.249C135.007 101.254 135.502 101.396 135.942 101.662L190.316 134.619C190.786 134.905 191.178 135.322 191.451 135.828C191.723 136.335 191.867 136.911 191.867 137.498C191.867 138.085 191.723 138.662 191.451 139.168C191.178 139.674 190.786 140.091 190.316 140.377L135.942 173.334C135.483 173.611 134.965 173.753 134.44 173.746C133.914 173.738 133.4 173.581 132.947 173.291C132.495 173 132.119 172.585 131.858 172.088C131.597 171.591 131.459 171.028 131.459 170.455V104.54C131.459 104.106 131.538 103.676 131.692 103.274C131.845 102.873 132.07 102.509 132.353 102.203C132.636 101.897 132.971 101.655 133.34 101.492C133.709 101.328 134.104 101.245 134.503 101.248" fill="white"/>
<defs>
<linearGradient id="paint0_linear" x1="138" y1="21" x2="138" y2="255" gradientUnits="userSpaceOnUse">
<stop stop-color="#DD5563"/>
<stop offset="1" stop-color="#BC0F4A"/>
</linearGradient>
</defs>
</svg>
