<svg width="64" height="64" viewBox="0 0 64 64" fill="none" xmlns="http://www.w3.org/2000/svg">
<path d="M32 59C46.9117 59 59 46.9117 59 32C59 17.0883 46.9117 5 32 5C17.0883 5 5 17.0883 5 32C5 46.9117 17.0883 59 32 59Z" fill="url(#paint0_linear)"/>
<path d="M26 12.501C25.25 12.501 22.625 15.501 22.25 15.501H20.375C19.625 15.501 17 18.126 17 18.876V21.126C17 21.501 14.0165 24.126 14 24.876C13.9835 25.626 19.25 43.251 20 44.001C20.75 44.751 29 51.501 31.25 51.501H32.75C35 51.501 43.25 44.751 44 44.001C44.75 43.251 50.015 25.626 50 24.876C49.9835 24.1305 47 21.501 47 21.126V18.876C47 18.126 44.375 15.501 43.625 15.501H41.75C41.375 15.501 38.75 12.501 38 12.501H26Z" fill="#FD4932"/>
<path d="M32 17.7393C31.253 17.7393 30.509 17.9958 29.75 18.5013C27.5 20.0013 24.5 17.7513 23.75 17.7513C23 17.7513 18.5 23.2158 18.5 25.2513C18.5 26.7513 24.125 30.2013 24.125 31.2513C24.125 32.0013 23 32.3613 23 33.9528C23 35.0013 24.5 36.8763 26 36.8763C27.5 36.8763 31.253 33.9318 31.25 33.2028V32.7513C31.25 31.8513 27.875 30.7173 27.875 29.0013C27.875 27.5013 29 26.9463 29 25.2513C29 23.7933 26 23.3763 23.75 23.0013C23 23.0013 26 20.5338 30.125 23.2008C31.169 23.8758 29 26.5443 29.375 29.0013C29.9375 29.5263 30.9695 29.7888 32 29.7888C33.032 29.7888 34.0625 29.5263 34.625 29.0013C35 26.5443 32.831 23.8758 33.875 23.2008C38 20.5338 41 23.0013 40.25 23.0013C38 23.3763 35 23.7933 35 25.2513C35 26.9463 36.125 27.5013 36.125 29.0013C36.125 30.7173 32.75 31.8513 32.75 32.7513V33.2028C32.747 33.9318 36.5 36.8763 38 36.8763C39.5 36.8763 41 35.0013 41 33.9528C41 32.3628 39.875 32.0013 39.875 31.2513C39.875 30.2013 45.5 26.7513 45.5 25.2513C45.5 23.2158 41 17.7513 40.25 17.7513C39.5 17.7513 36.5 20.0013 34.25 18.5013C33.491 17.9958 32.75 17.7393 32 17.7393ZM32 35.6013C30.5 35.6013 27.125 37.9263 27.125 38.3763C27.125 38.8263 30.5 42.5013 32 42.5013C33.5 42.5013 36.875 38.8263 36.875 38.3763C36.875 37.9263 33.5 35.6013 32 35.6013Z" fill="#F9F9F9"/>
<defs>
<linearGradient id="paint0_linear" x1="32" y1="5" x2="32" y2="59" gradientUnits="userSpaceOnUse">
<stop stop-color="#4B4B4B"/>
<stop offset="1" stop-color="#383838"/>
</linearGradient>
</defs>
</svg>
