<svg width="64" height="64" viewBox="0 0 64 64" fill="none" xmlns="http://www.w3.org/2000/svg">
<rect x="4" y="4" width="56" height="56" rx="5" fill="url(#paint0_linear)"/>
<path d="M4 8.99999C4 6.23857 6.23858 4 9 4H32.1315V32.6573H4V8.99999Z" fill="url(#paint1_linear)"/>
<path d="M4 32.6572H32.1315V59.9999H9C6.23857 59.9999 4 57.7614 4 54.9999V32.6572Z" fill="url(#paint2_linear)"/>
<path d="M40.168 30.312C39.64 30.312 39.208 30.144 38.872 29.808C38.536 29.448 38.368 29.004 38.368 28.476C38.368 27.948 38.536 27.516 38.872 27.18C39.208 26.82 39.64 26.64 40.168 26.64H52.192C52.696 26.64 53.128 26.82 53.488 27.18C53.848 27.54 54.028 27.972 54.028 28.476C54.028 29.004 53.848 29.448 53.488 29.808C53.128 30.144 52.696 30.312 52.192 30.312H40.168ZM40.168 38.34C39.64 38.34 39.208 38.172 38.872 37.836C38.536 37.476 38.368 37.032 38.368 36.504C38.368 35.952 38.536 35.508 38.872 35.172C39.208 34.836 39.64 34.668 40.168 34.668H52.192C52.696 34.668 53.128 34.848 53.488 35.208C53.848 35.568 54.028 36 54.028 36.504C54.028 37.008 53.848 37.44 53.488 37.8C53.128 38.16 52.696 38.34 52.192 38.34H40.168Z" fill="white"/>
<path d="M18.864 26.672C18.336 26.672 17.892 26.504 17.532 26.168C17.196 25.808 17.028 25.364 17.028 24.836V20.012H12.204C11.676 20.012 11.232 19.832 10.872 19.472C10.536 19.112 10.368 18.668 10.368 18.14C10.368 17.612 10.536 17.18 10.872 16.844C11.232 16.484 11.676 16.304 12.204 16.304H17.028V11.48C17.028 10.976 17.208 10.544 17.568 10.184C17.952 9.824 18.384 9.644 18.864 9.644C19.416 9.644 19.86 9.824 20.196 10.184C20.532 10.52 20.7 10.952 20.7 11.48V16.304H25.524C26.028 16.304 26.46 16.484 26.82 16.844C27.204 17.204 27.396 17.648 27.396 18.176C27.396 18.68 27.204 19.112 26.82 19.472C26.46 19.832 26.028 20.012 25.524 20.012H20.7V24.836C20.7 25.364 20.532 25.808 20.196 26.168C19.86 26.504 19.416 26.672 18.864 26.672Z" fill="white"/>
<path d="M14.132 47.972C13.604 47.972 13.16 47.804 12.8 47.468C12.464 47.132 12.296 46.7 12.296 46.172C12.296 45.62 12.464 45.176 12.8 44.84C13.16 44.504 13.604 44.336 14.132 44.336H22.16C22.688 44.336 23.12 44.504 23.456 44.84C23.792 45.176 23.96 45.62 23.96 46.172C23.96 46.7 23.792 47.132 23.456 47.468C23.12 47.804 22.688 47.972 22.16 47.972H14.132Z" fill="white"/>
<defs>
<linearGradient id="paint0_linear" x1="32" y1="4" x2="32" y2="60" gradientUnits="userSpaceOnUse">
<stop stop-color="#F79D4B"/>
<stop offset="1" stop-color="#C64C3B"/>
</linearGradient>
<linearGradient id="paint1_linear" x1="18.0657" y1="4" x2="18.0657" y2="32.6573" gradientUnits="userSpaceOnUse">
<stop stop-color="#D8D8D8"/>
<stop offset="1" stop-color="#949090"/>
</linearGradient>
<linearGradient id="paint2_linear" x1="18.0657" y1="32.6572" x2="18.0657" y2="59.9999" gradientUnits="userSpaceOnUse">
<stop stop-color="#676767"/>
<stop offset="1" stop-color="#4B4B4B"/>
</linearGradient>
</defs>
</svg>
