<svg width="275" height="276" viewBox="0 0 275 276" fill="none" xmlns="http://www.w3.org/2000/svg">
<g clip-path="url(#clip0)">
<path d="M55.3779 220.134C66.1959 230.952 79.0388 239.533 93.1732 245.388C107.308 251.243 122.457 254.256 137.756 254.256L137.756 137.756L55.3779 220.134Z" fill="#DE3046"/>
<path d="M220.134 55.3779C209.316 44.5599 196.473 35.9786 182.338 30.1239C168.204 24.2692 153.055 21.2559 137.756 21.2559L137.756 137.756L220.134 55.3779Z" fill="#43BC76"/>
<path d="M220.134 220.134C230.952 209.316 239.533 196.473 245.388 182.338C251.243 168.204 254.256 153.055 254.256 137.756L137.756 137.756L220.134 220.134Z" fill="#FFDF55"/>
<path d="M55.3779 55.3779C44.5599 66.1959 35.9786 79.0388 30.1239 93.1732C24.2692 107.308 21.2558 122.457 21.2558 137.756L137.756 137.756L55.3779 55.3779Z" fill="#3B62CA"/>
<path d="M137.756 254.256C153.055 254.256 168.204 251.243 182.338 245.388C196.473 239.533 209.316 230.952 220.134 220.134L137.756 137.756L137.756 254.256Z" fill="#F06D24"/>
<path d="M137.756 21.2559C122.457 21.2559 107.308 24.2692 93.1732 30.1239C79.0388 35.9786 66.196 44.5599 55.3779 55.3779L137.756 137.756L137.756 21.2559Z" fill="#31A2BC"/>
<path d="M254.256 137.756C254.256 122.457 251.243 107.308 245.388 93.1732C239.533 79.0388 230.952 66.1959 220.134 55.3779L137.756 137.756L254.256 137.756Z" fill="#85C541"/>
<path d="M21.2559 137.756C21.2559 153.055 24.2692 168.204 30.1239 182.338C35.9786 196.473 44.5599 209.316 55.3779 220.134L137.756 137.756L21.2559 137.756Z" fill="#9441BC"/>
<path d="M108.552 82.6939C125.326 53.6401 162.477 43.6855 191.531 60.4597C220.585 77.234 230.539 114.385 213.765 143.439C194.179 177.364 113.912 194.899 113.912 194.899C113.912 194.899 88.9653 116.619 108.552 82.6939Z" fill="#545454" fill-opacity="0.75"/>
<path d="M106.246 73.6065C123.02 44.5527 160.171 34.5981 189.225 51.3723C218.279 68.1466 228.234 105.298 211.459 134.351C191.873 168.276 111.607 185.812 111.607 185.812C111.607 185.812 86.6596 107.531 106.246 73.6065Z" fill="white"/>
<circle cx="159.605" cy="100.663" r="38" transform="rotate(15 159.605 100.663)" fill="#DE3046"/>
</g>
<defs>
<clipPath id="clip0">
<rect width="275" height="276" fill="white"/>
</clipPath>
</defs>
</svg>
