<svg width="275" height="275" viewBox="0 0 275 275" fill="none" xmlns="http://www.w3.org/2000/svg">
<path d="M138 254.076C202.617 254.076 255 201.883 255 137.5C255 73.1165 202.617 20.9238 138 20.9238C73.3827 20.9238 21 73.1165 21 137.5C21 201.883 73.3827 254.076 138 254.076Z" fill="url(#paint0_linear)"/>
<path fill-rule="evenodd" clip-rule="evenodd" d="M100.517 142.945C90.231 150.198 82.9576 160.708 78.8075 173.413C76.9054 179.236 76.826 187.294 77.1404 193.37C77.3975 198.339 81.6157 202 86.5915 202L190.408 202C195.384 202 199.602 198.339 199.86 193.37C200.174 187.294 200.095 179.236 198.193 173.413C194.092 160.86 186.943 150.45 176.851 143.208C167.433 153.526 153.874 160 138.803 160C123.605 160 109.944 153.416 100.517 142.945Z" fill="white"/>
<ellipse cx="139" cy="108.5" rx="35" ry="35.5" fill="white"/>
<defs>
<linearGradient id="paint0_linear" x1="138" y1="20.9238" x2="138" y2="254.076" gradientUnits="userSpaceOnUse">
<stop stop-color="#40BAFF"/>
<stop offset="1" stop-color="#2190CF"/>
</linearGradient>
</defs>
</svg>
