<svg width="275" height="275" viewBox="0 0 275 275" fill="none" xmlns="http://www.w3.org/2000/svg">
<path d="M138 254.076C202.617 254.076 255 201.883 255 137.5C255 73.1165 202.617 20.9238 138 20.9238C73.3827 20.9238 21 73.1165 21 137.5C21 201.883 73.3827 254.076 138 254.076Z" fill="url(#paint0_linear)"/>
<path d="M34.5466 192H63.0285C63.1559 186.173 63.7294 180.116 65.1893 175.242C66.9425 169.39 69.1558 163.891 71.8235 158.803C70.1579 159.01 68.4609 159.116 66.7388 159.116C54.7531 159.116 43.98 153.962 36.546 145.764C31.0218 149.631 26.5996 154.68 23.3066 160.65C25.5517 171.752 29.3799 182.284 34.5466 192Z" fill="white" fill-opacity="0.6"/>
<path d="M252.693 160.65C250.448 171.752 246.62 182.284 241.453 192H211.971C211.844 186.173 211.27 180.116 209.81 175.242C208.031 169.302 205.777 163.724 203.055 158.573C205.229 158.93 207.462 159.116 209.739 159.116C221.624 159.116 232.317 154.048 239.744 145.969C245.133 149.809 249.458 154.785 252.693 160.65Z" fill="white" fill-opacity="0.6"/>
<path d="M237.496 118.795C237.496 134.145 225.138 146.589 209.894 146.589C194.65 146.589 182.292 134.145 182.292 118.795C182.292 103.444 194.65 91 209.894 91C225.138 91 237.496 103.444 237.496 118.795Z" fill="white" fill-opacity="0.6"/>
<path d="M94.4957 118.795C94.4957 134.145 82.138 146.589 66.8941 146.589C51.6501 146.589 39.2924 134.145 39.2924 118.795C39.2924 103.444 51.6501 91 66.8941 91C82.138 91 94.4957 103.444 94.4957 118.795Z" fill="white" fill-opacity="0.6"/>
<path d="M100.517 142.945C90.231 150.198 82.9576 160.708 78.8075 173.413C76.9054 179.236 76.826 187.294 77.1404 193.37C77.3975 198.339 81.6157 202 86.5915 202H190.408C195.384 202 199.603 198.339 199.86 193.37C200.174 187.294 200.095 179.236 198.193 173.413C194.092 160.86 186.943 150.45 176.851 143.208C167.433 153.526 153.874 160 138.803 160C123.605 160 109.944 153.416 100.517 142.945Z" fill="white"/>
<path d="M174 108.5C174 128.106 158.33 144 139 144C119.67 144 104 128.106 104 108.5C104 88.8939 119.67 73 139 73C158.33 73 174 88.8939 174 108.5Z" fill="white"/>
<defs>
<linearGradient id="paint0_linear" x1="138" y1="20.9238" x2="138" y2="254.076" gradientUnits="userSpaceOnUse">
<stop stop-color="#40BAFF"/>
<stop offset="1" stop-color="#2190CF"/>
</linearGradient>
</defs>
</svg>
