<svg width="64" height="64" viewBox="0 0 64 64" fill="none" xmlns="http://www.w3.org/2000/svg">
<path d="M32.5 60C47.6878 60 60 47.6878 60 32.5C60 17.3122 47.6878 5 32.5 5C17.3122 5 5 17.3122 5 32.5C5 47.6878 17.3122 60 32.5 60Z" fill="url(#paint0_linear)"/>
<path fill-rule="evenodd" clip-rule="evenodd" d="M41.3065 45C41.3065 45 40.1661 43.6691 39.2158 42.4929C43.3656 41.3477 44.9495 38.8096 44.9495 38.8096C43.6507 39.6453 42.4152 40.2334 41.3065 40.6358C39.7226 41.2858 38.2021 41.7191 36.7132 41.9667C33.6721 42.5238 30.8844 42.3691 28.5086 41.9357C26.7029 41.5953 25.1507 41.1 23.8519 40.6048C23.1233 40.3262 22.3313 39.9858 21.5394 39.5524C21.4919 39.5215 21.4444 39.4983 21.3968 39.4751C21.3493 39.4518 21.3018 39.4286 21.2543 39.3977C21.1909 39.3667 21.1592 39.3358 21.1276 39.3048C20.5574 38.9953 20.2406 38.7786 20.2406 38.7786C20.2406 38.7786 21.7611 41.2548 25.7842 42.431C24.8339 43.6072 23.6618 45 23.6618 45C16.661 44.7833 14 40.2953 14 40.2953C14 30.3287 18.5616 22.2502 18.5616 22.2502C23.1233 18.9074 27.4632 19.0003 27.4632 19.0003L27.78 19.3717C22.0779 20.9812 19.4486 23.4264 19.4486 23.4264C19.4486 23.4264 20.1455 23.055 21.3176 22.5288C24.7072 21.074 27.3998 20.6717 28.5086 20.5788C28.5327 20.5749 28.5563 20.571 28.5796 20.5671C28.7394 20.5405 28.8812 20.5169 29.0471 20.5169C30.9795 20.2693 33.1652 20.2074 35.4461 20.455C38.4555 20.7955 41.6866 21.6621 44.9812 23.4264C44.9812 23.4264 42.4786 21.105 37.0933 19.4955L37.5368 19.0003C37.5368 19.0003 41.8767 18.9074 46.4384 22.2502C46.4384 22.2502 51 30.3287 51 40.2953C51 40.2953 48.3074 44.7833 41.3065 45ZM23.345 33.9811C23.345 32.093 24.7705 30.5454 26.5762 30.5454C28.3818 30.5454 29.839 32.093 29.8074 33.9811C29.8074 35.8691 28.3818 37.4167 26.5762 37.4167C24.8022 37.4167 23.345 35.8691 23.345 33.9811ZM34.9075 33.9811C34.9075 32.093 36.333 30.5454 38.1387 30.5454C39.9443 30.5454 41.3699 32.093 41.3699 33.9811C41.3699 35.8691 39.9443 37.4167 38.1387 37.4167C36.3647 37.4167 34.9075 35.8691 34.9075 33.9811Z" fill="white"/>
<path fill-rule="evenodd" clip-rule="evenodd" d="M39.2158 42.4929C40.1661 43.6691 41.3065 45 41.3065 45C48.3074 44.7833 51 40.2953 51 40.2953C51 30.3287 46.4384 22.2502 46.4384 22.2502C41.8767 18.9074 37.5368 19.0003 37.5368 19.0003L37.0933 19.4955C42.4786 21.105 44.9812 23.4264 44.9812 23.4264C41.6866 21.6621 38.4555 20.7955 35.4461 20.455C33.1652 20.2074 30.9795 20.2693 29.0471 20.5169C28.8812 20.5169 28.7394 20.5405 28.5796 20.5671C28.5563 20.571 28.5327 20.5749 28.5086 20.5788C27.3998 20.6717 24.7072 21.074 21.3176 22.5288C20.1455 23.055 19.4486 23.4264 19.4486 23.4264C19.4486 23.4264 22.0779 20.9812 27.78 19.3717L27.4632 19.0003C27.4632 19.0003 23.1233 18.9074 18.5616 22.2502C18.5616 22.2502 14 30.3287 14 40.2953C14 40.2953 16.661 44.7833 23.6618 45C23.6618 45 24.8339 43.6072 25.7842 42.431C21.7611 41.2548 20.2406 38.7786 20.2406 38.7786C20.2406 38.7786 20.5574 38.9953 21.1276 39.3048C21.1592 39.3358 21.1909 39.3667 21.2543 39.3977C21.3018 39.4286 21.3493 39.4518 21.3968 39.4751C21.4444 39.4983 21.4919 39.5215 21.5394 39.5524C22.3313 39.9858 23.1233 40.3262 23.8519 40.6048C25.1507 41.1 26.7029 41.5953 28.5086 41.9357C30.8844 42.3691 33.6721 42.5238 36.7132 41.9667C38.2021 41.7191 39.7226 41.2858 41.3065 40.6358C42.4152 40.2334 43.6507 39.6453 44.9495 38.8096C44.9495 38.8096 43.3656 41.3477 39.2158 42.4929ZM38.1387 30.5454C36.333 30.5454 34.9075 32.093 34.9075 33.9811C34.9075 35.8691 36.3647 37.4167 38.1387 37.4167C39.9443 37.4167 41.3699 35.8691 41.3699 33.9811C41.3699 32.093 39.9443 30.5454 38.1387 30.5454ZM23.345 33.9811C23.345 32.093 24.7705 30.5454 26.5762 30.5454C28.3818 30.5454 29.839 32.093 29.8074 33.9811C29.8074 35.8691 28.3818 37.4167 26.5762 37.4167C24.8022 37.4167 23.345 35.8691 23.345 33.9811Z" fill="white"/>
<defs>
<linearGradient id="paint0_linear" x1="32.5" y1="5" x2="32.5" y2="60" gradientUnits="userSpaceOnUse">
<stop stop-color="#7289DA"/>
<stop offset="1" stop-color="#445AA9"/>
</linearGradient>
</defs>
</svg>
