<svg width="64" height="64" viewBox="0 0 64 64" fill="none" xmlns="http://www.w3.org/2000/svg">
<path d="M32 60C47.464 60 60 47.464 60 32C60 16.536 47.464 4 32 4C16.536 4 4 16.536 4 32C4 47.464 16.536 60 32 60Z" fill="url(#paint0_linear)"/>
<path fill-rule="evenodd" clip-rule="evenodd" d="M41.0445 45C41.0445 45 39.8733 43.6691 38.8973 42.4929C43.1592 41.3477 44.786 38.8096 44.786 38.8096C43.4521 39.6453 42.1832 40.2334 41.0445 40.6358C39.4178 41.2858 37.8562 41.7191 36.3271 41.9667C33.2038 42.5238 30.3408 42.3691 27.9007 41.9357C26.0462 41.5953 24.4521 41.1 23.1182 40.6048C22.3699 40.3262 21.5565 39.9858 20.7432 39.5524C20.6943 39.5215 20.6455 39.4983 20.5967 39.4751C20.5479 39.4518 20.4991 39.4286 20.4503 39.3977C20.3853 39.3667 20.3527 39.3358 20.3202 39.3048C19.7346 38.9953 19.4092 38.7786 19.4092 38.7786C19.4092 38.7786 20.9709 41.2548 25.1027 42.431C24.1267 43.6072 22.9229 45 22.9229 45C15.7329 44.7833 13 40.2953 13 40.2953C13 30.3287 17.6849 22.2502 17.6849 22.2502C22.3699 18.9074 26.8271 19.0003 26.8271 19.0003L27.1524 19.3717C21.2962 20.9812 18.5959 23.4264 18.5959 23.4264C18.5959 23.4264 19.3116 23.055 20.5154 22.5288C23.9966 21.074 26.762 20.6717 27.9007 20.5788C27.9255 20.5749 27.9497 20.571 27.9736 20.5671C28.1377 20.5405 28.2834 20.5169 28.4538 20.5169C30.4384 20.2693 32.6832 20.2074 35.0257 20.455C38.1164 20.7955 41.4349 21.6621 44.8185 23.4264C44.8185 23.4264 42.2483 21.105 36.7175 19.4955L37.1729 19.0003C37.1729 19.0003 41.6301 18.9074 46.3151 22.2502C46.3151 22.2502 51 30.3287 51 40.2953C51 40.2953 48.2346 44.7833 41.0445 45ZM22.5976 33.9811C22.5976 32.093 24.0616 30.5454 25.9161 30.5454C27.7705 30.5454 29.2671 32.093 29.2346 33.9811C29.2346 35.8691 27.7705 37.4167 25.9161 37.4167C24.0942 37.4167 22.5976 35.8691 22.5976 33.9811ZM34.4726 33.9811C34.4726 32.093 35.9366 30.5454 37.7911 30.5454C39.6455 30.5454 41.1096 32.093 41.1096 33.9811C41.1096 35.8691 39.6455 37.4167 37.7911 37.4167C35.9692 37.4167 34.4726 35.8691 34.4726 33.9811Z" fill="white"/>
<path fill-rule="evenodd" clip-rule="evenodd" d="M38.8973 42.4929C39.8733 43.6691 41.0445 45 41.0445 45C48.2346 44.7833 51 40.2953 51 40.2953C51 30.3287 46.3151 22.2502 46.3151 22.2502C41.6301 18.9074 37.1729 19.0003 37.1729 19.0003L36.7175 19.4955C42.2483 21.105 44.8185 23.4264 44.8185 23.4264C41.4349 21.6621 38.1164 20.7955 35.0257 20.455C32.6832 20.2074 30.4384 20.2693 28.4538 20.5169C28.2834 20.5169 28.1377 20.5405 27.9736 20.5671C27.9497 20.571 27.9255 20.5749 27.9007 20.5788C26.762 20.6717 23.9966 21.074 20.5154 22.5288C19.3116 23.055 18.5959 23.4264 18.5959 23.4264C18.5959 23.4264 21.2962 20.9812 27.1524 19.3717L26.8271 19.0003C26.8271 19.0003 22.3699 18.9074 17.6849 22.2502C17.6849 22.2502 13 30.3287 13 40.2953C13 40.2953 15.7329 44.7833 22.9229 45C22.9229 45 24.1267 43.6072 25.1027 42.431C20.9709 41.2548 19.4092 38.7786 19.4092 38.7786C19.4092 38.7786 19.7346 38.9953 20.3202 39.3048C20.3527 39.3358 20.3853 39.3667 20.4503 39.3977C20.4991 39.4286 20.5479 39.4518 20.5967 39.4751C20.6455 39.4983 20.6943 39.5215 20.7432 39.5524C21.5565 39.9858 22.3699 40.3262 23.1182 40.6048C24.4521 41.1 26.0462 41.5953 27.9007 41.9357C30.3408 42.3691 33.2038 42.5238 36.3271 41.9667C37.8562 41.7191 39.4178 41.2858 41.0445 40.6358C42.1832 40.2334 43.4521 39.6453 44.786 38.8096C44.786 38.8096 43.1592 41.3477 38.8973 42.4929ZM37.7911 30.5454C35.9366 30.5454 34.4726 32.093 34.4726 33.9811C34.4726 35.8691 35.9692 37.4167 37.7911 37.4167C39.6455 37.4167 41.1096 35.8691 41.1096 33.9811C41.1096 32.093 39.6455 30.5454 37.7911 30.5454ZM22.5976 33.9811C22.5976 32.093 24.0616 30.5454 25.9161 30.5454C27.7705 30.5454 29.2671 32.093 29.2346 33.9811C29.2346 35.8691 27.7705 37.4167 25.9161 37.4167C24.0942 37.4167 22.5976 35.8691 22.5976 33.9811Z" fill="white"/>
<defs>
<linearGradient id="paint0_linear" x1="32" y1="4" x2="32" y2="60" gradientUnits="userSpaceOnUse">
<stop stop-color="#7289DA"/>
<stop offset="1" stop-color="#445AA9"/>
</linearGradient>
</defs>
</svg>
