<svg width="275" height="275" viewBox="0 0 275 275" fill="none" xmlns="http://www.w3.org/2000/svg">
<path d="M137.504 253.582C201.58 253.582 253.523 201.639 253.523 137.563C253.523 73.4871 201.58 21.5435 137.504 21.5435C73.4283 21.5435 21.4846 73.4871 21.4846 137.563C21.4846 201.639 73.4283 253.582 137.504 253.582Z" fill="url(#paint0_linear)"/>
<path d="M179.896 127.552C180.042 131.271 178.824 133.073 177.719 136.256L175.738 137.231C174.114 140.398 175.901 139.245 174.731 141.746C172.198 144.019 167.033 148.794 165.393 149.233C164.191 149.233 166.205 147.82 166.465 147.284C163.087 149.606 163.753 150.776 158.556 152.188L158.393 151.847C145.612 157.856 127.845 145.935 128.072 129.663C127.942 130.702 127.683 130.443 127.406 130.849C126.757 122.485 131.272 114.072 138.905 110.629C146.375 106.942 155.145 108.453 160.472 113.438C157.549 109.589 151.702 105.513 144.768 105.887C137.979 105.984 131.613 110.32 129.501 114.998C126.026 117.19 125.62 123.443 124.11 124.579C122.063 139.586 127.942 146.05 137.882 153.666C139.441 154.722 138.32 154.884 138.531 155.696C135.156 154.086 132.153 151.79 129.713 148.957C131.044 150.889 132.473 152.756 134.309 154.234C131.19 153.179 127.033 146.683 125.815 146.423C131.174 156.037 147.577 163.281 156.185 159.675C152.206 159.838 147.155 159.756 142.689 158.116C140.805 157.142 138.255 155.144 138.71 154.771C150.435 159.156 162.551 158.083 172.701 149.963C175.283 147.949 178.109 144.523 178.921 144.474C177.687 146.326 179.132 145.367 178.19 146.991C180.756 142.85 177.054 145.302 180.838 139.846L182.234 141.762C181.715 138.303 186.506 134.129 186.018 128.688C187.123 127.015 187.253 130.475 186.083 134.307C187.707 130.052 186.506 129.371 186.928 125.863C187.383 127.048 187.967 128.299 188.276 129.549C187.22 125.44 189.348 122.631 189.884 120.243C189.364 120.016 188.26 122.062 188 117.206C188.048 115.095 188.584 116.102 188.812 115.582C188.389 115.339 187.301 113.731 186.635 110.629C187.123 109.898 187.918 112.513 188.584 112.627C188.146 110.158 187.431 108.29 187.399 106.39C185.499 102.411 186.733 106.926 185.19 104.685C183.16 98.3672 186.863 103.223 187.123 100.349C190.176 104.798 191.93 111.684 192.742 114.543C192.108 111.092 191.162 107.705 189.916 104.425C190.858 104.815 188.422 97.2793 191.134 102.265C188.243 91.6114 178.726 81.6395 169.989 76.9622C171.045 77.9367 172.409 79.1711 171.922 79.366C167.569 76.7675 168.332 76.5728 167.699 75.4684C164.175 74.0393 163.931 75.5984 161.593 75.4684C154.918 71.928 153.635 72.3175 147.463 70.1088L147.756 71.4083C143.338 69.9304 142.608 71.9605 137.817 71.4083C137.524 71.181 139.359 70.5964 140.854 70.369C136.582 70.9374 136.777 69.5241 132.587 70.5147C133.627 69.7839 134.698 69.3129 135.819 68.6958C132.327 68.9069 127.488 70.726 128.982 69.0695C123.298 71.603 113.18 75.176 107.512 80.4866L107.333 79.3011C104.735 82.4193 95.9974 88.6231 95.3153 92.667L94.6007 92.8295C93.2527 95.1032 92.3758 97.7013 91.3039 100.056C89.5337 103.077 88.7054 101.226 88.9652 101.68C85.4898 108.745 83.7683 114.673 82.2742 119.545C83.3298 121.12 82.2742 129.11 82.6964 135.493C80.9425 167.048 104.832 197.678 130.947 204.743C134.78 206.123 140.464 206.058 145.303 206.204C139.603 204.58 138.856 205.327 133.286 203.394C129.274 201.511 128.413 199.334 125.555 196.882L126.692 198.863C121.105 196.898 123.444 196.427 118.896 194.998L120.098 193.423C118.312 193.293 115.324 190.386 114.512 188.762L112.53 188.843C110.159 185.92 108.892 183.808 108.974 182.184L108.34 183.321C107.626 182.071 99.6028 172.31 103.76 174.584C102.981 173.886 101.974 173.447 100.837 171.417L101.698 170.443C99.7002 167.877 98.0112 164.58 98.1249 163.459C99.213 164.921 99.9438 165.181 100.675 165.424C95.6401 152.887 95.3478 164.742 91.515 152.676L92.327 152.611C91.7099 151.669 91.3201 150.662 90.8329 149.655L91.1739 146.147C87.5361 141.941 90.167 128.266 90.6867 120.763C91.044 117.71 93.7237 114.461 95.7538 109.362L94.5195 109.151C96.8906 105.026 108.032 92.5857 113.196 93.2191C115.713 90.0684 112.709 93.2193 112.222 92.4073C117.711 86.7231 119.449 88.3959 123.151 87.3727C127.147 85.0016 119.725 88.2985 121.609 86.4633C128.527 84.6931 126.513 82.4519 135.527 81.5586C136.485 82.0946 133.318 82.3868 132.538 83.0851C138.288 80.2755 150.76 80.9087 158.848 84.6602C168.267 89.0451 178.824 102.038 179.23 114.251L179.717 114.381C179.473 119.236 180.448 124.84 178.743 130.004L179.896 127.568" fill="white"/>
<defs>
<linearGradient id="paint0_linear" x1="137.504" y1="21.5435" x2="137.504" y2="253.582" gradientUnits="userSpaceOnUse">
<stop stop-color="#F6476B"/>
<stop offset="1" stop-color="#9C0F42"/>
</linearGradient>
</defs>
</svg>
