<svg width="275" height="275" viewBox="0 0 275 275" fill="none" xmlns="http://www.w3.org/2000/svg">
<path d="M137.5 253.41C201.573 253.41 253.515 201.468 253.515 137.395C253.515 73.3211 201.573 21.3794 137.5 21.3794C73.4263 21.3794 21.4844 73.3211 21.4844 137.395C21.4844 201.468 73.4263 253.41 137.5 253.41Z" fill="url(#paint0_linear)"/>
<path d="M81 93.1054C79.8954 93.1054 79 94.0008 79 95.1054V127.553C79 129.115 80.7313 130.134 82.1437 129.467C89.8445 125.836 109.027 119.457 109.027 146.042C109.027 172.634 90.0037 165.096 82.2404 160.912C80.826 160.15 79 161.164 79 162.771V197C79 198.105 79.8954 199 81 199H115.889C117.348 199 118.356 197.472 117.876 196.094C115.183 188.366 110.352 167.895 134.738 167.895C159.665 167.895 154.53 188.299 151.677 196.056C151.168 197.44 152.178 199 153.654 199H188.477C189.581 199 190.477 198.105 190.477 197V162.293C190.477 160.79 192.086 159.775 193.481 160.334C200.809 163.27 219 168.315 219 146.042C219 125.634 204.428 127.084 193.414 131.759C192.045 132.341 190.477 131.367 190.477 129.88V95.1054C190.477 94.0008 189.581 93.1054 188.477 93.1054H153.003C151.447 93.1054 150.431 91.386 151.093 89.9782C154.806 82.0887 161.621 62 134.738 62C107.871 62 114.678 82.0904 118.386 89.9792C119.047 91.3869 118.032 93.1054 116.476 93.1054H81Z" fill="white"/>
<defs>
<linearGradient id="paint0_linear" x1="137.5" y1="21.3794" x2="137.5" y2="253.41" gradientUnits="userSpaceOnUse">
<stop stop-color="#A2CA4C"/>
<stop offset="1" stop-color="#55AC3F"/>
</linearGradient>
</defs>
</svg>
