<svg width="64" height="64" viewBox="0 0 64 64" fill="none" xmlns="http://www.w3.org/2000/svg">
<path d="M32 60C47.464 60 60 47.4639 60 31.9999C60 16.536 47.464 4 32 4C16.536 4 4 16.536 4 31.9999C4 47.4639 16.536 60 32 60Z" fill="url(#paint0_linear)"/>
<g filter="url(#filter0_dd)">
<path d="M38.0068 44.771C34.0937 43.9174 31.0776 40.4697 30.739 36.4632C30.6319 35.1969 30.669 35.0296 31.1075 34.7949C31.9427 34.3479 32.4254 34.8171 32.5924 36.2384C33.0125 39.8124 35.639 42.508 39.1724 42.9911C40.901 43.2275 41.4571 43.8912 40.6241 44.7241C40.2071 45.1411 39.7424 45.1495 38.0068 44.771Z" fill="white"/>
<path d="M31.7038 13.6224C28.0723 13.6058 24.9586 14.2798 22.1271 15.6975C21.1845 16.1694 21.0378 16.3349 21.0988 16.8444C21.2234 17.8843 21.7604 17.9852 23.3506 17.2716C26.307 15.9449 27.7454 15.662 31.4744 15.6579C35.7542 15.6544 37.3301 16.021 40.84 17.8384C41.443 18.1503 43.3522 19.624 44.0648 18.8325C44.7705 18.1268 44.3976 17.5428 42.5803 16.5095C38.9963 14.4719 35.8647 13.6421 31.7038 13.6224ZM31.593 17.8253C26.8016 17.8217 22.0132 19.7148 18.5017 23.5075C17.1433 24.9747 15.5591 27.3795 15.5591 27.9741C15.5591 28.6674 15.8449 29.0499 16.3633 29.0499C16.7696 29.0499 17.183 28.6115 18.1667 27.133C20.367 23.8262 23.2194 21.6326 26.8942 20.4199C29.7442 19.4897 33.0817 19.5973 36.2889 20.4199C40.43 21.7811 43.9825 24.8134 45.9287 28.6491C46.3522 29.4837 46.6055 29.738 47.0203 29.738C47.7347 29.738 48.1541 29.2064 47.959 28.5462C47.6443 27.4814 45.9657 24.9014 44.6946 23.5285C41.1784 19.7305 36.3845 17.829 31.593 17.8253ZM31.8198 21.9993C30.7985 21.9815 29.7624 22.0781 28.7269 22.2946C23.8067 23.3231 19.6942 27.3078 18.3778 32.322C17.6792 34.9828 18.0004 39.3291 19.153 42.8055C19.4975 43.8444 19.6638 44.0611 20.1576 44.1186C21.2929 44.2506 21.4039 43.7102 20.7245 41.3606C18.7805 34.6374 20.4542 28.9175 25.2755 25.7991C30.0422 22.7156 36.5981 23.6282 40.328 27.8927C42.6657 30.565 43.9479 35.0852 42.9278 37.058C42.254 38.3612 40.6131 39.1444 39.2654 38.8061C38.2805 38.5589 37.113 37.3485 36.9635 36.4198C36.4361 33.1427 35.6917 31.8602 33.8074 30.983C32.1999 30.2345 30.8602 30.2552 29.2827 31.0542C27.813 31.7986 26.6868 33.3012 26.4588 34.822C26.3765 35.37 26.4127 36.5559 26.5405 37.4561C27.3357 43.0628 31.3471 47.4981 36.8553 48.8625C37.5481 49.0341 38.6807 49.1553 39.3734 49.1315L40.6337 49.0893C41.3456 48.7279 41.3846 47.8962 40.6337 47.4862L38.8513 47.2146C36.6079 46.8727 35.6789 46.5772 34.1368 45.7091C30.7834 43.8212 28.3808 39.729 28.3808 35.9058C28.3808 34.221 29.0187 33.2368 30.506 32.6204C31.5807 32.175 31.5961 32.175 32.6707 32.6204C34.0307 33.1841 34.6855 34.1274 34.8539 35.7608C35.1633 38.7585 37.2436 40.731 40.0957 40.731C42.3848 40.731 44.3115 39.2456 44.9947 36.9551C45.6635 34.7136 44.7657 30.9489 42.8801 28.0852C40.3811 24.2901 36.2452 22.0761 31.8198 21.9993ZM31.6721 26.3419C30.2468 26.36 28.7811 26.623 27.58 27.0908C25.7278 27.9979 23.963 29.8094 23.0501 31.7367C22.3554 33.2032 22.314 33.4314 22.3144 35.9211C22.315 38.9841 22.6856 40.6113 24.0046 43.3619C25.1412 45.7321 26.7157 47.7992 28.466 49.2154C29.9831 50.4429 30.1442 50.5025 30.7757 50.0407C31.4222 49.5679 31.0616 48.7561 29.7553 47.7546C28.3389 46.6687 26.8091 44.7045 25.7764 42.6446C24.0803 39.2612 23.653 35.0796 24.7587 32.6856C25.5611 30.9482 26.7846 29.6522 28.3445 28.886C30.2189 27.9656 32.9565 27.9656 34.8309 28.886C37.068 29.9846 38.4983 31.985 39.0048 34.729C39.3071 36.3669 39.7647 36.9114 40.4629 36.4613C40.7865 36.2527 40.8569 35.9052 40.8268 34.6578C40.7537 31.6255 38.629 28.5808 35.5244 27.0561C34.4822 26.549 33.0973 26.3239 31.6721 26.3419Z" fill="white"/>
</g>
<defs>
<filter id="filter0_dd" x="11.5591" y="12.6221" width="40.4477" height="45.6845" filterUnits="userSpaceOnUse" color-interpolation-filters="sRGB">
<feFlood flood-opacity="0" result="BackgroundImageFix"/>
<feColorMatrix in="SourceAlpha" type="matrix" values="0 0 0 0 0 0 0 0 0 0 0 0 0 0 0 0 0 0 127 0"/>
<feOffset dy="4"/>
<feGaussianBlur stdDeviation="2"/>
<feColorMatrix type="matrix" values="0 0 0 0 0 0 0 0 0 0 0 0 0 0 0 0 0 0 0.1 0"/>
<feBlend mode="hard-light" in2="BackgroundImageFix" result="effect1_dropShadow"/>
<feColorMatrix in="SourceAlpha" type="matrix" values="0 0 0 0 0 0 0 0 0 0 0 0 0 0 0 0 0 0 127 0"/>
<feOffset dy="1"/>
<feGaussianBlur stdDeviation="1"/>
<feColorMatrix type="matrix" values="0 0 0 0 0 0 0 0 0 0 0 0 0 0 0 0 0 0 0.25 0"/>
<feBlend mode="hard-light" in2="effect1_dropShadow" result="effect2_dropShadow"/>
<feBlend mode="normal" in="SourceGraphic" in2="effect2_dropShadow" result="shape"/>
</filter>
<linearGradient id="paint0_linear" x1="32" y1="4" x2="32" y2="60" gradientUnits="userSpaceOnUse">
<stop stop-color="#6FEB6F"/>
<stop offset="0.0001" stop-color="#84F784"/>
<stop offset="1" stop-color="#19964B"/>
</linearGradient>
</defs>
</svg>
