<svg width="275" height="276" viewBox="0 0 275 276" fill="none" xmlns="http://www.w3.org/2000/svg">
<g clip-path="url(#clip0)">
<path d="M251.488 96.4924C246.167 83.7258 235.375 69.9431 226.923 65.5845C232.951 77.227 237.134 89.7306 239.323 102.65L239.346 102.856C225.501 68.4343 202.023 54.5562 182.849 24.3346C181.879 22.8065 180.909 21.2754 179.965 19.6589C179.424 18.7365 178.991 17.9039 178.616 17.1384C177.82 15.6026 177.207 13.9795 176.789 12.3021C176.79 12.2246 176.762 12.1496 176.711 12.0915C176.659 12.0333 176.588 11.996 176.511 11.9867C176.436 11.966 176.356 11.966 176.281 11.9867C176.264 11.9867 176.24 12.0164 176.221 12.0164C176.202 12.0227 176.161 12.0462 176.133 12.0611L176.181 11.9718C145.424 29.9303 134.988 63.1771 134.028 79.8073C121.745 80.6493 110.002 85.1631 100.329 92.7598C99.3203 91.9074 98.2656 91.1102 97.17 90.3716C94.3797 80.6322 94.2608 70.3247 96.8256 60.5239C85.5303 65.9806 75.4936 73.7159 67.3507 83.2404H67.2939C62.4396 77.1205 62.7808 56.8926 63.0588 52.6688C61.6231 53.2442 60.2527 53.9697 58.9705 54.8333C54.6865 57.8825 50.6815 61.3039 47.0026 65.0574C42.8104 69.2961 38.9815 73.8775 35.5561 78.7534V78.7683V78.7534C27.6838 89.8832 22.1001 102.458 19.1274 115.751L18.9631 116.558C18.7324 117.632 17.9015 123.013 17.7593 124.182C17.7593 124.271 17.7403 124.359 17.7309 124.45C16.659 130.006 15.9949 135.632 15.7437 141.284V141.913C15.7882 172.476 27.3233 201.911 48.0708 224.406C68.8183 246.9 97.2699 260.819 127.807 263.413C158.344 266.006 188.746 257.086 213.009 238.415C237.272 219.743 253.633 192.678 258.86 162.562C259.065 160.987 259.233 159.427 259.416 157.836C261.938 137.049 259.207 115.963 251.473 96.497L251.488 96.4924ZM110.357 192.077C110.929 192.351 111.466 192.647 112.053 192.909L112.139 192.969C111.545 192.685 110.951 192.39 110.357 192.083L110.357 192.077ZM239.357 102.881V102.762L239.379 102.896L239.357 102.881Z" fill="url(#paint0_linear)"/>
<path d="M191.996 110.777C192.261 110.963 192.508 111.149 192.757 111.335C189.681 105.896 185.852 100.916 181.383 96.5425C143.325 58.5837 171.409 14.2364 176.145 11.9828L176.193 11.9084C145.436 29.8669 135 63.1137 134.041 79.744C135.469 79.6398 136.885 79.5267 138.344 79.5267C149.257 79.5468 159.971 82.4485 169.395 87.9367C178.819 93.4249 186.617 101.304 191.997 110.773L191.996 110.777Z" fill="#FFCD34"/>
<path d="M138.414 118.363C138.211 121.401 127.45 131.877 123.687 131.877C88.8678 131.877 83.2148 152.883 83.2148 152.883C84.7567 170.571 97.1163 185.139 112.056 192.846C112.739 193.198 113.431 193.517 114.123 193.829C115.321 194.359 116.52 194.849 117.718 195.298C122.846 197.108 128.217 198.141 133.651 198.364C194.683 201.218 206.504 125.582 162.462 103.636C172.852 102.288 183.374 104.835 191.987 110.785C186.606 101.316 178.808 93.4368 169.384 87.9485C159.96 82.4603 149.247 79.5586 138.334 79.5386C136.88 79.5386 135.459 79.6576 134.03 79.7558C121.748 80.5978 110.004 85.1116 100.332 92.7083C102.199 94.2835 104.307 96.3883 108.746 100.752C117.055 108.915 138.364 117.372 138.412 118.364L138.414 118.363Z" fill="url(#paint1_linear)"/>
<path d="M94.6248 88.6066C95.6168 89.236 96.4352 89.785 97.1523 90.2796C94.362 80.5402 94.2431 70.2327 96.8079 60.4319C85.5126 65.8886 75.4759 73.6239 67.333 83.1484C67.9301 83.1336 85.6921 82.8152 94.6235 88.6055L94.6248 88.6066Z" fill="#FF9633"/>
<path d="M16.8677 144.7C26.3176 200.385 76.9252 242.902 134.379 244.524C187.551 246.024 221.521 215.241 235.556 185.211C247.439 159.257 248.804 129.728 239.366 102.794V102.675C239.366 102.586 239.347 102.526 239.366 102.556L239.388 102.761C243.733 131.045 229.307 158.446 206.755 176.977L206.685 177.134C162.744 212.822 120.693 198.666 112.181 192.888C111.587 192.604 110.993 192.31 110.399 192.003C84.7796 179.791 74.1946 156.513 76.4629 136.55C70.3814 136.639 64.4045 134.968 59.2562 131.739C54.108 128.509 50.0094 123.86 47.4571 118.354C54.1822 114.246 61.8503 111.923 69.7307 111.607C77.6111 111.292 85.4412 112.994 92.4749 116.552C106.976 123.117 123.477 123.764 138.45 118.354C138.402 117.362 117.091 108.902 108.783 100.742C104.344 96.3788 102.237 94.2773 100.37 92.6988C99.3605 91.8464 98.3058 91.0491 97.2102 90.3105C96.4835 89.8166 95.6652 89.2809 94.6827 88.6375C85.751 82.8466 67.9897 83.1648 67.4008 83.1807H67.344C62.4914 77.0505 62.8328 56.8226 63.1106 52.5989C61.6749 53.1742 60.3045 53.8998 59.0223 54.7633C54.7383 57.8124 50.7333 61.2338 47.0544 64.9873C42.8472 69.2141 39.0024 73.7849 35.5605 78.6519V78.6668V78.6519C27.6882 89.7816 22.1045 102.356 19.1318 115.65C19.0717 115.898 14.7212 134.866 16.8665 144.702L16.8677 144.7Z" fill="url(#paint2_linear)"/>
<path d="M181.382 96.6408C185.853 101.019 189.682 106.004 192.756 111.449C193.429 111.956 194.058 112.461 194.592 112.949C222.353 138.469 207.808 174.544 206.724 177.114C229.276 158.585 243.689 131.182 239.358 102.898C225.507 68.4614 202.028 54.5833 182.854 24.36C181.884 22.8319 180.914 21.3008 179.97 19.6843C179.429 18.7618 178.997 17.9293 178.621 17.1638C177.825 15.628 177.212 14.0049 176.794 12.3275C176.795 12.25 176.767 12.175 176.716 12.1168C176.665 12.0587 176.594 12.0214 176.516 12.0121C176.441 11.9914 176.361 11.9914 176.286 12.0121C176.269 12.0121 176.245 12.0418 176.226 12.0418C176.207 12.0481 176.166 12.0716 176.139 12.0865C171.403 14.3265 143.318 58.672 181.383 96.6325L181.382 96.6408Z" fill="#FF8619"/>
<path d="M194.564 112.859C194.03 112.371 193.402 111.867 192.729 111.36C192.479 111.174 192.233 110.988 191.967 110.802C183.354 104.852 172.833 102.305 162.443 103.653C206.487 125.613 194.669 201.235 133.632 198.381C128.197 198.158 122.827 197.125 117.699 195.315C116.5 194.868 115.302 194.379 114.103 193.847C113.412 193.531 112.72 193.217 112.037 192.863L112.123 192.923C120.634 198.717 162.673 212.872 206.626 177.169L206.697 177.012C207.793 174.46 222.339 138.375 194.564 112.864L194.564 112.859Z" fill="#FFA316"/>
<path d="M83.2153 152.884C83.2153 152.884 88.8676 131.878 123.688 131.878C127.451 131.878 138.221 121.402 138.414 118.365C123.441 123.774 106.94 123.127 92.4392 116.563C85.4055 113.005 77.5754 111.303 69.695 111.618C61.8146 111.934 54.1465 114.256 47.4214 118.365C49.9737 123.87 54.0723 128.52 59.2205 131.749C64.3688 134.979 70.3457 136.65 76.4272 136.561C74.1587 156.527 84.7429 179.803 110.363 192.014C110.935 192.287 111.472 192.584 112.06 192.845C97.1071 185.142 84.7594 170.573 83.2186 152.884L83.2153 152.884Z" fill="#FFBB27"/>
</g>
<defs>
<linearGradient id="paint0_linear" x1="138.036" y1="11.9712" x2="138.036" y2="263.853" gradientUnits="userSpaceOnUse">
<stop stop-color="#FF980E"/>
<stop offset="1" stop-color="#FF3944"/>
</linearGradient>
<linearGradient id="paint1_linear" x1="137.601" y1="79.5386" x2="137.601" y2="198.442" gradientUnits="userSpaceOnUse">
<stop stop-color="#9A46EB"/>
<stop offset="1" stop-color="#5B298A"/>
</linearGradient>
<linearGradient id="paint2_linear" x1="130.923" y1="52.5989" x2="130.923" y2="244.577" gradientUnits="userSpaceOnUse">
<stop stop-color="#FF6333"/>
<stop offset="0.666667" stop-color="#E04D30"/>
<stop offset="1" stop-color="#B12C2C"/>
</linearGradient>
<clipPath id="clip0">
<rect width="275" height="276" fill="white"/>
</clipPath>
</defs>
</svg>
