<svg width="275" height="276" viewBox="0 0 275 276" fill="none" xmlns="http://www.w3.org/2000/svg">
<g clip-path="url(#clip0)">
<path d="M137.98 19.8728C203.32 19.8728 256.103 72.6601 256.103 137.996C256.103 203.337 203.316 256.12 137.98 256.12C72.6432 256.12 19.856 203.333 19.856 137.996C19.856 72.6562 72.6432 19.8728 137.98 19.8728V19.8728Z" fill="url(#paint0_linear)"/>
<path d="M138.314 119.797C209.112 106.355 211.836 75.9832 211.836 75.9832C211.836 75.9832 206.26 170.109 154.521 175.093C88.9515 181.404 90.9718 211.829 90.9718 211.829C90.9718 211.829 89.6307 202.063 93.7655 189.317C102.042 163.806 110.558 125.071 138.317 119.797H138.314Z" fill="#EB2273"/>
<path d="M104.83 115.656C159.919 85.3702 157.157 49.4062 157.157 49.4062C157.157 49.4062 188.96 133.197 141.283 152.73C88.0229 174.552 90.7653 211.825 90.7653 211.825C90.7653 211.825 64.1872 137.996 104.829 115.651L104.83 115.656Z" fill="#FF812D"/>
<path d="M69.8935 138.007C105.716 94.609 93.2364 64.1729 93.2364 64.1729C93.2364 64.1729 143.556 117.047 112.325 149.794C77.4361 186.377 90.5158 211.83 90.5158 211.83C90.5158 211.83 49.3472 162.902 69.8935 138.013V138.007Z" fill="#FFDF55"/>
</g>
<defs>
<linearGradient id="paint0_linear" x1="137.98" y1="19.8728" x2="137.98" y2="256.12" gradientUnits="userSpaceOnUse">
<stop stop-color="#9346A4"/>
<stop offset="1" stop-color="#5A3983"/>
</linearGradient>
<clipPath id="clip0">
<rect width="275" height="276" fill="white"/>
</clipPath>
</defs>
</svg>
