<svg width="275" height="276" viewBox="0 0 275 276" fill="none" xmlns="http://www.w3.org/2000/svg">
<path d="M138 255C202.617 255 255 202.617 255 138C255 73.3825 202.617 21 138 21C73.3827 21 21 73.3825 21 138C21 202.617 73.3827 255 138 255Z" fill="url(#paint0_linear)"/>
<path d="M67.0669 189.233L80.9951 186.841V88.8306L67.0669 86.438V75.5859H163.197V105.493H148.842L147.475 88.8306H97.8286V131.726H145.937V144.971H97.8286V186.841L111.757 189.233V200H67.0669V189.233Z" fill="black"/>
<path d="M169.102 145.156V136.602H179.004V128.574C179.004 121.816 180.762 116.602 184.277 112.93C187.832 109.219 192.773 107.363 199.102 107.363C200.43 107.363 201.758 107.48 203.086 107.715C204.453 107.91 205.957 108.203 207.598 108.594L206.191 117.383C205.488 117.227 204.629 117.09 203.613 116.973C202.637 116.855 201.621 116.797 200.566 116.797C197.168 116.797 194.648 117.812 193.008 119.844C191.367 121.836 190.547 124.746 190.547 128.574V136.602H203.789V145.156H190.547V190.977L200.098 192.617V200H169.453V192.617L179.004 190.977V145.156H169.102Z" fill="black"/>
<defs>
<linearGradient id="paint0_linear" x1="138" y1="21" x2="138" y2="255" gradientUnits="userSpaceOnUse">
<stop stop-color="#EEEEEE"/>
<stop offset="1" stop-color="#C4C4C4"/>
</linearGradient>
</defs>
</svg>
