<svg width="64" height="64" viewBox="0 0 64 64" fill="none" xmlns="http://www.w3.org/2000/svg">
<path d="M4 32.0004C4 27.7378 5 23.0005 6.65626 20.0813C9.19361 15.6092 14.5113 12.9926 19 15.5005C23.5132 18.0221 23.6556 23.8449 20 27.5005C14.5 33.0005 6 28.5005 4.35971 36.5005C4.12302 35.0354 4 33.5323 4 32.0004Z" fill="url(#paint0_radial)"/>
<path d="M31.9998 4C38.825 4 45.5377 4.48714 49.9383 10.5C52.4998 14 50.9998 21 45.4998 23.5C39.5128 26.2214 34.4998 23.5 31.4998 20.0808C27.7399 15.7956 28.112 13.0772 23.4998 11.5C18.7431 9.87338 15.4998 10.5 10.9814 13.5C16.1125 7.67502 23.627 4 31.9998 4Z" fill="url(#paint1_radial)"/>
<path d="M25.4368 15C26.8572 31.0227 18.5691 42.0454 9.10214 42.0454C8.04719 42.0454 7.01345 41.9583 6.0083 41.791C9.66539 52.3697 20.0556 60 32.3022 60C47.5994 60 60.0003 48.0948 60.0003 33.409C60.0003 30.0809 59.1717 23.0682 54.792 15C51.9512 24.0909 47.3689 26.7045 40.8246 26.7045C35.5927 26.7045 30.645 25.1136 25.4368 15Z" fill="url(#paint2_radial)"/>
<ellipse cx="37.984" cy="37.2716" rx="6.86533" ry="6.59091" fill="url(#paint3_radial)"/>
<path fill-rule="evenodd" clip-rule="evenodd" d="M31.3552 32.4987C30.1235 31.3722 28.4562 30.6807 26.6207 30.6807C22.8291 30.6807 19.7554 33.6315 19.7554 37.2716C19.7554 40.9116 22.8291 43.8625 26.6207 43.8625C28.456 43.8625 30.1232 43.1711 31.3549 42.0448C30.3147 40.7153 29.6983 39.0627 29.6983 37.2719C29.6983 35.481 30.3148 33.8282 31.3552 32.4987Z" fill="url(#paint4_radial)"/>
<path fill-rule="evenodd" clip-rule="evenodd" d="M30.2853 34.3258C29.5192 33.6179 28.4779 33.1826 27.3306 33.1826C24.9772 33.1826 23.0693 35.0142 23.0693 37.2735C23.0693 39.5329 24.9772 41.3644 27.3306 41.3644C28.478 41.3644 29.5196 40.929 30.2857 40.2209C29.9065 39.3092 29.698 38.3144 29.698 37.2729C29.698 36.2317 29.9064 35.2372 30.2853 34.3258Z" fill="black"/>
<ellipse cx="38.6939" cy="37.2735" rx="4.26123" ry="4.09091" fill="black"/>
<ellipse cx="6.97145" cy="42.0452" rx="4.97145" ry="4.77272" fill="url(#paint5_linear)"/>
<ellipse cx="23.543" cy="35.9086" rx="1.42041" ry="1.36364" fill="white"/>
<ellipse cx="34.9063" cy="35.9086" rx="1.42041" ry="1.36364" fill="white"/>
<path d="M30.1719 55C37.7992 55.6704 44.3094 53.0568 47.6903 46.8182" stroke="black" stroke-width="2" stroke-linecap="round"/>
<path d="M50.0776 47.7227C49.2419 45.9095 47.7503 44.9466 45.7832 45.3424" stroke="black" stroke-width="2" stroke-linecap="round"/>
<defs>
<radialGradient id="paint0_radial" cx="0" cy="0" r="1" gradientUnits="userSpaceOnUse" gradientTransform="translate(24.5 28) rotate(-135) scale(19.799 20.6212)">
<stop stop-color="#D83131"/>
<stop offset="1" stop-color="#9C0F42"/>
</radialGradient>
<radialGradient id="paint1_radial" cx="0" cy="0" r="1" gradientUnits="userSpaceOnUse" gradientTransform="translate(30.7707 27.5) rotate(-90) scale(24)">
<stop stop-color="#40BAFF"/>
<stop offset="1" stop-color="#0070B7"/>
</radialGradient>
<radialGradient id="paint2_radial" cx="0" cy="0" r="1" gradientUnits="userSpaceOnUse" gradientTransform="translate(32.3021 33.4091) rotate(90) scale(26.5909 27.6981)">
<stop stop-color="#696969"/>
<stop offset="1" stop-color="#383838"/>
</radialGradient>
<radialGradient id="paint3_radial" cx="0" cy="0" r="1" gradientUnits="userSpaceOnUse" gradientTransform="translate(37.984 33.5217) rotate(90) scale(10.3408 10.7714)">
<stop stop-color="white"/>
<stop offset="1" stop-color="#C4C4C4"/>
</radialGradient>
<radialGradient id="paint4_radial" cx="0" cy="0" r="1" gradientUnits="userSpaceOnUse" gradientTransform="translate(25.5553 34.0099) rotate(90) scale(9.85254 8.67013)">
<stop stop-color="white"/>
<stop offset="1" stop-color="#C4C4C4"/>
</radialGradient>
<linearGradient id="paint5_linear" x1="6.97145" y1="37.2725" x2="6.97145" y2="46.8179" gradientUnits="userSpaceOnUse">
<stop stop-color="#292929"/>
<stop offset="1"/>
</linearGradient>
</defs>
</svg>
