<svg width="275" height="276" viewBox="0 0 275 276" fill="none" xmlns="http://www.w3.org/2000/svg">
<path d="M18 79C18 67.9543 26.9543 59 38 59H237C248.046 59 257 67.9543 257 79V94.8561C257 101.232 253.96 107.226 248.816 110.993L149.316 183.848C142.281 189 132.719 189 125.684 183.848L26.1844 110.993C21.0401 107.226 18 101.232 18 94.8561V79Z" fill="#282828"/>
<path fill-rule="evenodd" clip-rule="evenodd" d="M233 160.938V38C233 32.4772 228.523 28 223 28H52C46.4772 28 42 32.4771 42 38V160.938C57.1864 177.579 85.333 193 137.5 193C189.667 193 217.814 177.579 233 160.938Z" fill="#EDEDED"/>
<path d="M257 80.9868V134.522C257 134.522 257 248 137.5 248C18 248 18 134.522 18 134.522V80.9868L137.5 164L257 80.9868Z" fill="url(#paint0_linear)"/>
<path d="M257 134.522V80.9868L137.5 164L218.5 221.393C257 187.852 257 134.522 257 134.522Z" fill="#383838"/>
<defs>
<linearGradient id="paint0_linear" x1="137.5" y1="80.9868" x2="137.5" y2="248" gradientUnits="userSpaceOnUse">
<stop stop-color="#949090"/>
<stop offset="1" stop-color="#696969"/>
</linearGradient>
</defs>
</svg>
