<svg width="275" height="276" viewBox="0 0 275 276" fill="none" xmlns="http://www.w3.org/2000/svg">
<path d="M257 138.522V67C257 55.9543 248.046 47 237 47H38C26.9543 47 18 55.9543 18 67V138.522C18 138.522 18 252 137.5 252C257 252 257 138.522 257 138.522Z" fill="url(#paint0_linear)"/>
<path d="M205 91C205 73.2305 197.941 56.1888 185.376 43.6238C172.811 31.0589 155.77 24 138 24C120.231 24 103.189 31.0589 90.6239 43.6238C78.0589 56.1888 71 73.2305 71 91L104.5 91C104.5 82.1152 108.029 73.5944 114.312 67.3119C120.594 61.0295 129.115 57.5 138 57.5C146.885 57.5 155.406 61.0295 161.688 67.3119C167.971 73.5944 171.5 82.1152 171.5 91H205Z" fill="white"/>
<path fill-rule="evenodd" clip-rule="evenodd" d="M220.249 223.832L127.418 131L56 202.418L101.616 248.034C112.185 250.571 124.09 252 137.5 252C176.338 252 202.554 240.013 220.249 223.832Z" fill="url(#paint1_linear)"/>
<path fill-rule="evenodd" clip-rule="evenodd" d="M18 77.582V138.522C18 138.522 18 252 137.5 252C156.086 252 171.782 249.255 185.036 244.618L18 77.582Z" fill="url(#paint2_linear)"/>
<defs>
<linearGradient id="paint0_linear" x1="137.5" y1="47" x2="137.5" y2="252" gradientUnits="userSpaceOnUse">
<stop stop-color="#2190CF"/>
<stop offset="0.0001" stop-color="#3BB4F7"/>
<stop offset="1" stop-color="#1883C1"/>
</linearGradient>
<linearGradient id="paint1_linear" x1="138.125" y1="131" x2="138.125" y2="252" gradientUnits="userSpaceOnUse">
<stop stop-color="#FB4F4F"/>
<stop offset="1" stop-color="#9C0F42"/>
</linearGradient>
<linearGradient id="paint2_linear" x1="101.518" y1="77.582" x2="101.518" y2="252" gradientUnits="userSpaceOnUse">
<stop stop-color="#00FF38"/>
<stop offset="1" stop-color="#259D47"/>
</linearGradient>
</defs>
</svg>
