<svg width="64" height="64" viewBox="0 0 64 64" fill="none" xmlns="http://www.w3.org/2000/svg">
<path d="M31.9999 60.0002C22.6493 60.0002 14.3692 55.4167 9.2839 48.3739C7.23211 45.5323 9.59901 42 13.1039 42H50.8959C54.4008 42 56.7677 45.5323 54.7159 48.3739C49.6305 55.4167 41.3505 60.0002 31.9999 60.0002Z" fill="url(#paint0_linear)"/>
<path fill-rule="evenodd" clip-rule="evenodd" d="M31.4999 14.5001L19.7645 10L9 36.5001L23.4999 42.0001L31.4999 14.5001ZM28.206 16.7428L21.783 13.4278L13.5157 35.4326L21.2187 36.2554L28.206 16.7428Z" fill="#FFA316"/>
<path d="M47.3389 14.7545L46.4184 18.8033L30.0981 15.6057L31.3174 10.2426L47.3389 14.7545Z" fill="#949090"/>
<g filter="url(#filter0_d)">
<circle cx="16" cy="39" r="11" fill="#FFDF7E"/>
</g>
<g filter="url(#filter1_d)">
<circle cx="16" cy="39" r="8" fill="url(#paint1_linear)"/>
</g>
<circle cx="16" cy="39" r="5" fill="url(#paint2_linear)"/>
<g filter="url(#filter2_d)">
<circle cx="26" cy="13" r="9" fill="#FFDF7E"/>
</g>
<rect x="52" y="22" width="4" height="6" transform="rotate(-30 52 22)" fill="#383838"/>
<rect width="4" height="6" transform="matrix(-0.866025 -0.5 -0.5 0.866025 49 22)" fill="#383838"/>
<path d="M54 27C54 26.3431 54.5 24 57 24C59.5 24 60 26.3431 60 27C60 30 60 33 60 33L56 37H54C54 37 54 30 54 27Z" fill="url(#paint3_linear)"/>
<path d="M47 27C47 26.3431 46.5 24 44 24C41.5 24 41 26.3431 41 27C41 30 41 33 41 33L45 37H47C47 37 47 30 47 27Z" fill="url(#paint4_linear)"/>
<g filter="url(#filter3_d)">
<circle cx="50" cy="18" r="6" fill="#FFDF7E"/>
</g>
<g filter="url(#filter4_d)">
<circle cx="26" cy="13" r="6" fill="url(#paint5_linear)"/>
</g>
<g filter="url(#filter5_d)">
<circle cx="50" cy="18" r="4" fill="url(#paint6_linear)"/>
</g>
<circle cx="26" cy="13" r="3" fill="url(#paint7_linear)"/>
<circle cx="50" cy="18" r="2" fill="url(#paint8_linear)"/>
<circle cx="44" cy="27" r="1" fill="#222222"/>
<circle cx="57" cy="27" r="1" fill="#222222"/>
<defs>
<filter id="filter0_d" x="1" y="28" width="30" height="30" filterUnits="userSpaceOnUse" color-interpolation-filters="sRGB">
<feFlood flood-opacity="0" result="BackgroundImageFix"/>
<feColorMatrix in="SourceAlpha" type="matrix" values="0 0 0 0 0 0 0 0 0 0 0 0 0 0 0 0 0 0 127 0"/>
<feOffset dy="4"/>
<feGaussianBlur stdDeviation="2"/>
<feColorMatrix type="matrix" values="0 0 0 0 0 0 0 0 0 0 0 0 0 0 0 0 0 0 0.25 0"/>
<feBlend mode="normal" in2="BackgroundImageFix" result="effect1_dropShadow"/>
<feBlend mode="normal" in="SourceGraphic" in2="effect1_dropShadow" result="shape"/>
</filter>
<filter id="filter1_d" x="7" y="31" width="18" height="18" filterUnits="userSpaceOnUse" color-interpolation-filters="sRGB">
<feFlood flood-opacity="0" result="BackgroundImageFix"/>
<feColorMatrix in="SourceAlpha" type="matrix" values="0 0 0 0 0 0 0 0 0 0 0 0 0 0 0 0 0 0 127 0"/>
<feOffset dy="1"/>
<feGaussianBlur stdDeviation="0.5"/>
<feColorMatrix type="matrix" values="0 0 0 0 0 0 0 0 0 0 0 0 0 0 0 0 0 0 0.25 0"/>
<feBlend mode="normal" in2="BackgroundImageFix" result="effect1_dropShadow"/>
<feBlend mode="normal" in="SourceGraphic" in2="effect1_dropShadow" result="shape"/>
</filter>
<filter id="filter2_d" x="13" y="4" width="26" height="26" filterUnits="userSpaceOnUse" color-interpolation-filters="sRGB">
<feFlood flood-opacity="0" result="BackgroundImageFix"/>
<feColorMatrix in="SourceAlpha" type="matrix" values="0 0 0 0 0 0 0 0 0 0 0 0 0 0 0 0 0 0 127 0"/>
<feOffset dy="4"/>
<feGaussianBlur stdDeviation="2"/>
<feColorMatrix type="matrix" values="0 0 0 0 0 0 0 0 0 0 0 0 0 0 0 0 0 0 0.25 0"/>
<feBlend mode="normal" in2="BackgroundImageFix" result="effect1_dropShadow"/>
<feBlend mode="normal" in="SourceGraphic" in2="effect1_dropShadow" result="shape"/>
</filter>
<filter id="filter3_d" x="40" y="12" width="20" height="20" filterUnits="userSpaceOnUse" color-interpolation-filters="sRGB">
<feFlood flood-opacity="0" result="BackgroundImageFix"/>
<feColorMatrix in="SourceAlpha" type="matrix" values="0 0 0 0 0 0 0 0 0 0 0 0 0 0 0 0 0 0 127 0"/>
<feOffset dy="4"/>
<feGaussianBlur stdDeviation="2"/>
<feColorMatrix type="matrix" values="0 0 0 0 0 0 0 0 0 0 0 0 0 0 0 0 0 0 0.25 0"/>
<feBlend mode="normal" in2="BackgroundImageFix" result="effect1_dropShadow"/>
<feBlend mode="normal" in="SourceGraphic" in2="effect1_dropShadow" result="shape"/>
</filter>
<filter id="filter4_d" x="19" y="7" width="14" height="14" filterUnits="userSpaceOnUse" color-interpolation-filters="sRGB">
<feFlood flood-opacity="0" result="BackgroundImageFix"/>
<feColorMatrix in="SourceAlpha" type="matrix" values="0 0 0 0 0 0 0 0 0 0 0 0 0 0 0 0 0 0 127 0"/>
<feOffset dy="1"/>
<feGaussianBlur stdDeviation="0.5"/>
<feColorMatrix type="matrix" values="0 0 0 0 0 0 0 0 0 0 0 0 0 0 0 0 0 0 0.25 0"/>
<feBlend mode="normal" in2="BackgroundImageFix" result="effect1_dropShadow"/>
<feBlend mode="normal" in="SourceGraphic" in2="effect1_dropShadow" result="shape"/>
</filter>
<filter id="filter5_d" x="45" y="14" width="10" height="10" filterUnits="userSpaceOnUse" color-interpolation-filters="sRGB">
<feFlood flood-opacity="0" result="BackgroundImageFix"/>
<feColorMatrix in="SourceAlpha" type="matrix" values="0 0 0 0 0 0 0 0 0 0 0 0 0 0 0 0 0 0 127 0"/>
<feOffset dy="1"/>
<feGaussianBlur stdDeviation="0.5"/>
<feColorMatrix type="matrix" values="0 0 0 0 0 0 0 0 0 0 0 0 0 0 0 0 0 0 0.25 0"/>
<feBlend mode="normal" in2="BackgroundImageFix" result="effect1_dropShadow"/>
<feBlend mode="normal" in="SourceGraphic" in2="effect1_dropShadow" result="shape"/>
</filter>
<linearGradient id="paint0_linear" x1="33.635" y1="43.2366" x2="33.635" y2="59.9097" gradientUnits="userSpaceOnUse">
<stop stop-color="#555555"/>
<stop offset="1" stop-color="#383838"/>
</linearGradient>
<linearGradient id="paint1_linear" x1="16" y1="31" x2="16" y2="47" gradientUnits="userSpaceOnUse">
<stop stop-color="#555555"/>
<stop offset="1" stop-color="#383838"/>
</linearGradient>
<linearGradient id="paint2_linear" x1="16" y1="34" x2="16" y2="44" gradientUnits="userSpaceOnUse">
<stop stop-color="#222222"/>
<stop offset="1" stop-color="#696969"/>
</linearGradient>
<linearGradient id="paint3_linear" x1="57" y1="24" x2="57" y2="37" gradientUnits="userSpaceOnUse">
<stop stop-color="#C4C4C4"/>
<stop offset="1" stop-color="#949090"/>
</linearGradient>
<linearGradient id="paint4_linear" x1="44" y1="24" x2="44" y2="37" gradientUnits="userSpaceOnUse">
<stop stop-color="#C4C4C4"/>
<stop offset="1" stop-color="#949090"/>
</linearGradient>
<linearGradient id="paint5_linear" x1="26" y1="7" x2="26" y2="19" gradientUnits="userSpaceOnUse">
<stop stop-color="#555555"/>
<stop offset="1" stop-color="#383838"/>
</linearGradient>
<linearGradient id="paint6_linear" x1="50" y1="14" x2="50" y2="22" gradientUnits="userSpaceOnUse">
<stop stop-color="#555555"/>
<stop offset="1" stop-color="#383838"/>
</linearGradient>
<linearGradient id="paint7_linear" x1="26" y1="10" x2="26" y2="16" gradientUnits="userSpaceOnUse">
<stop stop-color="#222222"/>
<stop offset="1" stop-color="#696969"/>
</linearGradient>
<linearGradient id="paint8_linear" x1="50" y1="16" x2="50" y2="20" gradientUnits="userSpaceOnUse">
<stop stop-color="#222222"/>
<stop offset="1" stop-color="#696969"/>
</linearGradient>
</defs>
</svg>
