<svg width="64" height="64" viewBox="0 0 64 64" fill="none" xmlns="http://www.w3.org/2000/svg">
<path d="M32.5 60C47.6878 60 60 47.6878 60 32.4999C60 17.3121 47.6878 5 32.5 5C17.3122 5 5 17.3121 5 32.4999C5 47.6878 17.3122 60 32.5 60Z" fill="url(#paint0_linear)"/>
<path d="M44.109 35.5067C44.5684 33.792 46.3309 32.7744 48.0457 33.2339L50.5295 33.8994C52.2442 34.3589 53.2618 36.1214 52.8023 37.8361C52.3429 39.5508 50.5803 40.5684 48.8656 40.1089L46.3818 39.4434C44.6671 38.984 43.6495 37.2214 44.109 35.5067Z" fill="white"/>
<path d="M12.7164 27.0951C13.1758 25.3804 14.9384 24.3628 16.6531 24.8223L19.1369 25.4878C20.8516 25.9473 21.8692 27.7098 21.4097 29.4245C20.9503 31.1392 19.1878 32.1568 17.473 31.6973L14.9892 31.0318C13.2745 30.5723 12.2569 28.8098 12.7164 27.0951Z" fill="white"/>
<path d="M29.7292 43.5963C31.4439 44.0558 32.4615 45.8183 32.002 47.533L31.3365 50.0168C30.877 51.7315 29.1145 52.7491 27.3998 52.2897C25.6851 51.8302 24.6675 50.0677 25.127 48.353L25.7925 45.8692C26.252 44.1545 28.0145 43.1369 29.7292 43.5963Z" fill="white"/>
<path d="M38.0114 12.6867C39.7261 13.1462 40.7437 14.9087 40.2842 16.6234L39.6187 19.1072C39.1592 20.8219 37.3967 21.8395 35.682 21.38C33.9673 20.9206 32.9497 19.1581 33.4092 17.4433L34.0747 14.9595C34.5342 13.2448 36.2967 12.2272 38.0114 12.6867Z" fill="white"/>
<path fill-rule="evenodd" clip-rule="evenodd" d="M32.3231 14.8729L31.6978 17.2066C30.9831 19.874 32.566 22.6156 35.2333 23.3303C37.9007 24.0451 40.6424 22.4621 41.3571 19.7948L41.9053 17.7487C46.6648 20.8755 49.6325 26.1774 49.7894 31.8894L48.0746 31.4299C45.4073 30.7152 42.6656 32.2981 41.9509 34.9654C41.2362 37.6328 42.8191 40.3744 45.4864 41.0891L47.2012 41.5486C44.2093 46.4169 38.9883 49.5246 33.3031 49.8527L33.8513 47.8067C34.566 45.1393 32.9831 42.3976 30.3158 41.6829C27.6485 40.9682 24.9068 42.5511 24.1921 45.2185L23.5667 47.5521C18.2902 44.5229 14.9603 38.9248 14.7938 32.8651L17.4745 33.5834C20.1419 34.2981 22.8836 32.7152 23.5983 30.0479C24.313 27.3805 22.7301 24.6388 20.0627 23.9241L17.382 23.2058C20.556 18.0412 26.2388 14.858 32.3231 14.8729ZM30.8681 37.6898C33.8022 38.476 36.818 36.7348 37.6042 33.8007C38.3904 30.8667 36.6492 27.8508 33.7151 27.0646C30.781 26.2785 27.7652 28.0197 26.979 30.9537C26.1928 33.8878 27.934 36.9036 30.8681 37.6898Z" fill="white"/>
<defs>
<linearGradient id="paint0_linear" x1="32.5" y1="5" x2="32.5" y2="60" gradientUnits="userSpaceOnUse">
<stop stop-color="#383838"/>
<stop offset="1" stop-color="#696969"/>
</linearGradient>
</defs>
</svg>
