<svg width="275" height="276" viewBox="0 0 275 276" fill="none" xmlns="http://www.w3.org/2000/svg">
<path d="M138 253.489C201.84 253.489 253.593 201.736 253.593 137.895C253.593 74.0545 201.84 22.3015 138 22.3015C74.1593 22.3015 22.4062 74.0545 22.4062 137.895C22.4062 201.736 74.1593 253.489 138 253.489Z" fill="url(#paint0_linear)"/>
<path d="M138 76C147.941 76 156 67.9411 156 58C156 48.0589 147.941 40 138 40C128.059 40 120 48.0589 120 58C120 67.9411 128.059 76 138 76Z" fill="#D83131"/>
<path d="M85 100C94.9411 100 103 91.9411 103 82C103 72.0589 94.9411 64 85 64C75.0589 64 67 72.0589 67 82C67 91.9411 75.0589 100 85 100Z" fill="#3188D8"/>
<path d="M59 150C68.9411 150 77 141.941 77 132C77 122.059 68.9411 114 59 114C49.0589 114 41 122.059 41 132C41 141.941 49.0589 150 59 150Z" fill="#7BD831"/>
<path d="M121.793 144.182C139.944 161.118 174.863 134.254 189.602 117.382C204.762 100.029 261.367 41.5008 265.504 37.7049C269.641 33.9092 272.936 29.2216 269.278 24.5578C265.47 20.0158 260.203 22.2724 255.635 25.5373C251.067 28.8024 182.118 72.1111 162.009 83.3633C142.459 94.3032 108.967 122.927 121.793 144.182V144.182Z" fill="url(#paint1_linear)"/>
<path d="M92.9696 166.843C98.7561 169.493 98.1303 171.408 103.268 170.582C106.812 170.012 137.511 146.742 137.511 146.742C139.067 143.008 137.2 137.874 133.694 133.811C130.442 129.542 125.804 126.656 121.829 127.408C121.829 127.408 92.725 152.644 91.436 155.994C89.5672 160.851 91.5706 160.634 92.9696 166.843V166.843Z" fill="#BFBFBF"/>
<path d="M91.3807 218.319C68.5126 205.384 61.8568 182.851 70.8865 166.365C77.9035 153.554 89.4249 151.132 97.3827 157.326C105.277 163.471 105.973 170.794 103.618 178.066C98.8158 192.899 79.5016 203.021 91.3807 218.319Z" fill="#282828"/>
<defs>
<linearGradient id="paint0_linear" x1="138" y1="22.3015" x2="138" y2="253.489" gradientUnits="userSpaceOnUse">
<stop offset="0.526042" stop-color="#EEEEEE"/>
<stop offset="1" stop-color="#D8D8D8"/>
</linearGradient>
<linearGradient id="paint1_linear" x1="269.277" y1="24.5573" x2="118.733" y2="146.818" gradientUnits="userSpaceOnUse">
<stop stop-color="#343434"/>
<stop offset="1" stop-color="#4D4D4D"/>
</linearGradient>
</defs>
</svg>
