<svg width="275" height="276" viewBox="0 0 275 276" fill="none" xmlns="http://www.w3.org/2000/svg">
<path d="M138 255C202.617 255 255 202.617 255 138C255 73.3825 202.617 21 138 21C73.3827 21 21 73.3825 21 138C21 202.617 73.3827 255 138 255Z" fill="url(#paint0_linear)"/>
<path fill-rule="evenodd" clip-rule="evenodd" d="M233.291 205.904C212.074 235.624 177.3 255 138 255C76.9124 255 26.759 208.183 21.4626 148.472C30.462 146.993 39.8558 146.486 49.2496 147.615C70.8607 150.212 92.4718 161.465 114.083 172.719C124.889 178.345 135.694 183.972 146.5 188.517C175.43 200.684 204.36 205.095 233.291 205.904Z" fill="url(#paint1_linear)" fill-opacity="0.5"/>
<path fill-rule="evenodd" clip-rule="evenodd" d="M254.998 138.743C254.598 203.018 202.37 255 138 255C91.7151 255 51.7073 228.124 32.7319 189.126C36.1875 190.748 39.7538 191.53 43.3201 190.786C48.5833 189.706 54.5838 186.825 60.7818 183.85C71.8869 178.52 83.6259 172.885 92.8934 176.755C99.4546 179.495 103.538 182.165 107.396 184.688C112.028 187.716 116.335 190.532 124.213 193C138.653 197.523 159.347 189.878 173.787 177.816L173.787 177.816C188.227 165.755 202.667 153.694 217.107 146.156C229.681 139.591 242.256 136.457 254.998 138.743Z" fill="url(#paint2_linear)" fill-opacity="0.5"/>
<path d="M89.0923 194C104.185 194 104.185 178.94 104.185 178.94C104.185 178.94 104.185 163.88 89.0923 163.88C74 163.88 74 178.94 74 178.94C74 178.94 74 194 89.0923 194Z" fill="#042A3F"/>
<path d="M183 84H104.185V108.542H183V84Z" fill="#042A3F"/>
<path d="M183 178.94C183 178.94 183 163.88 167.908 163.88C152.815 163.88 152.815 178.94 152.815 178.94C152.815 178.94 152.815 194 167.908 194C183 194 183 178.94 183 178.94Z" fill="#042A3F"/>
<path d="M104.185 178.94C104.185 178.94 104.185 194 89.0923 194C74 194 74 178.94 74 178.94C74 178.94 74 163.88 89.0923 163.88C104.185 163.88 104.185 178.94 104.185 178.94ZM104.185 178.94V108.542M183 178.94C183 178.94 183 163.88 167.908 163.88C152.815 163.88 152.815 178.94 152.815 178.94C152.815 178.94 152.815 194 167.908 194C183 194 183 178.94 183 178.94ZM183 178.94V108.542M104.185 108.542V84H183V108.542M104.185 108.542H183" stroke="#042A3F" stroke-width="10" stroke-linecap="round" stroke-linejoin="round"/>
<defs>
<linearGradient id="paint0_linear" x1="138" y1="21" x2="138" y2="255" gradientUnits="userSpaceOnUse">
<stop stop-color="#FFDF55"/>
<stop offset="1" stop-color="#E04D30"/>
</linearGradient>
<linearGradient id="paint1_linear" x1="127.377" y1="147" x2="127.377" y2="255" gradientUnits="userSpaceOnUse">
<stop offset="0.078125" stop-color="#9C0F42"/>
<stop offset="0.458333" stop-color="#9C0F42" stop-opacity="0.58"/>
<stop offset="0.755208" stop-color="#9C0F42" stop-opacity="0.172885"/>
<stop offset="1" stop-color="#9C0F42" stop-opacity="0"/>
</linearGradient>
<linearGradient id="paint2_linear" x1="143.865" y1="138" x2="143.865" y2="255" gradientUnits="userSpaceOnUse">
<stop offset="0.078125" stop-color="#9C0F42"/>
<stop offset="0.458333" stop-color="#9C0F42" stop-opacity="0.58"/>
<stop offset="0.755208" stop-color="#9C0F42" stop-opacity="0.172885"/>
<stop offset="1" stop-color="#9C0F42" stop-opacity="0"/>
</linearGradient>
</defs>
</svg>
