<svg width="64" height="64" viewBox="0 0 64 64" fill="none" xmlns="http://www.w3.org/2000/svg">
<path d="M32 60C47.464 60 60 47.4639 60 31.9999C60 16.536 47.464 4 32 4C16.536 4 4 16.536 4 31.9999C4 47.4639 16.536 60 32 60Z" fill="url(#paint0_linear)"/>
<path opacity="0.35" d="M41.6423 17.2158H22.3577C19.3987 17.2158 17 19.4544 17 22.2158C17 24.9772 19.3987 27.2158 22.3577 27.2158H41.6423C44.6013 27.2158 47 24.9772 47 22.2158C47 19.4544 44.6013 17.2158 41.6423 17.2158Z" fill="white"/>
<path opacity="0.35" d="M22.3577 46.8896L41.6423 46.8896C44.6013 46.8896 47 44.6511 47 41.8896C47 39.1282 44.6013 36.8896 41.6423 36.8896L22.3577 36.8896C19.3987 36.8896 17 39.1282 17 41.8896C17 44.6511 19.3987 46.8896 22.3577 46.8896Z" fill="white"/>
<path d="M40 30C44.4183 30 48 26.4183 48 22C48 17.5817 44.4183 14 40 14C35.5817 14 32 17.5817 32 22C32 26.4183 35.5817 30 40 30Z" fill="white"/>
<path d="M24 34C19.5817 34 16 37.5817 16 42C16 46.4183 19.5817 50 24 50C28.4183 50 32 46.4183 32 42C32 37.5817 28.4183 34 24 34Z" fill="white"/>
<defs>
<linearGradient id="paint0_linear" x1="31.5875" y1="4" x2="31.5875" y2="59.9997" gradientUnits="userSpaceOnUse">
<stop stop-color="#40BAFF"/>
<stop offset="1" stop-color="#0070B7"/>
</linearGradient>
</defs>
</svg>
