<svg width="64" height="64" viewBox="0 0 64 64" fill="none" xmlns="http://www.w3.org/2000/svg">
<g clip-path="url(#clip0)">
<circle cx="32" cy="32" r="28" fill="url(#paint0_linear)"/>
<g filter="url(#filter0_i)">
<ellipse cx="32.1128" cy="32.1309" rx="23" ry="23" fill="#333333"/>
</g>
<g filter="url(#filter1_d)">
<ellipse cx="32.0691" cy="32" rx="19.0691" ry="19" fill="#949090"/>
</g>
<path fill-rule="evenodd" clip-rule="evenodd" d="M49.6865 24.7285C50.6449 27.0337 51.1381 29.5044 51.1381 31.9995H32.069L45.5529 18.5645C47.3236 20.3288 48.7282 22.4233 49.6865 24.7285ZM14.4515 39.2715C13.4932 36.9663 13 34.4956 13 32.0005L32.0691 32.0005L18.5852 45.4356C16.8145 43.6712 15.4099 41.5767 14.4515 39.2715Z" fill="white"/>
<ellipse cx="32.1163" cy="32.0003" rx="7.91273" ry="7.88406" fill="#333333"/>
<g filter="url(#filter2_d)">
<ellipse cx="32" cy="32" rx="4" ry="4" fill="#EDEDED"/>
</g>
<path d="M23.2578 24.1916C24.2838 25.3838 24.1965 27.1278 23.0562 28.2205V28.2205C21.9159 29.3132 20.0959 29.3968 18.8518 28.4137L3.30302 16.1273C0.99621 14.3045 0.829559 10.9739 2.94379 8.94799V8.94799C5.05801 6.92206 8.5337 7.08175 10.4359 9.29222L23.2578 24.1916Z" fill="#383838"/>
<g filter="url(#filter3_d)">
<path d="M23.2578 21.0227C24.2838 22.2149 24.1965 23.9589 23.0562 25.0515V25.0515C21.9159 26.1442 20.0959 26.2278 18.8518 25.2447L3.30302 12.9583C0.99621 11.1355 0.829561 7.80498 2.94379 5.77905V5.77905C5.05801 3.75312 8.5337 3.91281 10.4359 6.12328L23.2578 21.0227Z" fill="#C4C4C4"/>
</g>
<path d="M16.1377 14.5404C16.6497 15.1353 16.6061 16.0056 16.0371 16.5508V16.5508C15.4681 17.0961 14.5599 17.1378 13.9391 16.6472L6.18007 10.5162C5.02895 9.60659 4.94579 7.94462 6.00081 6.93366V6.93366C7.05584 5.9227 8.79024 6.00238 9.73948 7.10543L16.1377 14.5404Z" fill="white"/>
</g>
<defs>
<filter id="filter0_i" x="9.11279" y="9.13086" width="46" height="50" filterUnits="userSpaceOnUse" color-interpolation-filters="sRGB">
<feFlood flood-opacity="0" result="BackgroundImageFix"/>
<feBlend mode="normal" in="SourceGraphic" in2="BackgroundImageFix" result="shape"/>
<feColorMatrix in="SourceAlpha" type="matrix" values="0 0 0 0 0 0 0 0 0 0 0 0 0 0 0 0 0 0 127 0" result="hardAlpha"/>
<feOffset dy="4"/>
<feGaussianBlur stdDeviation="2"/>
<feComposite in2="hardAlpha" operator="arithmetic" k2="-1" k3="1"/>
<feColorMatrix type="matrix" values="0 0 0 0 0 0 0 0 0 0 0 0 0 0 0 0 0 0 0.25 0"/>
<feBlend mode="normal" in2="shape" result="effect1_innerShadow"/>
</filter>
<filter id="filter1_d" x="9" y="13" width="46.1382" height="46" filterUnits="userSpaceOnUse" color-interpolation-filters="sRGB">
<feFlood flood-opacity="0" result="BackgroundImageFix"/>
<feColorMatrix in="SourceAlpha" type="matrix" values="0 0 0 0 0 0 0 0 0 0 0 0 0 0 0 0 0 0 127 0"/>
<feOffset dy="4"/>
<feGaussianBlur stdDeviation="2"/>
<feColorMatrix type="matrix" values="0 0 0 0 0 0 0 0 0 0 0 0 0 0 0 0 0 0 0.25 0"/>
<feBlend mode="normal" in2="BackgroundImageFix" result="effect1_dropShadow"/>
<feBlend mode="normal" in="SourceGraphic" in2="effect1_dropShadow" result="shape"/>
</filter>
<filter id="filter2_d" x="24" y="28" width="16" height="16" filterUnits="userSpaceOnUse" color-interpolation-filters="sRGB">
<feFlood flood-opacity="0" result="BackgroundImageFix"/>
<feColorMatrix in="SourceAlpha" type="matrix" values="0 0 0 0 0 0 0 0 0 0 0 0 0 0 0 0 0 0 127 0"/>
<feOffset dy="4"/>
<feGaussianBlur stdDeviation="2"/>
<feColorMatrix type="matrix" values="0 0 0 0 0 0 0 0 0 0 0 0 0 0 0 0 0 0 0.25 0"/>
<feBlend mode="normal" in2="BackgroundImageFix" result="effect1_dropShadow"/>
<feBlend mode="normal" in="SourceGraphic" in2="effect1_dropShadow" result="shape"/>
</filter>
<filter id="filter3_d" x="-2.54028" y="4.35645" width="30.5133" height="29.5731" filterUnits="userSpaceOnUse" color-interpolation-filters="sRGB">
<feFlood flood-opacity="0" result="BackgroundImageFix"/>
<feColorMatrix in="SourceAlpha" type="matrix" values="0 0 0 0 0 0 0 0 0 0 0 0 0 0 0 0 0 0 127 0"/>
<feOffset dy="4"/>
<feGaussianBlur stdDeviation="2"/>
<feColorMatrix type="matrix" values="0 0 0 0 0 0 0 0 0 0 0 0 0 0 0 0 0 0 0.5 0"/>
<feBlend mode="normal" in2="BackgroundImageFix" result="effect1_dropShadow"/>
<feBlend mode="normal" in="SourceGraphic" in2="effect1_dropShadow" result="shape"/>
</filter>
<linearGradient id="paint0_linear" x1="33.75" y1="7.8473" x2="33.75" y2="59.7186" gradientUnits="userSpaceOnUse">
<stop stop-color="#DFDFDF"/>
<stop offset="1" stop-color="#949090"/>
</linearGradient>
<clipPath id="clip0">
<rect width="64" height="64" fill="white"/>
</clipPath>
</defs>
</svg>
