<svg width="275" height="276" viewBox="0 0 275 276" fill="none" xmlns="http://www.w3.org/2000/svg">
<circle cx="137.5" cy="137.5" r="116.5" fill="url(#paint0_linear)"/>
<path d="M137.5 234C89.1751 234 50 194.825 50 146.5C50 98.1751 89.1751 59 137.5 59C185.825 59 225 98.1751 225 146.5C225 194.825 185.825 234 137.5 234ZM137.5 99.6275C111.613 99.6275 90.6275 120.613 90.6275 146.5C90.6275 172.387 111.613 193.372 137.5 193.372C163.387 193.372 184.372 172.387 184.372 146.5C184.372 120.613 163.387 99.6275 137.5 99.6275Z" fill="#1883C1"/>
<path d="M137.5 225C89.1751 225 50 185.825 50 137.5C50 89.1751 89.1751 50 137.5 50C185.825 50 225 89.1751 225 137.5C225 185.825 185.825 225 137.5 225ZM137.5 90.6275C111.613 90.6275 90.6275 111.613 90.6275 137.5C90.6275 163.387 111.613 184.372 137.5 184.372C163.387 184.372 184.372 163.387 184.372 137.5C184.372 111.613 163.387 90.6275 137.5 90.6275Z" fill="white"/>
<path d="M225 137.5C225 126.009 222.737 114.631 218.339 104.015C213.942 93.3992 207.497 83.7533 199.372 75.6282L170.644 104.356C174.996 108.709 178.449 113.876 180.805 119.563C183.16 125.25 184.372 131.345 184.372 137.5H225Z" fill="#D83131"/>
<path d="M137.5 50C126.009 50 114.631 52.2633 104.015 56.6606C93.3992 61.0578 83.7533 67.503 75.6282 75.6282L104.356 104.356C108.709 100.004 113.876 96.5511 119.563 94.1955C125.25 91.8399 131.345 90.6275 137.5 90.6275L137.5 50Z" fill="#D83131"/>
<path d="M50 137.5C50 148.991 52.2633 160.369 56.6606 170.985C61.0578 181.601 67.503 191.247 75.6282 199.372L104.356 170.644C100.004 166.291 96.5511 161.124 94.1955 155.437C91.8399 149.75 90.6275 143.655 90.6275 137.5L50 137.5Z" fill="#D83131"/>
<path d="M137.5 225C148.991 225 160.369 222.737 170.985 218.339C181.601 213.942 191.247 207.497 199.372 199.372L170.644 170.644C166.291 174.996 161.124 178.449 155.437 180.805C149.75 183.16 143.655 184.372 137.5 184.372L137.5 225Z" fill="#D83131"/>
<defs>
<linearGradient id="paint0_linear" x1="137.5" y1="21" x2="137.5" y2="254" gradientUnits="userSpaceOnUse">
<stop stop-color="#3BB4F7"/>
<stop offset="1" stop-color="#127CB8"/>
</linearGradient>
</defs>
</svg>
