<svg width="275" height="276" viewBox="0 0 275 276" fill="none" xmlns="http://www.w3.org/2000/svg">
<path d="M138 253C201.513 253 253 201.513 253 138C253 74.4873 201.513 23 138 23C74.4873 23 23 74.4873 23 138C23 201.513 74.4873 253 138 253Z" fill="url(#paint0_linear)"/>
<path d="M129.454 58.6046C117.023 59.0162 102.993 62.8773 89.3621 72.7516C75.2104 83.0034 69.0093 85.8129 62.1445 89.2205C68.2616 89.687 104.847 84.4691 111.32 105.964C85.3589 113.375 72.3915 129.731 83.4372 152.953C94.6055 176.432 113.902 176.977 137.727 192.914C156.328 205.355 160.877 211.687 172.879 228.932C170.384 205.105 158.857 174.397 153.466 160.865C174.275 173.312 184.84 176.104 213.855 179.142C176.208 152.343 169.057 147.106 147.507 128.739C133.05 129.468 134.638 129.342 126.113 129.831C137.336 145.669 141.766 168.929 121.245 173.198C102.036 177.194 83.5157 160.615 88.7833 142.857C94.5018 123.574 119.184 127.274 145.077 123.929C170.97 120.584 194.634 95.1912 208.865 76.396H208.858C184.575 84.6824 169.766 89.4991 133.782 99.5261C127.961 88.1834 120.427 66.6512 159.943 65.1492C152.716 61.228 141.887 58.1921 129.457 58.6036L129.454 58.6046Z" fill="white"/>
<defs>
<linearGradient id="paint0_linear" x1="138" y1="23" x2="138" y2="253" gradientUnits="userSpaceOnUse">
<stop stop-color="#0CB6FF"/>
<stop offset="1" stop-color="#127CB8"/>
</linearGradient>
</defs>
</svg>
