<svg width="275" height="276" viewBox="0 0 275 276" fill="none" xmlns="http://www.w3.org/2000/svg">
<path d="M138 255C202.617 255 255 202.617 255 138C255 73.3825 202.617 21 138 21C73.3827 21 21 73.3825 21 138C21 202.617 73.3827 255 138 255Z" fill="url(#paint0_linear)"/>
<path d="M162.023 109.5L183.023 130.5L207.523 106L186.523 85L162.023 109.5Z" fill="white"/>
<path d="M200.523 71L186.523 85M186.523 85L207.523 106L183.023 130.5L162.023 109.5M186.523 85L162.023 109.5M133.253 138.27C136.868 141.836 139.741 146.082 141.708 150.764C143.674 155.445 144.696 160.469 144.713 165.546C144.73 170.624 143.742 175.655 141.807 180.349C139.872 185.043 137.027 189.309 133.436 192.899C129.846 196.489 125.581 199.334 120.887 201.269C116.192 203.205 111.161 204.192 106.084 204.175C101.006 204.158 95.9822 203.137 91.3009 201.17C86.6197 199.204 82.3737 196.33 78.8074 192.716C71.7943 185.455 67.9137 175.73 68.0015 165.635C68.0892 155.54 72.1382 145.884 79.2764 138.746C86.4146 131.608 96.0709 127.559 106.165 127.471C116.26 127.383 125.985 131.264 133.246 138.277L133.253 138.27ZM133.253 138.27L162.023 109.5" stroke="white" stroke-width="20" stroke-linecap="round"/>
<defs>
<linearGradient id="paint0_linear" x1="138" y1="21" x2="138" y2="255" gradientUnits="userSpaceOnUse">
<stop stop-color="#40BAFF"/>
<stop offset="1" stop-color="#2190CF"/>
</linearGradient>
</defs>
</svg>
