<svg width="275" height="276" viewBox="0 0 275 276" fill="none" xmlns="http://www.w3.org/2000/svg">
<path d="M138 255C202.617 255 255 202.617 255 138C255 73.3825 202.617 21 138 21C73.3827 21 21 73.3825 21 138C21 202.617 73.3827 255 138 255Z" fill="url(#paint0_linear)"/>
<path d="M160.91 110.98L179.875 130.06L197 112.8L178.035 93.7201L160.91 110.98Z" fill="white"/>
<path d="M194.678 77L178.035 93.7201M178.035 93.7201L197 112.8L179.875 130.06L160.91 110.98M178.035 93.7201L160.91 110.98M133.929 138.12C137.193 141.36 139.787 145.218 141.564 149.471C143.34 153.725 144.262 158.289 144.277 162.903C144.293 167.516 143.401 172.087 141.653 176.352C139.905 180.617 137.336 184.492 134.094 187.755C130.852 191.017 127 193.601 122.76 195.36C118.521 197.118 113.978 198.015 109.393 198C104.807 197.984 100.27 197.056 96.0425 195.27C91.8149 193.483 87.9805 190.872 84.7599 187.588C78.4266 180.991 74.9221 172.155 75.0013 162.983C75.0805 153.811 78.7371 145.038 85.1834 138.552C91.6298 132.067 100.35 128.388 109.466 128.308C118.582 128.229 127.365 131.754 133.922 138.126L133.929 138.12ZM133.929 138.12L160.91 110.98" stroke="white" stroke-width="20" stroke-linecap="round"/>
<defs>
<linearGradient id="paint0_linear" x1="138" y1="21" x2="138" y2="255" gradientUnits="userSpaceOnUse">
<stop stop-color="#40BAFF"/>
<stop offset="1" stop-color="#2190CF"/>
</linearGradient>
</defs>
</svg>
