<svg width="64" height="64" viewBox="0 0 64 64" fill="none" xmlns="http://www.w3.org/2000/svg">
<g clip-path="url(#clip0)">
<path d="M32 60C47.464 60 60 47.464 60 32C60 16.536 47.464 4 32 4C16.536 4 4 16.536 4 32C4 47.464 16.536 60 32 60Z" fill="url(#paint0_linear)"/>
<path d="M42.9545 37.4909C26.275 52.7283 12.6328 38.1251 10.519 33.0664C11.769 41.8469 17.5467 49.7044 26.275 52.7283C32.8669 55.0121 43.3859 54.9591 48.1018 46.2585L42.9545 37.4909Z" fill="url(#paint1_linear)"/>
<path d="M36.0987 33.4607C31.825 37.5443 23.6029 31.0669 20.1325 26.9987C16.563 22.8144 3.23487 8.70206 2.26068 7.78679C1.28653 6.87156 0.510708 5.74129 1.3721 4.61674C2.26883 3.52156 3.50892 4.06568 4.58444 4.85292C5.66003 5.64019 21.8948 16.0829 26.6294 18.796C31.2327 21.4339 39.1186 28.3357 36.0987 33.4607V33.4607Z" fill="url(#paint2_linear)"/>
<path d="M42.8855 38.9249C41.5231 39.5639 41.6704 40.0258 40.4606 39.8265C39.6263 39.6891 32.3979 34.0782 32.3979 34.0782C32.0316 33.1778 32.471 31.94 33.2966 30.9603C34.0623 29.9309 35.1543 29.2351 36.0902 29.4164C36.0902 29.4164 42.9431 35.5014 43.2466 36.3091C43.6867 37.4802 43.2149 37.4278 42.8855 38.9249V38.9249Z" fill="#BFBFBF"/>
<path d="M43.2596 51.3368C48.6441 48.2179 50.2113 42.7848 48.0852 38.8097C46.433 35.7207 43.7202 35.1366 41.8464 36.6303C39.9877 38.112 39.8238 39.8776 40.3783 41.6311C41.509 45.2076 46.0567 47.6482 43.2596 51.3368Z" fill="#282828"/>
</g>
<defs>
<linearGradient id="paint0_linear" x1="32" y1="4" x2="32" y2="60" gradientUnits="userSpaceOnUse">
<stop stop-color="#FF1AFF"/>
<stop offset="0.65625" stop-color="#BDBDEB"/>
<stop offset="0.9999" stop-color="#A3FFE3"/>
<stop offset="1" stop-color="#91ECF2"/>
</linearGradient>
<linearGradient id="paint1_linear" x1="44.4211" y1="42.9456" x2="11.4806" y2="42.6912" gradientUnits="userSpaceOnUse">
<stop stop-color="#5596EA"/>
<stop offset="1" stop-color="#5596EA" stop-opacity="0"/>
</linearGradient>
<linearGradient id="paint2_linear" x1="1.3723" y1="4.61661" x2="37.4856" y2="33.2563" gradientUnits="userSpaceOnUse">
<stop stop-color="#343434"/>
<stop offset="1" stop-color="#4D4D4D"/>
</linearGradient>
<clipPath id="clip0">
<rect width="64" height="64" fill="white"/>
</clipPath>
</defs>
</svg>
