<svg width="275" height="275" viewBox="0 0 275 275" fill="none" xmlns="http://www.w3.org/2000/svg">
<path d="M138 254.076C202.617 254.076 255 201.883 255 137.5C255 73.1165 202.617 20.9238 138 20.9238C73.3827 20.9238 21 73.1165 21 137.5C21 201.883 73.3827 254.076 138 254.076Z" fill="url(#paint0_linear)"/>
<path d="M105 73.5478C105 66.4149 95.7412 63.6511 89.7319 67.4938C65.8394 82.772 52 107.536 52 138C52 185.496 90.5035 224 138 224C185.496 224 224 185.496 224 138C224 107.077 209.679 81.9657 185.182 66.8105C179.162 63.0864 170 65.8572 170 72.936V74.3777C170 78.0098 172.005 81.3064 175.011 83.3456C192.505 95.2157 204 115.265 204 138C204 174.45 174.451 204 138 204C101.549 204 72 174.45 72 138C72 115.636 83.1233 95.8695 100.139 83.9321C103.062 81.882 105 78.6311 105 75.0614V73.5478Z" fill="white"/>
<rect x="123" y="40" width="30" height="98" rx="15" fill="white"/>
<defs>
<linearGradient id="paint0_linear" x1="138" y1="20.9238" x2="138" y2="254.076" gradientUnits="userSpaceOnUse">
<stop stop-color="#FB4F4F"/>
<stop offset="1" stop-color="#9C0F42"/>
</linearGradient>
</defs>
</svg>
