<svg width="64" height="64" viewBox="0 0 64 64" fill="none" xmlns="http://www.w3.org/2000/svg">
<path d="M4 27.6977C4 23.4382 7.37825 20 11.6364 20H52.5288C56.6143 20 59.9999 23.2982 59.9999 27.3851L60 31.9909C60 47.4599 47.464 60 32.0001 60C16.5361 60 4.0001 47.4599 4.0001 31.9909L4.00013 31.9479L4 31.9131V27.6977Z" fill="url(#paint0_linear)"/>
<path fill-rule="evenodd" clip-rule="evenodd" d="M53 39.0833V10C53 7.23858 50.7614 5 48 5H16C13.2386 5 11 7.23857 11 10V39.0833C12.802 45.296 17.8514 54 32 54C46.1486 54 51.198 45.296 53 39.0833Z" fill="url(#paint1_linear)"/>
<path d="M31.0714 25.5C31.0714 26.7856 30.7174 28.0423 30.0542 29.1112C29.391 30.1801 28.4484 31.0132 27.3455 31.5052C26.2426 31.9972 25.029 32.1259 23.8582 31.8751C22.6874 31.6243 21.6119 31.0052 20.7678 30.0962C19.9237 29.1872 19.3489 28.029 19.116 26.7681C18.8831 25.5072 19.0026 24.2003 19.4594 23.0126C19.9163 21.8248 20.6899 20.8097 21.6825 20.0954C22.675 19.3812 23.842 19 25.0357 19L25.0357 25.5H31.0714Z" fill="#949090"/>
<line x1="35.7856" y1="22" x2="43.9999" y2="22" stroke="#949090" stroke-width="2" stroke-linecap="round"/>
<line x1="20" y1="36" x2="44" y2="36" stroke="#949090" stroke-width="2" stroke-linecap="round"/>
<line x1="35.7856" y1="29" x2="43.9999" y2="29" stroke="#949090" stroke-width="2" stroke-linecap="round"/>
<line x1="20" y1="43" x2="44" y2="43" stroke="#949090" stroke-width="2" stroke-linecap="round"/>
<defs>
<linearGradient id="paint0_linear" x1="32" y1="20" x2="32" y2="60" gradientUnits="userSpaceOnUse">
<stop stop-color="#F79D4B"/>
<stop offset="1" stop-color="#CF4936"/>
</linearGradient>
<linearGradient id="paint1_linear" x1="32" y1="5" x2="32" y2="54" gradientUnits="userSpaceOnUse">
<stop stop-color="white"/>
<stop offset="1" stop-color="#FFE3D0"/>
</linearGradient>
</defs>
</svg>
