<svg width="64" height="64" viewBox="0 0 64 64" fill="none" xmlns="http://www.w3.org/2000/svg">
<path d="M4 27.6977C4 23.4382 7.37825 20 11.6364 20H52.5288C56.6143 20 59.9999 23.2982 59.9999 27.3851L60 31.9909C60 47.4599 47.464 60 32.0001 60C16.5361 60 4.0001 47.4599 4.0001 31.9909L4.00013 31.9479L4 31.9131V27.6977Z" fill="url(#paint0_linear)"/>
<path fill-rule="evenodd" clip-rule="evenodd" d="M53 39.0833V10C53 7.23858 50.7614 5 48 5H16C13.2386 5 11 7.23857 11 10V39.0833C12.802 45.296 17.8514 54 32 54C46.1486 54 51.198 45.296 53 39.0833Z" fill="url(#paint1_linear)"/>
<path d="M21.2502 33.4437C20.6655 36.3164 20.9167 40.4434 24.076 42.5439C28.2587 45.3249 33.7457 43.9641 36.1586 39.8076C38.6201 35.5674 39.3742 27.0694 32.6508 27.0694C25.1479 27.0694 25.7325 37.2599 32.6508 37.2599C37.9762 37.2599 44 34.4699 44 28.2391C44 22.0083 39.5691 19 32.6508 19" stroke="#949090" stroke-width="2" stroke-linecap="round" stroke-linejoin="round"/>
<defs>
<linearGradient id="paint0_linear" x1="32" y1="20" x2="32" y2="60" gradientUnits="userSpaceOnUse">
<stop stop-color="#FFDF55"/>
<stop offset="1" stop-color="#FF9900"/>
</linearGradient>
<linearGradient id="paint1_linear" x1="32" y1="5" x2="32" y2="54" gradientUnits="userSpaceOnUse">
<stop stop-color="white"/>
<stop offset="1" stop-color="#FFF9E1"/>
</linearGradient>
</defs>
</svg>
