<svg width="64" height="64" viewBox="0 0 64 64" fill="none" xmlns="http://www.w3.org/2000/svg">
<path d="M4 12.6977C4 8.43818 7.37825 5 11.6364 5H52.5288C56.6143 5 59.9999 8.29822 59.9999 12.3851L60 31.9909C60 47.4599 47.464 60 32.0001 60C16.5361 60 4.0001 47.4599 4.0001 31.9909L4.00013 31.9479L4 31.9131V12.6977Z" fill="url(#paint0_linear)"/>
<path fill-rule="evenodd" clip-rule="evenodd" d="M53 38.0833V16C53 13.2386 50.7614 11 48 11H16C13.2386 11 11 13.2386 11 16V38.0833C12.802 44.296 17.8514 53 32 53C46.1486 53 51.198 44.296 53 38.0833Z" fill="url(#paint1_linear)"/>
<path d="M43.5745 20.92C43.5745 22.9625 38.5211 24.6183 32.2873 24.6183C26.0535 24.6183 21 22.9625 21 20.92M43.5745 20.92C43.5745 18.8775 38.5211 17.2217 32.2873 17.2217C26.0535 17.2217 21 18.8775 21 20.92M43.5745 20.92V38.3817C43.5745 40.4521 38.558 42.1235 32.2873 42.1235C26.0166 42.1235 21 40.4521 21 38.3817V20.92M43.5745 29.5493C43.5745 31.7321 38.558 33.4941 32.2873 33.4941C26.0166 33.4941 21 31.7321 21 29.5493" stroke="#555555" stroke-width="2" stroke-linecap="round" stroke-linejoin="round"/>
<defs>
<linearGradient id="paint0_linear" x1="25.5052" y1="20" x2="25.5052" y2="60" gradientUnits="userSpaceOnUse">
<stop stop-color="#DF4B7D"/>
<stop offset="1" stop-color="#9C0F42"/>
</linearGradient>
<linearGradient id="paint1_linear" x1="32" y1="5" x2="32" y2="54" gradientUnits="userSpaceOnUse">
<stop stop-color="white"/>
<stop offset="1" stop-color="#FFE2FF"/>
</linearGradient>
</defs>
</svg>
