<svg width="64" height="64" viewBox="0 0 64 64" fill="none" xmlns="http://www.w3.org/2000/svg">
<path d="M4 12.6977C4 8.43818 7.37825 5 11.6364 5H52.5288C56.6143 5 59.9999 8.29822 59.9999 12.3851L60 31.9909C60 47.4599 47.464 60 32.0001 60C16.5361 60 4.0001 47.4599 4.0001 31.9909L4.00013 31.9479L4 31.9131V12.6977Z" fill="url(#paint0_linear)"/>
<path fill-rule="evenodd" clip-rule="evenodd" d="M53 39.0833V16C53 13.2386 50.7614 11 48 11H16C13.2386 11 11 13.2386 11 16V39.0833C12.802 45.296 17.8514 54 32 54C46.1486 54 51.198 45.296 53 39.0833Z" fill="url(#paint1_linear)"/>
<line x1="20" y1="21" x2="44" y2="21" stroke="#555555" stroke-width="2" stroke-linecap="round"/>
<line x1="20" y1="35" x2="44" y2="35" stroke="#555555" stroke-width="2" stroke-linecap="round"/>
<line x1="20" y1="28" x2="44" y2="28" stroke="#555555" stroke-width="2" stroke-linecap="round"/>
<line x1="20" y1="42" x2="44" y2="42" stroke="#555555" stroke-width="2" stroke-linecap="round"/>
<defs>
<linearGradient id="paint0_linear" x1="31.5875" y1="20" x2="31.5875" y2="59.9998" gradientUnits="userSpaceOnUse">
<stop stop-color="#2190CF"/>
<stop offset="1" stop-color="#445AA9"/>
</linearGradient>
<linearGradient id="paint1_linear" x1="32" y1="5" x2="32" y2="54" gradientUnits="userSpaceOnUse">
<stop stop-color="white"/>
<stop offset="1" stop-color="#CDEDFF"/>
</linearGradient>
</defs>
</svg>
