<svg width="64" height="64" viewBox="0 0 64 64" fill="none" xmlns="http://www.w3.org/2000/svg">
<path d="M4 12.6977C4 8.43818 7.37825 5 11.6364 5H52.5288C56.6143 5 59.9999 8.29822 59.9999 12.3851L60 31.9909C60 47.4599 47.464 60 32.0001 60C16.5361 60 4.0001 47.4599 4.0001 31.9909L4.00013 31.9479L4 31.9131V12.6977Z" fill="url(#paint0_linear)"/>
<path fill-rule="evenodd" clip-rule="evenodd" d="M53 39.0833V16C53 13.2386 50.7614 11 48 11H16C13.2386 11 11 13.2386 11 16V39.0833C12.802 45.296 17.8514 54 32 54C46.1486 54 51.198 45.296 53 39.0833Z" fill="url(#paint1_linear)"/>
<path d="M32 24.5C32 25.7856 31.6188 27.0423 30.9046 28.1112C30.1903 29.1801 29.1752 30.0132 27.9874 30.5052C26.7997 30.9972 25.4928 31.1259 24.2319 30.8751C22.971 30.6243 21.8128 30.0052 20.9038 29.0962C19.9948 28.1872 19.3757 27.029 19.1249 25.7681C18.8741 24.5072 19.0028 23.2003 19.4948 22.0126C19.9868 20.8248 20.8199 19.8097 21.8888 19.0954C22.9577 18.3812 24.2144 18 25.5 18L25.5 24.5H32Z" fill="#555555"/>
<line x1="35.7856" y1="21" x2="43.9999" y2="21" stroke="#555555" stroke-width="2" stroke-linecap="round"/>
<line x1="20" y1="35" x2="44" y2="35" stroke="#555555" stroke-width="2" stroke-linecap="round"/>
<line x1="35.7856" y1="28" x2="43.9999" y2="28" stroke="#555555" stroke-width="2" stroke-linecap="round"/>
<line x1="20" y1="42" x2="44" y2="42" stroke="#555555" stroke-width="2" stroke-linecap="round"/>
<defs>
<linearGradient id="paint0_linear" x1="32" y1="5" x2="32" y2="60" gradientUnits="userSpaceOnUse">
<stop stop-color="#F79D4B"/>
<stop offset="1" stop-color="#CF4936"/>
</linearGradient>
<linearGradient id="paint1_linear" x1="32" y1="5" x2="32" y2="54" gradientUnits="userSpaceOnUse">
<stop stop-color="white"/>
<stop offset="1" stop-color="#FFE3D0"/>
</linearGradient>
</defs>
</svg>
