<svg width="275" height="276" viewBox="0 0 275 276" fill="none" xmlns="http://www.w3.org/2000/svg">
<path d="M198.602 66.2278L198.357 75.0876L133.086 80.2752L83.8991 112.538L72.2441 166.469C72.2441 166.469 80.1673 201.327 86.9282 208.393C93.6891 215.458 107.67 235.723 124.922 239.256C142.174 242.789 156.862 246.782 170.85 243.249C184.838 239.716 194.174 235.482 194.174 235.482L200.001 232.655C200.001 232.655 198.567 233.924 196.266 235.555C224.102 217.526 242.539 185.988 242.539 150.104C242.539 115.235 225.128 84.4815 198.602 66.2278V66.2278Z" fill="url(#paint0_radial)"/>
<path d="M183.806 33.8212C183.806 33.8212 186.266 27.691 188.562 27.5253C190.858 27.3596 192.17 28.8508 193.646 30.5076C195.122 32.1644 198.074 34.6496 198.074 34.6496C198.074 34.6496 211.522 30.0105 226.611 38.2945C241.699 46.5785 243.831 49.0637 246.783 54.8625C249.735 60.6613 248.423 75.2411 248.423 75.2411L250.186 83.9393L246.455 88.8269L220.215 84.3535L188.89 60.9927L183.806 33.8212Z" fill="url(#paint1_linear)"/>
<path d="M135.778 22C72.9407 22 22 73.4619 22 136.942C22 200.422 73.1743 253.635 135.778 253.642C176.621 254.868 214.508 235.655 226.997 204.355C222.389 206.503 217.32 211.677 213.499 215.064C206.293 221.45 198.475 222.744 188.537 227.974C169.273 238.11 148.439 236.764 129.003 232.45C113.205 228.943 95.8773 221.139 86.579 208.655C77.2807 196.17 71.8223 166.523 71.8223 166.523L83.5349 112.325L132.966 79.9031L198.559 74.6897L198.806 65.7861C208.708 72.6001 217.343 81.1545 224.29 91.0033H240.09C222.54 50.3926 182.445 22 135.778 22V22Z" fill="url(#paint2_linear)"/>
<path d="M178.454 56.4285C156.42 56.5421 143.588 59.1223 120.723 68.984C91.7167 82.6157 62.5934 108.14 62.4294 149.859C62.2383 198.477 101.452 237.885 149.578 237.885C174.447 237.885 201.227 228.707 217.102 211.829C200.018 226.281 171.861 230.859 158.567 230.862C117.035 230.862 83.086 199.65 83.086 157.693C83.086 131.184 95.9482 111.655 116.905 98.9991C124.208 94.5885 139.717 89.5721 161.233 92.8486C172.145 94.5102 181.082 96.8881 194.864 101.328C210.858 106.48 219.768 113.677 232.074 115.108C246.09 116.737 260.896 103.394 249.962 82.6416C249.962 82.6416 247.98 84.6394 246.324 85.6436C244.667 86.6478 242.354 85.3214 235.727 82.9784C229.101 80.6353 228.103 77.945 218.825 71.5852C209.548 65.2254 209.552 58.2046 182.383 56.531C181.109 56.4525 179.792 56.4149 178.454 56.4285V56.4285Z" fill="url(#paint3_linear)"/>
<path d="M216.262 80.2168C221.008 80.2168 224.855 76.3299 224.855 71.5352C224.855 66.7404 221.008 62.8535 216.262 62.8535C211.515 62.8535 207.668 66.7404 207.668 71.5352C207.668 76.3299 211.515 80.2168 216.262 80.2168Z" fill="#3F3F3F"/>
<path d="M248.051 83.2351C250.511 83.2351 252.505 80.7286 252.505 77.6368C252.505 74.545 250.511 72.0386 248.051 72.0386C245.59 72.0386 243.596 74.545 243.596 77.6368C243.596 80.7286 245.59 83.2351 248.051 83.2351Z" fill="#3F3F3F"/>
<path d="M102.652 78.0801C97.0525 79.4576 83.4075 82.8053 75.3007 93.9201C67.5148 104.595 68.1466 117.041 67.9731 120.355C70.2279 116.689 76.4004 117.209 80.656 117.874C90.6902 119.442 100.98 122.141 107.413 132.581C107.955 133.37 108.34 134.282 108.944 135.029C111.919 138.706 115.134 139.65 118.373 139.8C125.295 140.004 128.563 134.784 128.871 127.766C128.88 127.215 128.873 127.479 128.835 126.997C128.606 122.11 121.18 103.467 108.931 102.893C108.795 102.889 108.656 102.89 108.521 102.881C101.726 102.462 96.4458 96.615 96.6437 89.6364C97.3259 85.1152 99.4152 81.5398 103.515 78.6383L102.652 78.0801Z" fill="url(#paint4_linear)"/>
<path d="M245.79 85.8657C245.79 85.8657 244.674 87.8135 242.268 88.9808C241.28 89.4601 239.545 88.2577 237.917 89.9291C234.459 96.9405 242.905 102.794 246.841 102.629C250.778 102.463 253.883 98.4565 253.719 94.9773C253.555 89.5927 245.79 85.8657 245.79 85.8657Z" fill="#3F3F3F"/>
<defs>
<radialGradient id="paint0_radial" cx="0" cy="0" r="1" gradientUnits="userSpaceOnUse" gradientTransform="translate(138.242 144.666) rotate(0.651362) scale(107.955 121.319)">
<stop stop-color="#FFBA00"/>
<stop offset="1" stop-color="#FF7F02"/>
</radialGradient>
<linearGradient id="paint1_linear" x1="100.395" y1="65.4035" x2="100.395" y2="236.216" gradientUnits="userSpaceOnUse">
<stop stop-color="#794D3B"/>
<stop offset="1" stop-color="#5E3C2E"/>
</linearGradient>
<linearGradient id="paint2_linear" x1="100.395" y1="65.4033" x2="100.395" y2="236.216" gradientUnits="userSpaceOnUse">
<stop stop-color="#794D3B"/>
<stop offset="1" stop-color="#5E3C2E"/>
</linearGradient>
<linearGradient id="paint3_linear" x1="141.268" y1="151.648" x2="141.268" y2="78.4545" gradientUnits="userSpaceOnUse">
<stop stop-color="#E5DFDD"/>
<stop offset="1" stop-color="white"/>
</linearGradient>
<linearGradient id="paint4_linear" x1="100.395" y1="65.4032" x2="100.395" y2="236.216" gradientUnits="userSpaceOnUse">
<stop stop-color="#794D3B"/>
<stop offset="1" stop-color="#5E3C2E"/>
</linearGradient>
</defs>
</svg>
