<svg width="275" height="276" viewBox="0 0 275 276" fill="none" xmlns="http://www.w3.org/2000/svg">
<path d="M50 117H226V181C226 225.183 190.183 261 146 261H130C85.8172 261 50 225.183 50 181V117Z" fill="url(#paint0_linear)"/>
<path d="M50 94C50 49.8172 85.8172 14 130 14H146C190.183 14 226 49.8172 226 94V126H50V94Z" fill="url(#paint1_linear)"/>
<path d="M138 14H146C190.183 14 226 49.8172 226 94V126H138V14Z" fill="url(#paint2_linear)"/>
<rect x="150" y="50" width="47" height="24" rx="12" transform="rotate(90 150 50)" fill="url(#paint3_linear)"/>
<defs>
<linearGradient id="paint0_linear" x1="138" y1="117" x2="138" y2="261" gradientUnits="userSpaceOnUse">
<stop stop-color="#949090"/>
<stop offset="1" stop-color="#696969"/>
</linearGradient>
<linearGradient id="paint1_linear" x1="138" y1="14" x2="138" y2="126" gradientUnits="userSpaceOnUse">
<stop stop-color="#4B4B4B"/>
<stop offset="1" stop-color="#383838"/>
</linearGradient>
<linearGradient id="paint2_linear" x1="182" y1="14" x2="182" y2="126" gradientUnits="userSpaceOnUse">
<stop stop-color="#696969"/>
<stop offset="1" stop-color="#4B4B4B"/>
</linearGradient>
<linearGradient id="paint3_linear" x1="152.5" y1="62" x2="197" y2="62" gradientUnits="userSpaceOnUse">
<stop stop-color="#40BAFF"/>
<stop offset="1" stop-color="#127CB8"/>
</linearGradient>
</defs>
</svg>
