<svg width="275" height="276" viewBox="0 0 275 276" fill="none" xmlns="http://www.w3.org/2000/svg">
<path d="M138 255C202.617 255 255 202.617 255 138C255 73.3825 202.617 21 138 21C73.3827 21 21 73.3825 21 138C21 202.617 73.3827 255 138 255Z" fill="url(#paint0_linear)"/>
<path d="M97.9958 73.9226C96.9888 74.455 95.7374 74.0782 95.0905 73.1406C92.1142 68.827 87.1372 66 81.5 66C72.3873 66 65 73.3873 65 82.5C65 88.1372 67.827 93.1142 72.1406 96.0905C73.0782 96.7374 73.455 97.9888 72.9226 98.9958C68.5027 107.356 66 116.886 66 127V151C66 160.833 68.3652 170.113 72.5578 178.303C73.0609 179.286 72.7071 180.492 71.8138 181.141C67.6847 184.14 65 189.006 65 194.5C65 203.613 72.3873 211 81.5 211C86.8594 211 91.6219 208.445 94.636 204.486C95.3049 203.608 96.5189 203.281 97.49 203.807C105.97 208.395 115.681 211 126 211H150C160.045 211 169.513 208.532 177.832 204.168C178.779 203.671 179.949 203.976 180.618 204.811C183.641 208.584 188.289 211 193.5 211C202.613 211 210 203.613 210 194.5C210 189.289 207.584 184.641 203.811 181.618C202.976 180.949 202.671 179.779 203.168 178.832C207.532 170.513 210 161.045 210 151V127C210 116.681 207.395 106.97 202.807 98.49C202.281 97.5189 202.608 96.3049 203.486 95.636C207.445 92.6219 210 87.8594 210 82.5C210 73.3873 202.613 66 193.5 66C188.006 66 183.14 68.6847 180.141 72.8138C179.492 73.7071 178.286 74.0609 177.303 73.5578C169.113 69.3652 159.833 67 150 67H126C115.886 67 106.356 69.5027 97.9958 73.9226Z" fill="#C4C4C4"/>
<circle cx="138" cy="139" r="58" fill="#696969"/>
<circle cx="138" cy="139" r="25" fill="#252525"/>
<circle cx="146" cy="132" r="8" fill="white"/>
<defs>
<linearGradient id="paint0_linear" x1="138" y1="21" x2="138" y2="255" gradientUnits="userSpaceOnUse">
<stop stop-color="#696969"/>
<stop offset="1" stop-color="#383838"/>
</linearGradient>
</defs>
</svg>
