<svg width="275" height="276" viewBox="0 0 275 276" fill="none" xmlns="http://www.w3.org/2000/svg">
<path d="M138 255C202.617 255 255 202.617 255 138C255 73.3825 202.617 21 138 21C73.3827 21 21 73.3825 21 138C21 202.617 73.3827 255 138 255Z" fill="url(#paint0_linear)"/>
<path fill-rule="evenodd" clip-rule="evenodd" d="M233.291 205.904C212.074 235.624 177.3 255 138 255C76.9121 255 26.7587 208.183 21.4624 148.472C30.4618 146.993 39.8556 146.486 49.2494 147.615C70.8605 150.212 92.4716 161.465 114.083 172.719C124.888 178.345 135.694 183.972 146.499 188.517C175.43 200.684 204.36 205.095 233.291 205.904Z" fill="url(#paint1_linear)" fill-opacity="0.5"/>
<path fill-rule="evenodd" clip-rule="evenodd" d="M254.998 138.743C254.598 203.018 202.37 255 138 255C91.7151 255 51.7073 228.124 32.7319 189.126C36.1875 190.748 39.7538 191.53 43.3201 190.786C48.5833 189.706 54.5838 186.825 60.7818 183.85C71.8869 178.52 83.6259 172.885 92.8934 176.755C99.4546 179.495 103.538 182.165 107.396 184.688C112.028 187.716 116.335 190.532 124.213 193C138.653 197.523 159.347 189.878 173.787 177.816L173.787 177.816C188.227 165.755 202.667 153.694 217.107 146.156C229.681 139.591 242.256 136.457 254.998 138.743Z" fill="url(#paint2_linear)" fill-opacity="0.5"/>
<path d="M138.769 224C150.538 224 150.538 212.226 150.538 212.226C150.538 212.226 150.538 200.451 138.769 200.451C127 200.451 127 212.226 127 212.226C127 212.226 127 224 138.769 224Z" fill="#042A3F"/>
<path d="M212 138H150.538V157.188H212V138Z" fill="#042A3F"/>
<path d="M212 212.226C212 212.226 212 200.451 200.231 200.451C188.462 200.451 188.462 212.226 188.462 212.226C188.462 212.226 188.462 224 200.231 224C212 224 212 212.226 212 212.226Z" fill="#042A3F"/>
<path d="M150.538 212.226C150.538 212.226 150.538 224 138.769 224C127 224 127 212.226 127 212.226C127 212.226 127 200.451 138.769 200.451C150.538 200.451 150.538 212.226 150.538 212.226ZM150.538 212.226V157.188M212 212.226C212 212.226 212 200.451 200.231 200.451C188.462 200.451 188.462 212.226 188.462 212.226C188.462 212.226 188.462 224 200.231 224C212 224 212 212.226 212 212.226ZM212 212.226V157.188M150.538 157.188V138H212V157.188M150.538 157.188H212" stroke="#042A3F" stroke-width="10" stroke-linecap="round" stroke-linejoin="round"/>
<path d="M144 117.5L77 72V163L144 117.5Z" fill="white"/>
<defs>
<linearGradient id="paint0_linear" x1="138" y1="21" x2="138" y2="255" gradientUnits="userSpaceOnUse">
<stop stop-color="#FFDF55"/>
<stop offset="1" stop-color="#E04D30"/>
</linearGradient>
<linearGradient id="paint1_linear" x1="127.376" y1="147" x2="127.376" y2="255" gradientUnits="userSpaceOnUse">
<stop offset="0.078125" stop-color="#9C0F42"/>
<stop offset="0.458333" stop-color="#9C0F42" stop-opacity="0.58"/>
<stop offset="0.755208" stop-color="#9C0F42" stop-opacity="0.172885"/>
<stop offset="1" stop-color="#9C0F42" stop-opacity="0"/>
</linearGradient>
<linearGradient id="paint2_linear" x1="143.865" y1="138" x2="143.865" y2="255" gradientUnits="userSpaceOnUse">
<stop offset="0.078125" stop-color="#9C0F42"/>
<stop offset="0.458333" stop-color="#9C0F42" stop-opacity="0.58"/>
<stop offset="0.755208" stop-color="#9C0F42" stop-opacity="0.172885"/>
<stop offset="1" stop-color="#9C0F42" stop-opacity="0"/>
</linearGradient>
</defs>
</svg>
