<svg width="64" height="64" viewBox="0 0 64 64" fill="none" xmlns="http://www.w3.org/2000/svg">
<path d="M32 60C47.464 60 60 47.464 60 32C60 16.536 47.464 4 32 4C16.536 4 4 16.536 4 32C4 47.464 16.536 60 32 60Z" fill="url(#paint0_linear)"/>
<path fill-rule="evenodd" clip-rule="evenodd" d="M28.2507 58.7418C29.4761 58.912 30.7278 59 32 59C46.9117 59 59 46.9117 59 32C59 17.0883 46.9117 5 32 5C30.7278 5 29.4761 5.08799 28.2507 5.25823V21.9804L28.6475 21.9709C37.3595 21.9142 43.01 29.4923 43.01 29.4923C43.01 29.4923 36.3154 37.8169 29.3373 37.8169C28.9594 37.8169 28.6003 37.798 28.2507 37.7602V35.9507C28.2507 36.2236 28.6841 36.1665 29.0852 36.1136C29.2396 36.0933 29.3892 36.0736 29.5074 36.0736C34.3925 36.0736 38.9564 29.5915 38.9564 29.5915C38.9564 29.5915 34.676 23.7331 28.2507 23.9268V21.9851C28.0145 21.9946 27.8349 22.004 27.6034 22.0229C19.7324 22.6654 12.9197 29.4876 12.9197 29.4876C12.9197 29.4876 16.7796 40.9114 27.6034 41.9556C27.8397 41.9792 28.0097 41.9934 28.2507 42.0028V39.9523C28.5058 39.9712 28.7704 39.976 29.035 39.976C35.5264 39.976 40.2273 36.5886 44.7675 32.5775C45.1016 32.8489 45.8905 33.2938 46.7217 33.7624C47.7713 34.3543 48.8883 34.9842 49.2417 35.3507C44.9187 39.0547 34.8461 42.0359 29.1342 42.0359C28.8318 42.0359 28.5389 42.0264 28.2507 42.0075V58.7418ZM28.2507 26.3175V23.9316C28.0861 23.9349 27.9467 23.945 27.8006 23.9557C27.737 23.9603 27.6722 23.965 27.6034 23.9693C20.4978 24.5221 16.945 29.8986 16.945 29.8986C16.945 29.8986 19.6615 38.8563 27.6034 39.8815C27.6598 39.8884 27.7128 39.8953 27.7642 39.902C27.9239 39.9228 28.0684 39.9416 28.2507 39.9523V37.7602C28.0097 37.7318 27.8349 37.7035 27.6034 37.6562C21.5986 36.5649 19.9356 30.1773 19.9356 30.1773C19.9356 30.1773 22.8175 26.908 27.6034 26.3789C27.6649 26.3726 27.7227 26.3663 27.7789 26.3602C27.9343 26.3434 28.0772 26.3279 28.2507 26.3175ZM28.2507 26.3175V28.5805C30.0864 29.0041 30.7188 30.0865 31.9685 32.2257C32.015 32.3053 32.0623 32.3863 32.1106 32.4688L35.465 29.5774C35.465 29.5774 33.0177 26.2938 28.8979 26.2938C28.7183 26.2938 28.4884 26.3054 28.3063 26.3147C28.2872 26.3156 28.2686 26.3166 28.2507 26.3175ZM28.2507 35.9507C28.0322 35.9087 27.866 35.8517 27.6757 35.7864C27.652 35.7783 27.628 35.7701 27.6034 35.7617C24.2207 34.5995 23.1199 30.5506 23.1199 30.5506C23.1199 30.5506 25.0805 28.1458 27.594 28.4529H27.6034C27.8122 28.4795 27.96 28.5153 28.1253 28.5553C28.1657 28.565 28.2071 28.5751 28.2507 28.5853V35.9507Z" fill="#4BD239"/>
<defs>
<linearGradient id="paint0_linear" x1="32" y1="4" x2="32" y2="60" gradientUnits="userSpaceOnUse">
<stop stop-color="#383838"/>
<stop offset="1" stop-color="#222222"/>
</linearGradient>
</defs>
</svg>
