<svg width="64" height="64" viewBox="0 0 64 64" fill="none" xmlns="http://www.w3.org/2000/svg">
<path d="M53 7C56.3137 7 59 9.68629 59 13V28.4274C59 28.4274 59 28.4274 59 28.4274C59 28.4275 59 56 31.5 56C4 56 4 28.4274 4 28.4274C4 28.4274 4 28.4274 4 28.4274V13C4 9.68629 6.68629 7 10 7H31.5H53Z" fill="url(#paint0_linear)"/>
<path d="M51 11C53.2091 11 55 12.7909 55 15V28.9291C55 28.9291 55 28.9291 55 28.9291C55 28.9291 55 52 31.5 52C8 52 8 28.9291 8 28.9291C8 28.9291 8 28.9291 8 28.9291V15C8 12.7909 9.79086 11 12 11H31.5H51Z" fill="url(#paint1_linear)"/>
<rect x="19" y="3" width="26" height="13" rx="6.5" fill="url(#paint2_linear)"/>
<line x1="16" y1="23" x2="31" y2="23" stroke="#282828" stroke-width="4" stroke-linecap="round"/>
<line x1="22" y1="27" x2="30" y2="27" stroke="#949090" stroke-width="2" stroke-linecap="round"/>
<line x1="17" y1="27" x2="18" y2="27" stroke="#949090" stroke-width="2" stroke-linecap="round"/>
<line x1="16" y1="34" x2="31" y2="34" stroke="#282828" stroke-width="4" stroke-linecap="round"/>
<line x1="22" y1="38" x2="30" y2="38" stroke="#949090" stroke-width="2" stroke-linecap="round"/>
<line x1="17" y1="38" x2="18" y2="38" stroke="#949090" stroke-width="2" stroke-linecap="round"/>
<path d="M38 23.2715L42 27.2715L49.2715 20" stroke="#259D47" stroke-width="3"/>
<defs>
<linearGradient id="paint0_linear" x1="31.5" y1="7" x2="31.5" y2="56" gradientUnits="userSpaceOnUse">
<stop stop-color="#2D9CF2"/>
<stop offset="1" stop-color="#127CB8"/>
</linearGradient>
<linearGradient id="paint1_linear" x1="31.5" y1="14.3469" x2="31.5" y2="52" gradientUnits="userSpaceOnUse">
<stop stop-color="white"/>
<stop offset="1" stop-color="#EDEDED"/>
</linearGradient>
<linearGradient id="paint2_linear" x1="32" y1="3" x2="32" y2="16" gradientUnits="userSpaceOnUse">
<stop stop-color="#C4C4C4"/>
<stop offset="1" stop-color="#949090"/>
</linearGradient>
</defs>
</svg>
