<svg width="275" height="276" viewBox="0 0 275 276" fill="none" xmlns="http://www.w3.org/2000/svg">
<path d="M18 88.5772C18 88.5772 18 88.5772 18 88.5772V41C18 29.9543 26.9543 21 38 21H237C248.046 21 257 29.9543 257 41V88.5772C257 88.5772 257 88.5772 257 88.5772C257 88.5774 257 153 137.5 153C18 153 18 88.5772 18 88.5772Z" fill="#319135"/>
<path d="M18 140.535C18 140.535 18 140.535 18 140.535V41.5C18 30.4543 26.9543 21.5 38 21.5H53.1216C56.167 21.5 59.1356 22.1692 61.7607 23.7129C77.9345 33.2232 137.5 74.1443 137.5 161C137.5 74.1443 197.065 33.2232 213.239 23.7129C215.864 22.1692 218.833 21.5 221.878 21.5H237C248.046 21.5 257 30.4543 257 41.5V140.535C257 140.535 257 140.535 257 140.535C257 140.535 257 254.013 137.5 254.013C18 254.013 18 140.535 18 140.535Z" fill="url(#paint0_linear)"/>
<path fill-rule="evenodd" clip-rule="evenodd" d="M87.9019 245.888C85.5664 245.02 83.309 244.092 81.127 243.11V196.376H87.3159L87.6455 200.771C90.4043 197.353 94.2373 195.644 99.1445 195.644C103.905 195.644 107.665 197.438 110.424 201.027C113.207 204.616 114.599 209.608 114.599 216.005V216.627C114.599 222.658 113.219 227.516 110.46 231.203C107.702 234.889 103.966 236.732 99.2544 236.732C94.4448 236.732 90.6606 235.207 87.9019 232.155V245.888ZM104.967 205.275C106.872 207.863 107.824 211.391 107.824 215.858C107.824 220.937 106.859 224.77 104.931 227.357C103.026 229.921 100.451 231.203 97.2036 231.203C93.0288 231.203 89.9282 229.396 87.9019 225.783V206.85C89.9526 203.212 93.0288 201.393 97.1304 201.393C100.451 201.393 103.063 202.687 104.967 205.275Z" fill="#113E11"/>
<path fill-rule="evenodd" clip-rule="evenodd" d="M126.574 231.459C129.943 234.975 134.313 236.732 139.684 236.732C146.325 236.732 151.305 234.181 154.625 229.079L150.487 225.856C149.242 227.467 147.79 228.761 146.129 229.738C144.469 230.714 142.443 231.203 140.05 231.203C136.681 231.203 133.898 230.006 131.701 227.614C129.528 225.197 128.393 222.035 128.295 218.129H155.138V215.309C155.138 208.986 153.71 204.127 150.854 200.734C147.997 197.34 143.993 195.644 138.842 195.644C135.692 195.644 132.763 196.522 130.053 198.28C127.367 200.014 125.268 202.431 123.754 205.531C122.265 208.607 121.52 212.111 121.52 216.042V217.287C121.52 223.195 123.205 227.919 126.574 231.459ZM131.957 204.213C133.812 202.211 136.107 201.21 138.842 201.21C141.674 201.21 143.92 202.162 145.58 204.066C147.24 205.946 148.168 208.607 148.363 212.05V212.562H128.515C128.954 208.974 130.102 206.19 131.957 204.213Z" fill="#113E11"/>
<path fill-rule="evenodd" clip-rule="evenodd" d="M186.522 231.825C186.767 233.827 187.084 235.219 187.475 236H194.579V235.414C193.651 233.266 193.188 230.373 193.188 226.735V208.498C193.09 204.494 191.747 201.356 189.159 199.086C186.571 196.791 182.995 195.644 178.429 195.644C175.548 195.644 172.899 196.181 170.482 197.255C168.09 198.329 166.186 199.794 164.77 201.649C163.378 203.48 162.682 205.385 162.682 207.362H169.494C169.494 205.629 170.312 204.152 171.947 202.931C173.583 201.71 175.609 201.1 178.026 201.1C180.785 201.1 182.873 201.808 184.289 203.224C185.705 204.616 186.413 206.496 186.413 208.864V211.977H179.821C174.132 211.977 169.713 213.124 166.564 215.419C163.439 217.689 161.876 220.888 161.876 225.014C161.876 228.407 163.122 231.215 165.612 233.437C168.126 235.634 171.337 236.732 175.243 236.732C179.613 236.732 183.373 235.097 186.522 231.825ZM182.274 229.188C180.37 230.287 178.356 230.836 176.232 230.836C174.01 230.836 172.191 230.238 170.775 229.042C169.359 227.846 168.651 226.186 168.651 224.062C168.651 219.203 172.802 216.774 181.103 216.774H186.413V224.904C185.558 226.662 184.179 228.09 182.274 229.188Z" fill="#113E11"/>
<path fill-rule="evenodd" clip-rule="evenodd" d="M127 145C124.239 145 122 147.239 122 150V184C122 186.761 124.239 189 127 189H149C151.761 189 154 186.761 154 184V150C154 147.239 151.761 145 149 145H127ZM134 168C131.239 168 129 170.239 129 173V176C129 178.761 131.239 181 134 181H142C144.761 181 147 178.761 147 176V173C147 170.239 144.761 168 142 168H134Z" fill="white"/>
<path d="M92 54.603L101.284 47.0001L108.887 56.2842L99.603 63.8871L92 54.603Z" fill="white"/>
<path d="M75 39.0493L82.8808 29.9999L91.9303 37.8807L84.0494 46.9301L75 39.0493Z" fill="white"/>
<path d="M123.238 116.874L135.126 115.238L136.762 127.126L124.874 128.762L123.238 116.874Z" fill="white"/>
<path d="M118 93.5352L129.467 89.9998L133.003 101.467L121.535 105.003L118 93.5352Z" fill="white"/>
<path d="M184.485 37L192.971 45.4853L184.485 53.9706L176 45.4853L184.485 37Z" fill="white"/>
<path d="M202.695 22.0864L209.884 31.6945L200.276 38.8837L193.087 29.2757L202.695 22.0864Z" fill="white"/>
<path d="M143.068 102.48L154.52 106.068L150.932 117.519L139.481 113.932L143.068 102.48Z" fill="white"/>
<path d="M152.277 78L163.489 82.2771L159.212 93.489L148 89.2119L152.277 78Z" fill="white"/>
<path d="M166.597 56.4824L176.109 63.798L169.403 72.5175L159.891 65.2019L166.597 56.4824Z" fill="white"/>
<path d="M136 128H148V139H136V128Z" fill="white"/>
<path d="M107 73L117.392 67L123.392 77.3923L113 83.3923L107 73Z" fill="white"/>
<defs>
<linearGradient id="paint0_linear" x1="137.5" y1="21.5" x2="137.5" y2="254.013" gradientUnits="userSpaceOnUse">
<stop stop-color="#6FD16F"/>
<stop offset="1" stop-color="#27854C"/>
</linearGradient>
</defs>
</svg>
