<svg width="275" height="276" viewBox="0 0 275 276" fill="none" xmlns="http://www.w3.org/2000/svg">
<path d="M138 255C202.617 255 255 202.617 255 138C255 73.3825 202.617 21 138 21C73.3827 21 21 73.3825 21 138C21 202.617 73.3827 255 138 255Z" fill="url(#paint0_linear)"/>
<path fill-rule="evenodd" clip-rule="evenodd" d="M233.291 205.904C212.074 235.624 177.3 255 138.001 255C76.9126 255 26.7592 208.183 21.4629 148.472C30.4623 146.993 39.8561 146.486 49.2499 147.615C70.861 150.212 92.4721 161.465 114.083 172.719C124.889 178.345 135.694 183.972 146.5 188.517C175.43 200.684 204.361 205.095 233.291 205.904Z" fill="url(#paint1_linear)" fill-opacity="0.5"/>
<path fill-rule="evenodd" clip-rule="evenodd" d="M254.997 138.743C254.597 203.018 202.369 255 138 255C91.7146 255 51.7068 228.124 32.7314 189.126C36.1871 190.748 39.7533 191.53 43.3196 190.786C48.5828 189.706 54.5833 186.825 60.7813 183.85C71.8864 178.52 83.6254 172.885 92.8929 176.755C99.4541 179.495 103.538 182.165 107.395 184.688C112.028 187.716 116.334 190.532 124.213 193C138.653 197.523 159.346 189.878 173.786 177.816L173.786 177.816C188.226 165.755 202.666 153.694 217.106 146.156C229.681 139.591 242.255 136.457 254.997 138.743Z" fill="url(#paint2_linear)" fill-opacity="0.5"/>
<path d="M138.208 67C133.07 67 128.142 69.0413 124.508 72.6748C120.875 76.3083 118.833 81.2364 118.833 86.375V125.125V138.042C118.833 143.18 120.875 148.108 124.508 151.742C128.142 155.375 133.07 157.417 138.208 157.417C143.347 157.417 148.275 155.375 151.909 151.742C155.542 148.108 157.583 143.18 157.583 138.042V125.125V86.375C157.583 81.2364 155.542 76.3083 151.909 72.6748C148.275 69.0413 143.347 67 138.208 67Z" fill="white"/>
<path d="M183.417 125.125V138.042C183.417 150.032 178.654 161.531 170.175 170.009C161.697 178.487 150.198 183.25 138.208 183.25M138.208 183.25C126.218 183.25 114.719 178.487 106.241 170.009C97.763 161.531 93 150.032 93 138.042V125.125M138.208 183.25V209.083M112.375 209.083H164.042M138.208 67C133.07 67 128.142 69.0413 124.508 72.6748C120.875 76.3083 118.833 81.2364 118.833 86.375V125.125V138.042C118.833 143.18 120.875 148.108 124.508 151.742C128.142 155.375 133.07 157.417 138.208 157.417C143.347 157.417 148.275 155.375 151.909 151.742C155.542 148.108 157.583 143.18 157.583 138.042V125.125V86.375C157.583 81.2364 155.542 76.3083 151.909 72.6748C148.275 69.0413 143.347 67 138.208 67Z" stroke="white" stroke-width="10" stroke-linecap="round" stroke-linejoin="round"/>
<defs>
<linearGradient id="paint0_linear" x1="138" y1="21" x2="138" y2="255" gradientUnits="userSpaceOnUse">
<stop stop-color="#40BAFF"/>
<stop offset="1" stop-color="#2190CF"/>
</linearGradient>
<linearGradient id="paint1_linear" x1="127.377" y1="147" x2="127.377" y2="255" gradientUnits="userSpaceOnUse">
<stop stop-color="#BDE7FF"/>
<stop offset="1" stop-color="#BDE7FF" stop-opacity="0"/>
</linearGradient>
<linearGradient id="paint2_linear" x1="143.864" y1="138" x2="143.864" y2="255" gradientUnits="userSpaceOnUse">
<stop stop-color="#BDE7FF"/>
<stop offset="1" stop-color="#BDE7FF" stop-opacity="0"/>
</linearGradient>
</defs>
</svg>
