<svg width="275" height="276" viewBox="0 0 275 276" fill="none" xmlns="http://www.w3.org/2000/svg">
<rect y="23" width="275" height="224" rx="20" fill="#30A5E7"/>
<path d="M38 230C38 218.954 46.9543 210 58 210H220C231.046 210 240 218.954 240 230V247H38V230Z" fill="#BDE7FF"/>
<path d="M67.6224 58.3176C68.3707 56.0143 71.6293 56.0144 72.3776 58.3176L76.6232 71.384C76.9578 72.4141 77.9177 73.1115 79.0008 73.1115H92.7396C95.1614 73.1115 96.1683 76.2105 94.2091 77.634L83.0941 85.7095C82.2179 86.3461 81.8513 87.4745 82.186 88.5045L86.4315 101.571C87.1799 103.874 84.5437 105.79 82.5844 104.366L71.4695 96.2905C70.5932 95.6539 69.4068 95.6539 68.5305 96.2905L57.4156 104.366C55.4563 105.79 52.8201 103.874 53.5685 101.571L57.814 88.5045C58.1487 87.4745 57.7821 86.3461 56.9059 85.7095L45.7909 77.634C43.8316 76.2105 44.8386 73.1115 47.2604 73.1115H60.9992C62.0823 73.1115 63.0422 72.4141 63.3768 71.384L67.6224 58.3176Z" fill="#BDE7FF"/>
<path d="M99.6224 117.318C100.371 115.014 103.629 115.014 104.378 117.318L105.929 122.092C106.264 123.122 107.224 123.82 108.307 123.82H113.327C115.749 123.82 116.756 126.919 114.796 128.342L110.735 131.293C109.859 131.93 109.492 133.058 109.827 134.088L111.378 138.863C112.126 141.166 109.49 143.081 107.531 141.658L103.469 138.707C102.593 138.07 101.407 138.07 100.531 138.707L96.469 141.658C94.5098 143.081 91.8736 141.166 92.6219 138.863L94.1733 134.088C94.508 133.058 94.1413 131.93 93.2651 131.293L89.2036 128.342C87.2443 126.919 88.2513 123.82 90.6731 123.82H95.6934C96.7764 123.82 97.7363 123.122 98.071 122.092L99.6224 117.318Z" fill="#BDE7FF"/>
<path d="M126.622 77.3176C127.371 75.0143 130.629 75.0143 131.378 77.3176L132.929 82.0922C133.264 83.1223 134.224 83.8197 135.307 83.8197H140.327C142.749 83.8197 143.756 86.9187 141.796 88.3422L137.735 91.2931C136.859 91.9297 136.492 93.0581 136.827 94.0881L138.378 98.8627C139.126 101.166 136.49 103.081 134.531 101.658L130.469 98.7069C129.593 98.0703 128.407 98.0703 127.531 98.7069L123.469 101.658C121.51 103.081 118.874 101.166 119.622 98.8627L121.173 94.0881C121.508 93.0581 121.141 91.9297 120.265 91.2931L116.204 88.3422C114.244 86.9187 115.251 83.8197 117.673 83.8197H122.693C123.776 83.8197 124.736 83.1223 125.071 82.0922L126.622 77.3176Z" fill="#BDE7FF"/>
<path fill-rule="evenodd" clip-rule="evenodd" d="M123.722 188.825C126.114 190.206 129.172 189.386 130.553 186.995L157.303 140.662L138.25 129.662L111.5 175.995C110.119 178.386 110.939 181.444 113.33 182.825L123.722 188.825Z" fill="#BDE7FF"/>
<path d="M157.303 140.662L184.053 94.3301C185.433 91.9387 184.614 88.8807 182.222 87.5L171.83 81.5C169.439 80.1193 166.381 80.9387 165 83.3301L138.25 129.662M157.303 140.662L130.553 186.995C129.172 189.386 126.114 190.206 123.722 188.825L113.33 182.825C110.939 181.444 110.119 178.386 111.5 175.995L138.25 129.662M157.303 140.662L138.25 129.662" stroke="#BDE7FF" stroke-width="5"/>
</svg>
