<svg width="64" height="64" viewBox="0 0 64 64" fill="none" xmlns="http://www.w3.org/2000/svg">
<path d="M32 60C47.464 60 60 47.4639 60 31.9999C60 16.536 47.464 4 32 4C16.536 4 4 16.536 4 31.9999C4 47.4639 16.536 60 32 60Z" fill="url(#paint0_linear)"/>
<g filter="url(#filter0_dd)">
<path fill-rule="evenodd" clip-rule="evenodd" d="M21.3029 16.2952C21.687 16.033 22.2009 16.094 22.5297 16.4229L24.3674 18.2605C24.6797 18.5729 25.1586 18.6401 25.5574 18.4502C26.0175 18.231 26.4904 18.0346 26.9749 17.8624C27.391 17.7145 27.6818 17.3285 27.6818 16.8869V14.2871C27.6818 13.822 28.002 13.4155 28.459 13.3294C29.6062 13.1131 30.7899 13 32 13C33.2101 13 34.3938 13.1131 35.541 13.3294C35.998 13.4155 36.3182 13.822 36.3182 14.2871V16.8869C36.3182 17.3285 36.609 17.7145 37.0251 17.8624C37.5911 18.0636 38.1414 18.2978 38.6737 18.5627C39.0752 18.7625 39.5632 18.6985 39.8803 18.3814L41.6878 16.5738C42.0204 16.2412 42.5415 16.1831 42.9261 16.4539C44.871 17.8233 46.5474 19.5485 47.8606 21.5347C48.1142 21.9183 48.0504 22.4249 47.7252 22.7501L45.8567 24.6186C45.5491 24.9262 45.4788 25.396 45.6591 25.7919C45.8347 26.1777 45.9945 26.5724 46.1376 26.9749C46.2855 27.391 46.6715 27.6818 47.1131 27.6818L49.7129 27.6818C50.178 27.6818 50.5845 28.002 50.6706 28.459C50.8869 29.6062 51 30.7899 51 32C51 33.2101 50.8869 34.3937 50.6706 35.541C50.5845 35.998 50.178 36.3182 49.7129 36.3182H47.1131C46.6715 36.3182 46.2855 36.609 46.1376 37.0251C45.9654 37.5096 45.769 37.9825 45.5498 38.4426C45.3599 38.8414 45.4271 39.3203 45.7395 39.6326L47.5771 41.4702C47.9059 41.7991 47.967 42.313 47.7048 42.6971C46.3634 44.6627 44.6627 46.3634 42.6971 47.7048C42.313 47.967 41.7991 47.906 41.4703 47.5771L39.6326 45.7395C39.3203 45.4271 38.8414 45.3599 38.4426 45.5498C37.9825 45.769 37.5096 45.9654 37.0251 46.1376C36.609 46.2855 36.3182 46.6715 36.3182 47.1131V49.7129C36.3182 50.178 35.998 50.5845 35.541 50.6706C34.3938 50.8869 33.2101 51 32 51C30.7899 51 29.6062 50.8869 28.459 50.6706C28.002 50.5845 27.6818 50.178 27.6818 49.7129V47.1131C27.6818 46.6715 27.391 46.2855 26.9749 46.1376C26.5724 45.9945 26.1778 45.8347 25.7919 45.659C25.396 45.4788 24.9262 45.5491 24.6186 45.8567L22.7501 47.7252C22.4249 48.0504 21.9183 48.1142 21.5348 47.8606C19.5485 46.5473 17.8233 44.871 16.4539 42.9261C16.1831 42.5415 16.2413 42.0204 16.5739 41.6878L18.3814 39.8803C18.6985 39.5632 18.7625 39.0752 18.5627 38.6737C18.2978 38.1414 18.0636 37.5911 17.8624 37.0251C17.7145 36.609 17.3285 36.3182 16.8869 36.3182H14.2871C13.822 36.3182 13.4155 35.998 13.3294 35.541C13.1131 34.3937 13 33.2101 13 32C13 30.7899 13.1131 29.6062 13.3294 28.459C13.4155 28.002 13.822 27.6818 14.2871 27.6818L16.8869 27.6818C17.3285 27.6818 17.7145 27.391 17.8624 26.9749C18.0346 26.4904 18.231 26.0175 18.4502 25.5574C18.6401 25.1586 18.5729 24.6797 18.2605 24.3674L16.4229 22.5297C16.094 22.2009 16.033 21.687 16.2952 21.3028C17.6366 19.3373 19.3373 17.6366 21.3029 16.2952ZM40 32C40 36.4183 36.4183 40 32 40C27.5817 40 24 36.4183 24 32C24 27.5817 27.5817 24 32 24C36.4183 24 40 27.5817 40 32Z" fill="white"/>
</g>
<defs>
<filter id="filter0_dd" x="9" y="12" width="46" height="47" filterUnits="userSpaceOnUse" color-interpolation-filters="sRGB">
<feFlood flood-opacity="0" result="BackgroundImageFix"/>
<feColorMatrix in="SourceAlpha" type="matrix" values="0 0 0 0 0 0 0 0 0 0 0 0 0 0 0 0 0 0 127 0"/>
<feOffset dy="4"/>
<feGaussianBlur stdDeviation="2"/>
<feColorMatrix type="matrix" values="0 0 0 0 0 0 0 0 0 0 0 0 0 0 0 0 0 0 0.1 0"/>
<feBlend mode="hard-light" in2="BackgroundImageFix" result="effect1_dropShadow"/>
<feColorMatrix in="SourceAlpha" type="matrix" values="0 0 0 0 0 0 0 0 0 0 0 0 0 0 0 0 0 0 127 0"/>
<feOffset dy="1"/>
<feGaussianBlur stdDeviation="1"/>
<feColorMatrix type="matrix" values="0 0 0 0 0 0 0 0 0 0 0 0 0 0 0 0 0 0 0.25 0"/>
<feBlend mode="hard-light" in2="effect1_dropShadow" result="effect2_dropShadow"/>
<feBlend mode="normal" in="SourceGraphic" in2="effect2_dropShadow" result="shape"/>
</filter>
<linearGradient id="paint0_linear" x1="31.5875" y1="4" x2="31.5875" y2="59.9997" gradientUnits="userSpaceOnUse">
<stop stop-color="#40D1FF"/>
<stop offset="1" stop-color="#0070B7"/>
</linearGradient>
</defs>
</svg>
