<svg width="275" height="276" viewBox="0 0 275 276" fill="none" xmlns="http://www.w3.org/2000/svg">
<g clip-path="url(#clip0)">
<path d="M55.3779 55.3779C44.5599 66.1959 35.9786 79.0388 30.1239 93.1732C24.2692 107.308 21.2559 122.457 21.2559 137.756L137.756 137.756L55.3779 55.3779Z" fill="#DE3046"/>
<path d="M220.134 220.134C230.952 209.316 239.533 196.473 245.388 182.339C251.242 168.204 254.256 153.055 254.256 137.756L137.756 137.756L220.134 220.134Z" fill="#43BC76"/>
<path d="M55.3779 220.134C66.1959 230.952 79.0388 239.533 93.1732 245.388C107.308 251.243 122.457 254.256 137.756 254.256L137.756 137.756L55.3779 220.134Z" fill="#FFDF55"/>
<path d="M220.134 55.3779C209.316 44.5599 196.473 35.9786 182.339 30.1239C168.204 24.2692 153.055 21.2559 137.756 21.2559L137.756 137.756L220.134 55.3779Z" fill="#3B62CA"/>
<path d="M21.2559 137.756C21.2559 153.055 24.2692 168.204 30.1239 182.338C35.9786 196.473 44.5599 209.316 55.3779 220.134L137.756 137.756L21.2559 137.756Z" fill="#F06D24"/>
<path d="M254.256 137.756C254.256 122.457 251.242 107.308 245.388 93.1733C239.533 79.0388 230.952 66.196 220.134 55.3779L137.756 137.756L254.256 137.756Z" fill="#31A2BC"/>
<path d="M137.756 254.256C153.055 254.256 168.204 251.243 182.339 245.388C196.473 239.533 209.316 230.952 220.134 220.134L137.756 137.756L137.756 254.256Z" fill="#85C541"/>
<path d="M137.756 21.2559C122.457 21.2559 107.308 24.2692 93.1732 30.1239C79.0388 35.9786 66.1959 44.5599 55.3779 55.3779L137.756 137.756L137.756 21.2559Z" fill="#9441BC"/>
<path d="M192 149.5C192 179.323 167.823 203.5 138 203.5C108.177 203.5 84 179.323 84 149.5C84 114.677 138 65.5 138 65.5C138 65.5 192 114.677 192 149.5Z" fill="#545454"/>
<path d="M192 141.5C192 171.323 167.823 195.5 138 195.5C108.177 195.5 84 171.323 84 141.5C84 106.677 138 57.5 138 57.5C138 57.5 192 106.677 192 141.5Z" fill="white"/>
</g>
<defs>
<clipPath id="clip0">
<rect width="275" height="276" fill="white"/>
</clipPath>
</defs>
</svg>
