<svg width="64" height="64" viewBox="0 0 64 64" fill="none" xmlns="http://www.w3.org/2000/svg">
<path d="M32 60C47.464 60 60 47.4639 60 31.9999C60 16.536 47.464 4 32 4C16.536 4 4 16.536 4 31.9999C4 47.4639 16.536 60 32 60Z" fill="url(#paint0_linear)"/>
<path fill-rule="evenodd" clip-rule="evenodd" d="M22.3029 18.2952C22.687 18.033 23.2009 18.094 23.5297 18.4229L25.3674 20.2605C25.6797 20.5729 26.1586 20.6401 26.5574 20.4502C27.0175 20.231 27.4904 20.0346 27.9749 19.8624C28.391 19.7145 28.6818 19.3285 28.6818 18.8869V16.2871C28.6818 15.822 29.002 15.4155 29.459 15.3294C30.6062 15.1131 31.7899 15 33 15C34.2101 15 35.3938 15.1131 36.541 15.3294C36.998 15.4155 37.3182 15.822 37.3182 16.2871V18.8869C37.3182 19.3285 37.609 19.7145 38.0251 19.8624C38.5911 20.0636 39.1414 20.2978 39.6737 20.5627C40.0752 20.7625 40.5632 20.6985 40.8803 20.3814L42.6878 18.5738C43.0204 18.2412 43.5415 18.1831 43.9261 18.4539C45.871 19.8233 47.5474 21.5485 48.8606 23.5347C49.1142 23.9183 49.0504 24.4249 48.7252 24.7501L46.8567 26.6186C46.5491 26.9262 46.4788 27.396 46.6591 27.7919C46.8347 28.1777 46.9945 28.5724 47.1376 28.9749C47.2855 29.391 47.6715 29.6818 48.1131 29.6818L50.7129 29.6818C51.178 29.6818 51.5845 30.002 51.6706 30.459C51.8869 31.6062 52 32.7899 52 34C52 35.2101 51.8869 36.3937 51.6706 37.541C51.5845 37.998 51.178 38.3182 50.7129 38.3182H48.1131C47.6715 38.3182 47.2855 38.609 47.1376 39.0251C46.9654 39.5096 46.769 39.9825 46.5498 40.4426C46.3599 40.8414 46.4271 41.3203 46.7395 41.6326L48.5771 43.4702C48.9059 43.7991 48.967 44.313 48.7048 44.6971C47.3634 46.6627 45.6627 48.3634 43.6971 49.7048C43.313 49.967 42.7991 49.906 42.4703 49.5771L40.6326 47.7395C40.3203 47.4271 39.8414 47.3599 39.4426 47.5498C38.9825 47.769 38.5096 47.9654 38.0251 48.1376C37.609 48.2855 37.3182 48.6715 37.3182 49.1131V51.7129C37.3182 52.178 36.998 52.5845 36.541 52.6706C35.3938 52.8869 34.2101 53 33 53C31.7899 53 30.6062 52.8869 29.459 52.6706C29.002 52.5845 28.6818 52.178 28.6818 51.7129V49.1131C28.6818 48.6715 28.391 48.2855 27.9749 48.1376C27.5724 47.9945 27.1778 47.8347 26.7919 47.659C26.396 47.4788 25.9262 47.5491 25.6186 47.8567L23.7501 49.7252C23.4249 50.0504 22.9183 50.1142 22.5348 49.8606C20.5485 48.5473 18.8233 46.871 17.4539 44.9261C17.1831 44.5415 17.2413 44.0204 17.5739 43.6878L19.3814 41.8803C19.6985 41.5632 19.7625 41.0752 19.5627 40.6737C19.2978 40.1414 19.0636 39.5911 18.8624 39.0251C18.7145 38.609 18.3285 38.3182 17.8869 38.3182H15.2871C14.822 38.3182 14.4155 37.998 14.3294 37.541C14.1131 36.3937 14 35.2101 14 34C14 32.7899 14.1131 31.6062 14.3294 30.459C14.4155 30.002 14.822 29.6818 15.2871 29.6818L17.8869 29.6818C18.3285 29.6818 18.7145 29.391 18.8624 28.9749C19.0346 28.4904 19.231 28.0175 19.4502 27.5574C19.6401 27.1586 19.5729 26.6797 19.2605 26.3674L17.4229 24.5297C17.094 24.2009 17.033 23.687 17.2952 23.3028C18.6366 21.3373 20.3373 19.6366 22.3029 18.2952ZM41 34C41 38.4183 37.4183 42 33 42C28.5817 42 25 38.4183 25 34C25 29.5817 28.5817 26 33 26C37.4183 26 41 29.5817 41 34Z" fill="#0070B7"/>
<path fill-rule="evenodd" clip-rule="evenodd" d="M21.3029 16.2952C21.687 16.033 22.2009 16.094 22.5297 16.4229L24.3674 18.2605C24.6797 18.5729 25.1586 18.6401 25.5574 18.4502C26.0175 18.231 26.4904 18.0346 26.9749 17.8624C27.391 17.7145 27.6818 17.3285 27.6818 16.8869V14.2871C27.6818 13.822 28.002 13.4155 28.459 13.3294C29.6062 13.1131 30.7899 13 32 13C33.2101 13 34.3938 13.1131 35.541 13.3294C35.998 13.4155 36.3182 13.822 36.3182 14.2871V16.8869C36.3182 17.3285 36.609 17.7145 37.0251 17.8624C37.5911 18.0636 38.1414 18.2978 38.6737 18.5627C39.0752 18.7625 39.5632 18.6985 39.8803 18.3814L41.6878 16.5738C42.0204 16.2412 42.5415 16.1831 42.9261 16.4539C44.871 17.8233 46.5474 19.5485 47.8606 21.5347C48.1142 21.9183 48.0504 22.4249 47.7252 22.7501L45.8567 24.6186C45.5491 24.9262 45.4788 25.396 45.6591 25.7919C45.8347 26.1777 45.9945 26.5724 46.1376 26.9749C46.2855 27.391 46.6715 27.6818 47.1131 27.6818L49.7129 27.6818C50.178 27.6818 50.5845 28.002 50.6706 28.459C50.8869 29.6062 51 30.7899 51 32C51 33.2101 50.8869 34.3937 50.6706 35.541C50.5845 35.998 50.178 36.3182 49.7129 36.3182H47.1131C46.6715 36.3182 46.2855 36.609 46.1376 37.0251C45.9654 37.5096 45.769 37.9825 45.5498 38.4426C45.3599 38.8414 45.4271 39.3203 45.7395 39.6326L47.5771 41.4702C47.9059 41.7991 47.967 42.313 47.7048 42.6971C46.3634 44.6627 44.6627 46.3634 42.6971 47.7048C42.313 47.967 41.7991 47.906 41.4703 47.5771L39.6326 45.7395C39.3203 45.4271 38.8414 45.3599 38.4426 45.5498C37.9825 45.769 37.5096 45.9654 37.0251 46.1376C36.609 46.2855 36.3182 46.6715 36.3182 47.1131V49.7129C36.3182 50.178 35.998 50.5845 35.541 50.6706C34.3938 50.8869 33.2101 51 32 51C30.7899 51 29.6062 50.8869 28.459 50.6706C28.002 50.5845 27.6818 50.178 27.6818 49.7129V47.1131C27.6818 46.6715 27.391 46.2855 26.9749 46.1376C26.5724 45.9945 26.1778 45.8347 25.7919 45.659C25.396 45.4788 24.9262 45.5491 24.6186 45.8567L22.7501 47.7252C22.4249 48.0504 21.9183 48.1142 21.5348 47.8606C19.5485 46.5473 17.8233 44.871 16.4539 42.9261C16.1831 42.5415 16.2413 42.0204 16.5739 41.6878L18.3814 39.8803C18.6985 39.5632 18.7625 39.0752 18.5627 38.6737C18.2978 38.1414 18.0636 37.5911 17.8624 37.0251C17.7145 36.609 17.3285 36.3182 16.8869 36.3182H14.2871C13.822 36.3182 13.4155 35.998 13.3294 35.541C13.1131 34.3937 13 33.2101 13 32C13 30.7899 13.1131 29.6062 13.3294 28.459C13.4155 28.002 13.822 27.6818 14.2871 27.6818L16.8869 27.6818C17.3285 27.6818 17.7145 27.391 17.8624 26.9749C18.0346 26.4904 18.231 26.0175 18.4502 25.5574C18.6401 25.1586 18.5729 24.6797 18.2605 24.3674L16.4229 22.5297C16.094 22.2009 16.033 21.687 16.2952 21.3028C17.6366 19.3373 19.3373 17.6366 21.3029 16.2952ZM40 32C40 36.4183 36.4183 40 32 40C27.5817 40 24 36.4183 24 32C24 27.5817 27.5817 24 32 24C36.4183 24 40 27.5817 40 32Z" fill="white"/>
<defs>
<linearGradient id="paint0_linear" x1="31.5875" y1="4" x2="31.5875" y2="59.9997" gradientUnits="userSpaceOnUse">
<stop stop-color="#40BAFF"/>
<stop offset="1" stop-color="#0070B7"/>
</linearGradient>
</defs>
</svg>
