<svg width="275" height="275" viewBox="0 0 275 275" fill="none" xmlns="http://www.w3.org/2000/svg">
<path d="M137.5 253.41C201.573 253.41 253.515 201.468 253.515 137.395C253.515 73.3211 201.573 21.3794 137.5 21.3794C73.4263 21.3794 21.4844 73.3211 21.4844 137.395C21.4844 201.468 73.4263 253.41 137.5 253.41Z" fill="url(#paint0_linear)"/>
<path d="M137.5 74.01C137.504 74.0063 137.501 74 137.496 74C130.243 74.0061 123.214 76.514 117.596 81.1006C111.974 85.6902 108.108 92.0799 106.652 99.1901C105.197 106.3 106.24 113.695 109.607 120.125C112.698 126.03 117.575 130.788 123.518 133.737C124.425 134.187 124.915 135.211 124.631 136.182L106.748 197.44C106.374 198.72 107.334 200 108.667 200H166.333C167.666 200 168.626 198.72 168.252 197.44L150.368 136.179C150.085 135.209 150.573 134.186 151.478 133.736C157.411 130.781 162.276 126.022 165.359 120.121C168.716 113.696 169.755 106.31 168.301 99.2076C166.847 92.1056 162.988 85.7229 157.375 81.1345C151.766 76.5492 144.749 74.0367 137.504 74.02C137.499 74.02 137.496 74.0137 137.5 74.01V74.01Z" fill="white"/>
<defs>
<linearGradient id="paint0_linear" x1="137.5" y1="21.3794" x2="137.5" y2="253.41" gradientUnits="userSpaceOnUse">
<stop stop-color="#62CA69"/>
<stop offset="1" stop-color="#45AA7A"/>
</linearGradient>
</defs>
</svg>
