<svg width="275" height="275" viewBox="0 0 275 275" fill="none" xmlns="http://www.w3.org/2000/svg">
<path d="M137 254C201.617 254 254 201.617 254 137C254 72.3825 201.617 20 137 20C72.3827 20 20 72.3825 20 137C20 201.617 72.3827 254 137 254Z" fill="url(#paint0_linear)"/>
<path d="M137.5 47.0101C137.5 47.0045 137.495 47 137.49 47C131.879 47.0027 126.498 49.2335 122.531 53.2026C118.56 57.1741 116.33 62.5606 116.33 68.1771C116.33 73.7936 118.56 79.1801 122.531 83.1515C126.501 87.123 131.885 89.3542 137.5 89.3542C143.112 89.3542 148.494 87.1242 152.462 83.1546C156.431 79.185 158.66 73.8013 158.66 68.1875C158.66 62.5736 156.431 57.1893 152.462 53.2197C148.496 49.2525 143.118 47.0228 137.51 47.0202C137.505 47.0201 137.5 47.0156 137.5 47.0101V47.0101ZM78.9976 99.9553C76.2371 99.9566 74 102.195 74 104.955V108.542C74 111.303 76.2386 113.542 79 113.542H111.32C114.081 113.542 116.32 115.78 116.32 118.542V221.98C116.32 224.741 118.559 226.98 121.32 226.98H124.92C127.681 226.98 129.92 224.741 129.92 221.98V168.479C129.92 165.718 132.159 163.479 134.92 163.479H140.08C142.841 163.479 145.08 165.718 145.08 168.479V222C145.08 224.761 147.319 227 150.08 227H153.66C156.421 227 158.66 224.761 158.66 222V118.542C158.66 115.78 160.899 113.542 163.66 113.542H196C198.761 113.542 201 111.303 201 108.542V104.938C201 102.176 198.761 99.9375 196 99.9375H116.32L78.9976 99.9553Z" fill="white"/>
<defs>
<linearGradient id="paint0_linear" x1="137" y1="20" x2="137" y2="254" gradientUnits="userSpaceOnUse">
<stop stop-color="#2D9CF2"/>
<stop offset="1" stop-color="#127CB8"/>
</linearGradient>
</defs>
</svg>
