<svg width="64" height="64" viewBox="0 0 64 64" fill="none" xmlns="http://www.w3.org/2000/svg">
<path d="M32 60C47.464 60 60 47.464 60 32C60 16.536 47.464 4 32 4C16.536 4 4 16.536 4 32C4 47.464 16.536 60 32 60Z" fill="url(#paint0_linear)"/>
<g filter="url(#filter0_d)">
<path d="M24.2238 15C23.0126 14.9989 21.813 15.2367 20.6937 15.6996C19.5744 16.1625 18.5573 16.8416 17.7007 17.6979C16.844 18.5541 16.1645 19.571 15.7011 20.6901C15.2377 21.8092 14.9995 23.0086 15 24.2199C15 25.794 15.4016 27.3159 16.0963 28.6129C15.533 31.2642 15.6414 34.0143 16.4115 36.6131C17.1816 39.2118 18.589 41.5769 20.5058 43.4933C22.4226 45.4097 24.788 46.8166 27.3869 47.5862C29.9859 48.3557 32.736 48.4636 35.3872 47.8998C36.6922 48.6065 38.194 49 39.7762 49C40.9878 49.0011 42.1877 48.7632 43.3072 48.3C44.4268 47.8368 45.444 47.1575 46.3008 46.3008C47.1575 45.4441 47.8369 44.4268 48.3 43.3072C48.7632 42.1877 49.0011 40.9878 49 39.7762C49 38.1941 48.5984 36.6842 47.8997 35.3791C48.4622 32.7281 48.3532 29.9785 47.5827 27.3803C46.8123 24.7821 45.4048 22.4176 43.4881 20.5017C41.5714 18.5858 39.2063 17.1794 36.6078 16.41C34.0092 15.6406 31.2596 15.5328 28.6088 16.0963C27.2561 15.3772 25.7477 15.0007 24.2158 15" fill="white"/>
</g>
<path d="M31.6968 23C36.5566 23 39.0638 25.4742 39.0638 26.9272C39.0638 28.3842 38.3394 28.6042 37.1509 28.6042C34.8308 28.6042 35.7792 25.9101 31.4403 25.9101C30.0036 25.9101 28.2086 26.5424 28.2086 28.1643C28.2086 29.4642 29.796 29.9434 32.6044 30.611C36.8293 31.7028 40 32.7945 40 36.5411C40 40.1738 36.9311 42 32.0753 42C27.2155 42 24.114 39.1959 24.114 37.7428C24.114 36.2897 24.6838 35.9246 25.8764 35.9246C28.1964 35.9246 27.8871 38.9799 32.2259 38.9799C33.6668 38.9799 35.7955 38.3477 35.7955 36.7218C35.7955 35.4258 35.6815 34.9781 32.6004 34.1769C29.3116 33.7449 24 32.712 24 28.7534C24 25.1168 26.8491 23 31.7049 23" fill="url(#paint1_linear)"/>
<defs>
<filter id="filter0_d" x="11" y="15" width="42" height="42" filterUnits="userSpaceOnUse" color-interpolation-filters="sRGB">
<feFlood flood-opacity="0" result="BackgroundImageFix"/>
<feColorMatrix in="SourceAlpha" type="matrix" values="0 0 0 0 0 0 0 0 0 0 0 0 0 0 0 0 0 0 127 0"/>
<feOffset dy="4"/>
<feGaussianBlur stdDeviation="2"/>
<feColorMatrix type="matrix" values="0 0 0 0 0 0 0 0 0 0.163636 0 0 0 0 0.266667 0 0 0 0.25 0"/>
<feBlend mode="normal" in2="BackgroundImageFix" result="effect1_dropShadow"/>
<feBlend mode="normal" in="SourceGraphic" in2="effect1_dropShadow" result="shape"/>
</filter>
<linearGradient id="paint0_linear" x1="32" y1="4" x2="32" y2="60" gradientUnits="userSpaceOnUse">
<stop stop-color="#2D9CF2"/>
<stop offset="1" stop-color="#1B77BE"/>
</linearGradient>
<linearGradient id="paint1_linear" x1="32" y1="23" x2="32" y2="42" gradientUnits="userSpaceOnUse">
<stop stop-color="#2D9CF2"/>
<stop offset="1" stop-color="#1B77BE"/>
</linearGradient>
</defs>
</svg>
