<svg width="64" height="64" viewBox="0 0 64 64" fill="none" xmlns="http://www.w3.org/2000/svg">
<g clip-path="url(#clip0)">
<path d="M5.17525 40.0539C8.63451 51.5928 19.3353 60 32 60C47.4637 60 60 47.4637 60 32C60 16.5361 47.4637 4 32 4C17.1609 4 5.01903 15.5435 4.06006 30.1397C5.87203 33.1825 6.5791 35.0644 5.17552 40.0539H5.17525Z" fill="url(#paint0_linear)"/>
<path d="M30.558 24.9875C30.558 25.0346 30.558 25.0817 30.5605 25.1259L23.7087 35.079C22.5988 35.0285 21.4851 35.2232 20.429 35.6582C19.9635 35.8481 19.5272 36.0812 19.1179 36.3504L4.07269 30.1568C4.07281 30.1568 3.72455 35.8841 5.17539 40.1526L15.8115 44.5413C16.3456 46.9279 17.9828 49.0213 20.3983 50.0284C24.3502 51.6795 28.9069 49.7976 30.5508 45.844C30.9786 44.8105 31.1781 43.7265 31.1493 42.645L40.9529 35.639C41.0322 35.6414 41.1139 35.6438 41.1932 35.6438C47.06 35.6438 51.8284 30.861 51.8284 24.9875C51.8284 19.1135 47.06 14.335 41.1932 14.335C35.3289 14.335 30.558 19.1135 30.558 24.9875ZM28.9141 45.1566C27.6417 48.2114 24.1313 49.6606 21.0799 48.3892C19.6722 47.8028 18.6094 46.7284 17.9963 45.4474L21.4584 46.8823C23.7087 47.8196 26.2905 46.7525 27.2259 44.5029C28.1642 42.2508 27.0997 39.6647 24.8506 38.7274L21.2717 37.2445C22.6527 36.7205 24.2226 36.7013 25.6894 37.3118C27.1682 37.9271 28.3156 39.0855 28.9237 40.566C29.5318 42.0465 29.5294 43.6809 28.9141 45.1566V45.1566ZM41.1932 32.0867C37.2877 32.0867 34.1079 28.9022 34.1079 24.9875C34.1079 21.0759 37.2877 17.8904 41.1932 17.8904C45.1012 17.8904 48.281 21.0759 48.281 24.9875C48.281 28.9022 45.1012 32.0867 41.1932 32.0867ZM35.8841 24.9766C35.8841 22.0317 38.2683 19.6432 41.2053 19.6432C44.1447 19.6432 46.5289 22.0317 46.5289 24.9766C46.5289 27.9218 44.1447 30.3082 41.2053 30.3082C38.2683 30.3082 35.8841 27.9218 35.8841 24.9766V24.9766Z" fill="white"/>
</g>
<defs>
<linearGradient id="paint0_linear" x1="32.03" y1="4" x2="32.03" y2="60" gradientUnits="userSpaceOnUse">
<stop stop-color="#111D2E"/>
<stop offset="0.21248" stop-color="#051839"/>
<stop offset="0.40695" stop-color="#0A1B48"/>
<stop offset="0.5811" stop-color="#132E62"/>
<stop offset="0.7376" stop-color="#144B7E"/>
<stop offset="0.87279" stop-color="#136497"/>
<stop offset="1" stop-color="#1387B8"/>
</linearGradient>
<clipPath id="clip0">
<rect width="56" height="56" fill="white" transform="translate(4 4)"/>
</clipPath>
</defs>
</svg>
