<svg width="275" height="275" viewBox="0 0 275 275" fill="none" xmlns="http://www.w3.org/2000/svg">
<path d="M138 254.076C202.617 254.076 255 201.883 255 137.5C255 73.1165 202.617 20.9238 138 20.9238C73.3827 20.9238 21 73.1165 21 137.5C21 201.883 73.3827 254.076 138 254.076Z" fill="url(#paint0_linear)"/>
<path d="M76.716 116.431C73.0393 124.875 74.5 123.5 71.8702 133C82.4887 108.614 111.61 85.5 139.858 85.5C168.106 85.5 183.5 95.5 198 113C187.382 88.6138 168.106 75 139.858 75C111.61 75 87.3344 92.045 76.716 116.431Z" fill="#1883C1"/>
<path d="M90.4767 128.009L66.7286 138.345C66.7286 127.926 68.8957 118.016 72.8028 109.04L90.4767 128.009Z" fill="white"/>
<path d="M72.8028 109.04C68.8957 118.016 66.7286 127.926 66.7286 138.345L90.4767 128.009L72.8028 109.04ZM72.8028 109.04C84.0866 83.1185 109.883 65.0002 139.901 65.0002C169.92 65.0002 195.716 83.1185 207 109.04" stroke="white" stroke-width="20"/>
<path d="M187.523 148.336L211.271 138C211.271 148.418 209.104 158.329 205.197 167.305L187.523 148.336Z" fill="white"/>
<path d="M205.197 167.305C209.104 158.329 211.271 148.418 211.271 138L187.523 148.336L205.197 167.305ZM205.197 167.305C193.913 193.226 168.117 211.345 138.099 211.345C108.08 211.345 82.2838 193.226 71 167.305" stroke="white" stroke-width="20"/>
<defs>
<linearGradient id="paint0_linear" x1="138" y1="20.9238" x2="138" y2="254.076" gradientUnits="userSpaceOnUse">
<stop stop-color="#40BAFF"/>
<stop offset="1" stop-color="#2190CF"/>
</linearGradient>
</defs>
</svg>
