<svg width="64" height="64" viewBox="0 0 64 64" fill="none" xmlns="http://www.w3.org/2000/svg">
<rect x="4" y="4" width="56" height="56" rx="10" fill="url(#paint0_linear)"/>
<rect x="9" y="9" width="46" height="46" rx="5" fill="url(#paint1_linear)"/>
<path fill-rule="evenodd" clip-rule="evenodd" d="M14 9C11.2386 9 9 11.2386 9 14V18C9 15.2386 11.2386 13 14 13H50C52.7614 13 55 15.2386 55 18V14C55 11.2386 52.7614 9 50 9H14Z" fill="#222222"/>
<path d="M18.76 30.056C18.504 30.216 18.232 30.272 17.944 30.224C17.656 30.16 17.408 30.024 17.2 29.816C17.008 29.592 16.912 29.32 16.912 29C16.912 28.552 17.112 28.2 17.512 27.944L24.736 23.624L17.512 19.328C17.112 19.088 16.912 18.728 16.912 18.248C16.912 17.784 17.112 17.448 17.512 17.24C17.912 17.016 18.328 17.016 18.76 17.24L27.616 22.568C28.048 22.872 28.264 23.232 28.264 23.648C28.264 24.112 28.048 24.48 27.616 24.752L18.76 30.056ZM29.317 34.448C28.965 34.448 28.677 34.328 28.453 34.088C28.213 33.848 28.093 33.56 28.093 33.224C28.093 32.872 28.213 32.576 28.453 32.336C28.677 32.112 28.965 32 29.317 32H40.573C40.893 32 41.173 32.112 41.413 32.336C41.653 32.576 41.773 32.872 41.773 33.224C41.773 33.56 41.653 33.848 41.413 34.088C41.173 34.328 40.893 34.448 40.573 34.448H29.317Z" fill="white"/>
<defs>
<linearGradient id="paint0_linear" x1="33.75" y1="7.8473" x2="33.75" y2="59.7186" gradientUnits="userSpaceOnUse">
<stop stop-color="#DFDFDF"/>
<stop offset="1" stop-color="#949090"/>
</linearGradient>
<linearGradient id="paint1_linear" x1="32" y1="9" x2="32" y2="55" gradientUnits="userSpaceOnUse">
<stop stop-color="#383838"/>
<stop offset="1" stop-color="#222222"/>
</linearGradient>
</defs>
</svg>
