<svg width="275" height="275" viewBox="0 0 275 275" fill="none" xmlns="http://www.w3.org/2000/svg">
<path d="M138 254.076C202.617 254.076 255 201.883 255 137.5C255 73.1165 202.617 20.9238 138 20.9238C73.3827 20.9238 21 73.1165 21 137.5C21 201.883 73.3827 254.076 138 254.076Z" fill="url(#paint0_linear)"/>
<path d="M138 219.203C183.287 219.203 220 182.623 220 137.5C220 92.3765 183.287 55.7969 138 55.7969C92.7127 55.7969 56 92.3765 56 137.5C56 182.623 92.7127 219.203 138 219.203Z" stroke="white" stroke-width="20" stroke-linecap="round" stroke-linejoin="round"/>
<rect x="124" y="131.522" width="27" height="58.7862" rx="5" fill="white"/>
<ellipse cx="138" cy="98.6413" rx="16" ry="15.942" fill="white"/>
<defs>
<linearGradient id="paint0_linear" x1="138" y1="20.9238" x2="138" y2="254.076" gradientUnits="userSpaceOnUse">
<stop stop-color="#40BAFF"/>
<stop offset="1" stop-color="#2190CF"/>
</linearGradient>
</defs>
</svg>
