<svg width="275" height="276" viewBox="0 0 275 276" fill="none" xmlns="http://www.w3.org/2000/svg">
<rect y="23" width="275" height="224" rx="20" fill="url(#paint0_linear)"/>
<path d="M54.95 147.47C53.5633 148.337 52.09 148.64 50.53 148.38C48.97 148.033 47.6267 147.297 46.5 146.17C45.46 144.957 44.94 143.483 44.94 141.75C44.94 139.323 46.0233 137.417 48.19 136.03L87.32 112.63L48.19 89.36C46.0233 88.06 44.94 86.11 44.94 83.51C44.94 80.9967 46.0233 79.1767 48.19 78.05C50.3567 76.8367 52.61 76.8367 54.95 78.05L102.92 106.91C105.26 108.557 106.43 110.507 106.43 112.76C106.43 115.273 105.26 117.267 102.92 118.74L54.95 147.47ZM112.134 171.26C110.227 171.26 108.667 170.61 107.454 169.31C106.154 168.01 105.504 166.45 105.504 164.63C105.504 162.723 106.154 161.12 107.454 159.82C108.667 158.607 110.227 158 112.134 158H173.104C174.837 158 176.354 158.607 177.654 159.82C178.954 161.12 179.604 162.723 179.604 164.63C179.604 166.45 178.954 168.01 177.654 169.31C176.354 170.61 174.837 171.26 173.104 171.26H112.134Z" fill="#6FD16F"/>
<defs>
<linearGradient id="paint0_linear" x1="137.5" y1="23" x2="137.5" y2="247" gradientUnits="userSpaceOnUse">
<stop stop-color="#696969"/>
<stop offset="1" stop-color="#383838"/>
</linearGradient>
</defs>
</svg>
