<svg width="275" height="276" viewBox="0 0 275 276" fill="none" xmlns="http://www.w3.org/2000/svg">
<path d="M254 137.5C254 201.841 201.841 254 137.5 254C73.1588 254 21 201.841 21 137.5C21 73.1588 73.1588 21 137.5 21C201.841 21 254 73.1588 254 137.5Z" fill="url(#paint0_linear)"/>
<path d="M155.067 163.341C150.391 167.484 144.239 170 137.5 170C122.864 170 111 158.136 111 143.5C111 136.761 113.516 130.609 117.659 125.933L112.726 121L73 209.274L161.274 169.547L155.067 163.341Z" fill="white"/>
<path d="M162.274 168.274L202 80L113.727 119.726L118.762 124.762C123.557 119.966 130.182 117 137.5 117C152.136 117 164 128.864 164 143.5C164 150.818 161.034 157.443 156.238 162.238L162.274 168.274Z" fill="white"/>
<path d="M155.067 163.341C150.391 167.484 144.239 170 137.5 170C122.864 170 111 158.136 111 143.5C111 136.761 113.516 130.609 117.659 125.933L112.726 121L73 209.274L161.274 169.547L155.067 163.341Z" stroke="#1883C1" stroke-width="10" stroke-linecap="round" stroke-linejoin="round"/>
<path d="M162.274 168.274L202 80L113.727 119.726L118.762 124.762C123.557 119.966 130.182 117 137.5 117C152.136 117 164 128.864 164 143.5C164 150.818 161.034 157.443 156.238 162.238L162.274 168.274Z" stroke="#1883C1" stroke-width="10" stroke-linecap="round" stroke-linejoin="round"/>
<path d="M155.067 157.341C150.391 161.484 144.239 164 137.5 164C122.864 164 111 152.136 111 137.5C111 130.761 113.516 124.609 117.659 119.933L112.726 115L73 203.274L161.274 163.547L155.067 157.341Z" fill="#40BAFF" stroke="#40BAFF" stroke-width="10" stroke-linecap="round" stroke-linejoin="round"/>
<path d="M162.274 162.274L202 74L113.727 113.726L118.762 118.762C123.557 113.966 130.182 111 137.5 111C152.136 111 164 122.864 164 137.5C164 144.818 161.034 151.443 156.238 156.238L162.274 162.274Z" fill="white" stroke="white" stroke-width="10" stroke-linecap="round" stroke-linejoin="round"/>
<defs>
<linearGradient id="paint0_linear" x1="137.5" y1="21" x2="137.5" y2="254" gradientUnits="userSpaceOnUse">
<stop stop-color="#3BB4F7"/>
<stop offset="1" stop-color="#127CB8"/>
</linearGradient>
</defs>
</svg>
