<svg width="275" height="275" viewBox="0 0 275 275" fill="none" xmlns="http://www.w3.org/2000/svg">
<path d="M138 255C202.617 255 255 202.617 255 138C255 73.3825 202.617 21 138 21C73.3827 21 21 73.3825 21 138C21 202.617 73.3827 255 138 255Z" fill="url(#paint0_linear)"/>
<path d="M206.796 110.672C206.012 101.214 200.415 89.2873 188.915 88.8617C156.8 86.6858 118.756 86.0908 86.0579 88.8617C75.9141 90.0074 68.9607 102.458 68.2028 111.917C66.5991 131.783 66.5991 143.09 68.2028 162.956C68.9696 172.414 75.7468 184.936 86.0755 186.25C119.16 188.426 157.021 188.736 188.932 186.25C198.944 184.5 206.038 172.413 206.805 162.956C208.4 143.08 208.4 130.54 206.796 110.674L206.796 110.672ZM119.865 162.635V111.703L163.929 137.173L119.865 162.635Z" fill="white"/>
<defs>
<linearGradient id="paint0_linear" x1="138" y1="21" x2="138" y2="255" gradientUnits="userSpaceOnUse">
<stop stop-color="#FB4B4B"/>
<stop offset="1" stop-color="#9C0F42"/>
</linearGradient>
</defs>
</svg>
