<svg width="64" height="64" viewBox="0 0 64 64" fill="none" xmlns="http://www.w3.org/2000/svg">
<rect x="11.333" y="5" width="51.6667" height="29.16" rx="3" fill="#042A3F"/>
<rect x="3.29639" y="9.32007" width="55.1111" height="39.96" rx="3" fill="white"/>
<path d="M1 9C1 6.79086 2.79086 5 5 5H24.5232C25.9426 5 27.2556 5.75216 27.9737 6.97651L31.989 13.8235C32.707 15.0478 34.0201 15.8 35.4395 15.8H59C61.2091 15.8 63 17.5909 63 19.8V55C63 57.2091 61.2091 59 59 59H5C2.79086 59 1 57.2091 1 55V9Z" fill="#30A5E7"/>
<path fill-rule="evenodd" clip-rule="evenodd" d="M24.4754 26.3978C24.8544 26.1283 25.3691 26.1903 25.698 26.5192L26.6117 27.4329C26.924 27.7452 27.4024 27.8109 27.8054 27.6302C27.9816 27.5512 28.1604 27.4771 28.3416 27.4079C28.7542 27.2505 29.0458 26.8658 29.0458 26.4243V25.1314C29.0458 24.6663 29.3659 24.2585 29.8245 24.1812C30.5319 24.062 31.2587 24 32 24C32.7416 24 33.4686 24.0621 34.1763 24.1814C34.6349 24.2587 34.9549 24.6665 34.9549 25.1315V26.4246C34.9549 26.8662 35.2465 27.2508 35.659 27.4082C35.8939 27.4979 36.1246 27.5959 36.3508 27.7019C36.7568 27.8923 37.2443 27.8298 37.5614 27.5127L38.4487 26.6253C38.7813 26.2927 39.3033 26.2336 39.6826 26.5118C40.8592 27.3752 41.8852 28.4318 42.7138 29.6348C42.9746 30.0135 42.9098 30.5209 42.5847 30.8461L41.644 31.7867C41.3364 32.0943 41.2676 32.5636 41.4389 32.9635C41.4922 33.0882 41.5432 33.2141 41.5918 33.3412C41.7492 33.7538 42.1338 34.0454 42.5754 34.0454H43.8685C44.3336 34.0454 44.7414 34.3654 44.8187 34.824C44.9379 35.5316 45 36.2585 45 37C45 37.7414 44.9379 38.4683 44.8187 39.1758C44.7414 39.6344 44.3336 39.9545 43.8685 39.9545H42.5754C42.1338 39.9545 41.7492 40.246 41.5917 40.6586C41.5226 40.8397 41.4485 41.0183 41.3696 41.1943C41.1889 41.5974 41.2546 42.0758 41.5669 42.3881L42.4808 43.302C42.8097 43.6309 42.8717 44.1456 42.6022 44.5246C41.7562 45.7145 40.715 46.7558 39.5252 47.6018C39.1461 47.8713 38.6314 47.8093 38.3025 47.4805L37.3888 46.5667C37.0764 46.2543 36.598 46.1886 36.1949 46.3693C36.0189 46.4483 35.8402 46.5224 35.659 46.5916C35.2465 46.749 34.9549 47.1336 34.9549 47.5752V48.8685C34.9549 49.3335 34.6349 49.7413 34.1763 49.8186C33.4686 49.9379 32.7416 50 32 50C31.2587 50 30.5319 49.938 29.8245 49.8188C29.3659 49.7415 29.0458 49.3337 29.0458 48.8686V47.5756C29.0458 47.134 28.7542 46.7493 28.3416 46.5919C28.2144 46.5433 28.0883 46.4923 27.9635 46.4389C27.5636 46.2676 27.0943 46.3364 26.7867 46.644L25.8461 47.5847C25.5209 47.9098 25.0135 47.9746 24.6348 47.7138C23.4318 46.8852 22.3752 45.8592 21.5119 44.6825C21.2336 44.3033 21.2927 43.7813 21.6253 43.4487L22.5127 42.5614C22.8298 42.2442 22.8923 41.7568 22.7019 41.3508C22.5958 41.1244 22.4978 40.8936 22.4081 40.6586C22.2506 40.246 21.866 39.9545 21.4244 39.9545H20.1315C19.6664 39.9545 19.2586 39.6344 19.1813 39.1758C19.0621 38.4683 19 37.7414 19 37C19 36.2585 19.0621 35.5316 19.1813 34.824C19.2586 34.3654 19.6664 34.0454 20.1315 34.0454H21.4244C21.866 34.0454 22.2506 33.7538 22.4081 33.3412C22.4773 33.1599 22.5514 32.9811 22.6305 32.8049C22.8112 32.4018 22.7455 31.9234 22.4331 31.611L21.5195 30.6974C21.1907 30.3686 21.1286 29.8538 21.3982 29.4748C22.2442 28.285 23.2855 27.2438 24.4754 26.3978ZM37.4739 37C37.4739 40.023 35.0232 42.4736 32.0002 42.4736C28.9772 42.4736 26.5265 40.023 26.5265 37C26.5265 33.9769 28.9772 31.5263 32.0002 31.5263C35.0232 31.5263 37.4739 33.9769 37.4739 37Z" fill="#042A3F"/>
</svg>
