<svg width="64" height="64" viewBox="0 0 64 64" fill="none" xmlns="http://www.w3.org/2000/svg">
<rect x="11.333" y="5" width="51.6667" height="29.16" rx="3" fill="#042A3F"/>
<rect x="3.29639" y="9.32007" width="55.1111" height="39.96" rx="3" fill="white"/>
<path d="M1 9C1 6.79086 2.79086 5 5 5H24.5232C25.9426 5 27.2556 5.75216 27.9737 6.97651L31.989 13.8235C32.707 15.0478 34.0201 15.8 35.4395 15.8H59C61.2091 15.8 63 17.5909 63 19.8V55C63 57.2091 61.2091 59 59 59H5C2.79086 59 1 57.2091 1 55V9Z" fill="#30A5E7"/>
<path d="M39.3526 47V32.9581L32 27L24.6474 32.9581V47H28.6265V39.5749H35.3735V47H39.3526Z" fill="#042A3F"/>
<path d="M21 36.0269L24.6474 32.9581M24.6474 32.9581V47H28.6265V39.5748H35.3735V47H39.3526V32.9581M24.6474 32.9581L32 27L39.3526 32.9581M39.3526 32.9581L43 36.0269" stroke="#042A3F" stroke-width="2" stroke-linecap="round" stroke-linejoin="round"/>
</svg>
