<svg width="64" height="64" viewBox="0 0 64 64" fill="none" xmlns="http://www.w3.org/2000/svg">
<rect x="11.333" y="5" width="51.6667" height="29.16" rx="3" fill="#042A3F"/>
<rect x="3.29639" y="9.32007" width="55.1111" height="39.96" rx="3" fill="white"/>
<path d="M1 9C1 6.79086 2.79086 5 5 5H24.5232C25.9426 5 27.2556 5.75216 27.9737 6.97651L31.989 13.8235C32.707 15.0478 34.0201 15.8 35.4395 15.8H59C61.2091 15.8 63 17.5909 63 19.8V55C63 57.2091 61.2091 59 59 59H5C2.79086 59 1 57.2091 1 55V9Z" fill="#30A5E7"/>
<rect x="21" y="26" width="18" height="18" rx="2" fill="#042A3F"/>
<path d="M26 46V47C26 48.1046 26.8954 49 28 49H42C43.1046 49 44 48.1046 44 47V33C44 31.8954 43.1046 31 42 31H41V44C41 45.1046 40.1046 46 39 46H26Z" fill="#042A3F"/>
</svg>
