<svg width="64" height="64" viewBox="0 0 64 64" fill="none" xmlns="http://www.w3.org/2000/svg">
<rect x="11.333" y="4.99988" width="51.6667" height="29.16" rx="3" fill="#042A3F"/>
<rect x="3.29639" y="9.31982" width="55.1111" height="39.96" rx="3" fill="white"/>
<path d="M1 8.99988C1 6.79074 2.79086 4.99988 5 4.99988H24.5232C25.9426 4.99988 27.2556 5.75204 27.9737 6.97639L31.989 13.8234C32.707 15.0477 34.0201 15.7999 35.4395 15.7999H59C61.2091 15.7999 63 17.5907 63 19.7999V54.9999C63 57.209 61.2091 58.9999 59 58.9999H5C2.79086 58.9999 1 57.209 1 54.9999V8.99988Z" fill="#30A5E7"/>
<path d="M24.5848 37.0131C22.5766 38.3625 21.1566 40.3177 20.3464 42.6816C20.1223 43.3353 20.0278 44.1403 20.0016 44.9245C19.9424 46.6927 21.552 48 23.4085 48H40.5915C42.448 48 44.0576 46.6927 43.9984 44.9245C43.9722 44.1403 43.8777 43.3353 43.6536 42.6816C42.8531 40.3461 41.4574 38.4094 39.4872 37.0619C37.6486 38.9816 35.0015 40.186 32.0592 40.186C29.0921 40.186 26.4251 38.9612 24.5848 37.0131Z" fill="#042A3F"/>
<path d="M38.6047 30.6667C38.6047 34.3486 35.6815 37.3333 32.0755 37.3333C28.4695 37.3333 25.5462 34.3486 25.5462 30.6667C25.5462 26.9848 28.4695 24 32.0755 24C35.6815 24 38.6047 26.9848 38.6047 30.6667Z" fill="#042A3F"/>
</svg>
