<svg width="275" height="276" viewBox="0 0 275 276" fill="none" xmlns="http://www.w3.org/2000/svg">
<rect y="23" width="275" height="224" rx="20" fill="#042A3F"/>
<rect x="9" y="40" width="248" height="174" rx="10" fill="white"/>
<path d="M0 37C0 25.9543 8.9543 17 20 17H102.251C109.768 17 116.65 21.2152 120.066 27.9114L131.934 51.1736C135.35 57.8698 142.232 62.085 149.749 62.085H255C266.046 62.085 275 71.0393 275 82.085V227C275 238.046 266.046 247 255 247H20C8.9543 247 0 238.046 0 227V37Z" fill="#30A5E7"/>
<path d="M169.562 183.5V124.875L137.688 100L105.812 124.875V183.5H123.062V152.5H152.312V183.5H169.562Z" fill="#042A3F"/>
<path d="M90 137.688L105.812 124.875M105.812 124.875V183.5H123.062V152.5H152.312V183.5H169.562V124.875M105.812 124.875L137.688 100L169.562 124.875M169.562 124.875L185.375 137.688" stroke="#042A3F" stroke-width="10" stroke-linecap="round" stroke-linejoin="round"/>
</svg>
