<svg width="64" height="64" viewBox="0 0 64 64" fill="none" xmlns="http://www.w3.org/2000/svg">
<rect x="11.333" y="5" width="51.6667" height="29.16" rx="3" fill="#042A3F"/>
<rect x="3.29639" y="9.32007" width="55.1111" height="39.96" rx="3" fill="white"/>
<path d="M1 9C1 6.79086 2.79086 5 5 5H24.5232C25.9426 5 27.2556 5.75216 27.9737 6.97651L31.989 13.8235C32.707 15.0478 34.0201 15.8 35.4395 15.8H59C61.2091 15.8 63 17.5909 63 19.8V55C63 57.2091 61.2091 59 59 59H5C2.79086 59 1 57.2091 1 55V9Z" fill="#30A5E7"/>
<path d="M39.3333 32.3846C41.3584 32.3846 43 30.7315 43 28.6923C43 26.6531 41.3584 25 39.3333 25C37.3083 25 35.6667 26.6531 35.6667 28.6923C35.6667 30.7315 37.3083 32.3846 39.3333 32.3846Z" fill="#042A3F"/>
<path d="M24.6667 40.6923C26.6917 40.6923 28.3333 39.0392 28.3333 37C28.3333 34.9608 26.6917 33.3077 24.6667 33.3077C22.6416 33.3077 21 34.9608 21 37C21 39.0392 22.6416 40.6923 24.6667 40.6923Z" fill="#042A3F"/>
<path d="M39.3333 49C41.3584 49 43 47.3469 43 45.3077C43 43.2685 41.3584 41.6154 39.3333 41.6154C37.3083 41.6154 35.6667 43.2685 35.6667 45.3077C35.6667 47.3469 37.3083 49 39.3333 49Z" fill="#042A3F"/>
<path d="M27.4167 38.8462L36.5833 43.4615M36.5833 30.5385L27.4167 35.1538M43 28.6923C43 30.7315 41.3584 32.3846 39.3333 32.3846C37.3083 32.3846 35.6667 30.7315 35.6667 28.6923C35.6667 26.6531 37.3083 25 39.3333 25C41.3584 25 43 26.6531 43 28.6923ZM28.3333 37C28.3333 39.0392 26.6917 40.6923 24.6667 40.6923C22.6416 40.6923 21 39.0392 21 37C21 34.9608 22.6416 33.3077 24.6667 33.3077C26.6917 33.3077 28.3333 34.9608 28.3333 37ZM43 45.3077C43 47.3469 41.3584 49 39.3333 49C37.3083 49 35.6667 47.3469 35.6667 45.3077C35.6667 43.2685 37.3083 41.6154 39.3333 41.6154C41.3584 41.6154 43 43.2685 43 45.3077Z" stroke="#042A3F" stroke-width="2" stroke-linecap="round" stroke-linejoin="round"/>
</svg>
