<svg width="64" height="64" viewBox="0 0 64 64" fill="none" xmlns="http://www.w3.org/2000/svg">
<rect x="11.333" y="5" width="51.6667" height="29.16" rx="3" fill="#042A3F"/>
<rect x="3.29639" y="9.32007" width="55.1111" height="39.96" rx="3" fill="white"/>
<path d="M1 9C1 6.79086 2.79086 5 5 5H24.5232C25.9426 5 27.2556 5.75216 27.9737 6.97651L31.989 13.8235C32.707 15.0478 34.0201 15.8 35.4395 15.8H59C61.2091 15.8 63 17.5909 63 19.8V55C63 57.2091 61.2091 59 59 59H5C2.79086 59 1 57.2091 1 55V9Z" fill="#30A5E7"/>
<path fill-rule="evenodd" clip-rule="evenodd" d="M19 28C19 26.8954 19.8954 26 21 26H43C44.1046 26 45 26.8954 45 28V43.2165V44.3505L40.1508 39.5052C39.7518 39.1065 39.1053 39.1065 38.7064 39.5052C38.3074 39.9038 37.6609 39.9038 37.2619 39.5052L34.1359 36.3816C33.355 35.6013 32.0895 35.6013 31.3086 36.3816L22.2381 45.4449C21.8824 45.8003 21.4 46 20.8972 46C19.8494 46 19 45.1506 19 44.1028V28ZM24.7262 30.0206C23.6729 30.0206 22.8175 30.8745 22.8175 31.9278C22.8175 32.9812 23.6729 33.8351 24.7262 33.8351C25.7795 33.8351 26.6349 32.9812 26.6349 31.9278C26.6349 30.8745 25.7795 30.0206 24.7262 30.0206Z" fill="#042A3F"/>
</svg>
