<svg width="64" height="64" viewBox="0 0 64 64" fill="none" xmlns="http://www.w3.org/2000/svg">
<rect x="11.333" y="5" width="51.6667" height="29.16" rx="3" fill="#042A3F"/>
<rect x="3.29639" y="9.32007" width="55.1111" height="39.96" rx="3" fill="white"/>
<path d="M1 9C1 6.79086 2.79086 5 5 5H24.5232C25.9426 5 27.2556 5.75216 27.9737 6.97651L31.989 13.8235C32.707 15.0478 34.0201 15.8 35.4395 15.8H59C61.2091 15.8 63 17.5909 63 19.8V55C63 57.2091 61.2091 59 59 59H5C2.79086 59 1 57.2091 1 55V9Z" fill="#30A5E7"/>
<path d="M25 44C25 45.1046 25.8954 46 27 46H39C40.1046 46 41 45.1046 41 44V34.4517H34.168C33.0707 34.4517 32.1783 33.5676 32.1681 32.4703L32.0986 25H27C25.8954 25 25 25.8954 25 27V44Z" fill="#042A3F"/>
<path d="M41 34.4517V44C41 45.1046 40.1046 46 39 46H27C25.8954 46 25 45.1046 25 44V27C25 25.8954 25.8954 25 27 25H32.0986M41 34.4517H34.168C33.0707 34.4517 32.1783 33.5676 32.1681 32.4703L32.0986 25M41 34.4517L32.0986 25" stroke="#042A3F" stroke-linecap="round" stroke-linejoin="round"/>
</svg>
