<svg width="64" height="64" viewBox="0 0 64 64" fill="none" xmlns="http://www.w3.org/2000/svg">
<rect x="11.333" y="4.99988" width="51.6667" height="29.16" rx="3" fill="#042A3F"/>
<rect x="3.29639" y="9.31982" width="55.1111" height="39.96" rx="3" fill="white"/>
<path d="M1 8.99988C1 6.79074 2.79086 4.99988 5 4.99988H24.5232C25.9426 4.99988 27.2556 5.75204 27.9737 6.97639L31.989 13.8234C32.707 15.0477 34.0201 15.7999 35.4395 15.7999H59C61.2091 15.7999 63 17.5907 63 19.7999V54.9999C63 57.209 61.2091 58.9999 59 58.9999H5C2.79086 58.9999 1 57.209 1 54.9999V8.99988Z" fill="#30A5E7"/>
<path fill-rule="evenodd" clip-rule="evenodd" d="M42 36V32.5465H39.2623C38.4811 32.5465 37.7713 32.0916 37.4451 31.3817L35.4314 27H34.1078L35.3539 29.7113C35.9628 31.0363 34.9948 32.5465 33.5366 32.5465H31.7623C30.9811 32.5465 30.2713 32.0916 29.9451 31.3817L27.9314 27H26.6078L27.8539 29.7113C28.4628 31.0363 27.4948 32.5465 26.0366 32.5465H22V36V40.5V42.907C22 44.0629 22.8779 45 23.9608 45H27H29.5H32H34.5H37H40.0392C41.1221 45 42 44.0629 42 42.907V40.5V36Z" fill="#042A3F"/>
<path d="M42 32.5465V36V40.5V42.907M42 32.5465H39.2623C38.4811 32.5465 37.7713 32.0916 37.4451 31.3817L35.4314 27M42 32.5465V29.093M22 32.5465V36V40.5V42.907M22 32.5465H26.0366C27.4948 32.5465 28.4628 31.0363 27.8539 29.7113L26.6078 27M22 32.5465V29.093M27.9314 27L29.9451 31.3817C30.2713 32.0916 30.9811 32.5465 31.7623 32.5465H33.5366C34.9948 32.5465 35.9628 31.0363 35.3539 29.7113L34.1078 27M27.9314 27H26.6078M27.9314 27H34.1078M26.6078 27H23.9608M34.1078 27H35.4314M35.4314 27H40.0392M42 29.093C42 27.9371 41.1221 27 40.0392 27M42 29.093V28.9608C42 27.8779 41.1221 27 40.0392 27V27M42 42.907C42 44.0629 41.1221 45 40.0392 45M42 42.907V43.0392C42 44.1221 41.1221 45 40.0392 45V45M40.0392 45H37H34.5H32H29.5H27H23.9608M23.9608 45C22.8779 45 22 44.0629 22 42.907M23.9608 45V45C22.8779 45 22 44.1221 22 43.0392V42.907M22 29.093C22 27.9371 22.8779 27 23.9608 27M22 29.093V28.9608C22 27.8779 22.8779 27 23.9608 27V27" stroke="#042A3F" stroke-width="2"/>
</svg>
