<svg width="64" height="64" viewBox="0 0 64 64" fill="none" xmlns="http://www.w3.org/2000/svg">
<rect x="11.333" y="5" width="51.6667" height="29.16" rx="3" fill="#042A3F"/>
<rect x="3.29639" y="9.32007" width="55.1111" height="39.96" rx="3" fill="white"/>
<path d="M1 9C1 6.79086 2.79086 5 5 5H24.5232C25.9426 5 27.2556 5.75216 27.9737 6.97651L31.989 13.8235C32.707 15.0478 34.0201 15.8 35.4395 15.8H59C61.2091 15.8 63 17.5909 63 19.8V55C63 57.2091 61.2091 59 59 59H5C2.79086 59 1 57.2091 1 55V9Z" fill="#30A5E7"/>
<path d="M23.7692 46C26.5385 46 26.5385 43.2618 26.5385 43.2618C26.5385 43.2618 26.5385 40.5236 23.7692 40.5236C21 40.5236 21 43.2618 21 43.2618C21 43.2618 21 46 23.7692 46Z" fill="#042A3F"/>
<path d="M41 26H26.5385V30.4623H41V26Z" fill="#042A3F"/>
<path d="M41 43.2618C41 43.2618 41 40.5236 38.2308 40.5236C35.4615 40.5236 35.4615 43.2618 35.4615 43.2618C35.4615 43.2618 35.4615 46 38.2308 46C41 46 41 43.2618 41 43.2618Z" fill="#042A3F"/>
<path d="M26.5385 43.2618C26.5385 43.2618 26.5385 46 23.7692 46C21 46 21 43.2618 21 43.2618C21 43.2618 21 40.5236 23.7692 40.5236C26.5385 40.5236 26.5385 43.2618 26.5385 43.2618ZM26.5385 43.2618V30.4623M41 43.2618C41 43.2618 41 40.5236 38.2308 40.5236C35.4615 40.5236 35.4615 43.2618 35.4615 43.2618C35.4615 43.2618 35.4615 46 38.2308 46C41 46 41 43.2618 41 43.2618ZM41 43.2618V30.4623M26.5385 30.4623V26H41V30.4623M26.5385 30.4623H41" stroke="#042A3F" stroke-width="2" stroke-linecap="round" stroke-linejoin="round"/>
</svg>
