<svg width="64" height="64" viewBox="0 0 64 64" fill="none" xmlns="http://www.w3.org/2000/svg">
<rect x="11.333" y="5" width="51.6667" height="29.16" rx="3" fill="#042A3F"/>
<rect x="3.29639" y="9.32007" width="55.1111" height="39.96" rx="3" fill="white"/>
<path d="M1 9C1 6.79086 2.79086 5 5 5H24.5232C25.9426 5 27.2556 5.75216 27.9737 6.97651L31.989 13.8235C32.707 15.0478 34.0201 15.8 35.4395 15.8H59C61.2091 15.8 63 17.5909 63 19.8V55C63 57.2091 61.2091 59 59 59H5C2.79086 59 1 57.2091 1 55V9Z" fill="#30A5E7"/>
<path d="M44 47L35.9563 38.9562M38.3587 33.1795C38.3587 37.6969 34.6967 41.359 30.1793 41.359C25.662 41.359 22 37.6969 22 33.1795C22 28.6621 25.662 25 30.1793 25C34.6967 25 38.3587 28.6621 38.3587 33.1795Z" stroke="#042A3F" stroke-width="4" stroke-linecap="round" stroke-linejoin="round"/>
</svg>
