<svg width="64" height="64" viewBox="0 0 64 64" fill="none" xmlns="http://www.w3.org/2000/svg">
<rect x="11.333" y="5" width="51.6667" height="29.16" rx="3" fill="#042A3F"/>
<rect x="3.29639" y="9.32007" width="55.1111" height="39.96" rx="3" fill="white"/>
<path d="M1 9C1 6.79086 2.79086 5 5 5H24.5232C25.9426 5 27.2556 5.75216 27.9737 6.97651L31.989 13.8235C32.707 15.0478 34.0201 15.8 35.4395 15.8H59C61.2091 15.8 63 17.5909 63 19.8V55C63 57.2091 61.2091 59 59 59H5C2.79086 59 1 57.2091 1 55V9Z" fill="#30A5E7"/>
<path fill-rule="evenodd" clip-rule="evenodd" d="M45 37C45 44.1797 39.1797 50 32 50C24.8203 50 19 44.1797 19 37C19 29.8203 24.8203 24 32 24C39.1797 24 45 29.8203 45 37ZM35.7699 42.5634L32.3938 39.1874C32.266 39.2103 32.1344 39.2222 32 39.2222C30.7727 39.2222 29.7778 38.2273 29.7778 37C29.7778 36.1775 30.2247 35.4593 30.8889 35.0751L30.8889 27.6667C30.8889 27.053 31.3863 26.5556 32 26.5556C32.6136 26.5556 33.1111 27.053 33.1111 27.6667L33.1111 35.0751C33.7753 35.4593 34.2222 36.1775 34.2222 37C34.2222 37.2614 34.1771 37.5122 34.0942 37.7451L37.3412 40.9921C37.7751 41.426 37.7751 42.1295 37.3412 42.5635C36.9073 42.9974 36.2038 42.9974 35.7699 42.5634Z" fill="#042A3F"/>
</svg>
