<svg width="64" height="64" viewBox="0 0 64 64" fill="none" xmlns="http://www.w3.org/2000/svg">
<rect x="11.333" y="5" width="51.6667" height="29.16" rx="3" fill="#042A3F"/>
<rect x="3.29639" y="9.32007" width="55.1111" height="39.96" rx="3" fill="white"/>
<path d="M1 9C1 6.79086 2.79086 5 5 5H24.5232C25.9426 5 27.2556 5.75216 27.9737 6.97651L31.989 13.8235C32.707 15.0478 34.0201 15.8 35.4395 15.8H59C61.2091 15.8 63 17.5909 63 19.8V55C63 57.2091 61.2091 59 59 59H5C2.79086 59 1 57.2091 1 55V9Z" fill="#30A5E7"/>
<path d="M23.4713 32.9286C24.1949 29.3199 27.893 26 31.9835 26C37.4189 26 41.8252 30.4771 41.8252 36C41.8252 36.8716 41.7155 37.7173 41.5092 38.5234C42.0047 38.2882 42.5575 38.1569 43.1405 38.1569C45.272 38.1569 47 39.9126 47 42.0785C47 44.2443 45.272 46 43.1405 46L31.9835 45.9999L23.8454 45.9894C20.0648 45.9894 17 42.8753 17 39.0339C17 35.5185 20.1381 32.8083 23.4713 32.9286Z" fill="#042A3F"/>
</svg>
