<svg width="64" height="64" viewBox="0 0 64 64" fill="none" xmlns="http://www.w3.org/2000/svg">
<rect x="24.6665" y="6" width="33.3333" height="18.9" rx="2" fill="#042A3F"/>
<rect x="19.4814" y="8.80005" width="35.5556" height="25.9" rx="2" fill="white"/>
<path d="M18 8C18 6.89543 18.8954 6 20 6H33.5062C34.2173 6 34.875 6.37759 35.2335 6.99173L38.1618 12.0083C38.5203 12.6224 39.178 13 39.8891 13H56C57.1046 13 58 13.8954 58 15V39C58 40.1046 57.1046 41 56 41H20C18.8954 41 18 40.1046 18 39V8Z" fill="#30A5E7"/>
<path fill-rule="evenodd" clip-rule="evenodd" d="M14.2715 23H8C6.89543 23 6 23.8954 6 25V56C6 57.1046 6.89543 58 8 58H44C45.1046 58 46 57.1046 46 56V44.7354H18.2715C16.0623 44.7354 14.2715 42.9445 14.2715 40.7354V23Z" fill="#155375"/>
</svg>
