<svg width="64" height="64" viewBox="0 0 64 64" fill="none" xmlns="http://www.w3.org/2000/svg">
<rect x="11.333" y="5" width="51.6667" height="29.16" rx="3" fill="#042A3F"/>
<rect x="3.29639" y="9.32007" width="55.1111" height="39.96" rx="3" fill="white"/>
<path d="M1 9C1 6.79086 2.79086 5 5 5H24.5232C25.9426 5 27.2556 5.75216 27.9737 6.97651L31.989 13.8235C32.707 15.0478 34.0201 15.8 35.4395 15.8H59C61.2091 15.8 63 17.5909 63 19.8V55C63 57.2091 61.2091 59 59 59H5C2.79086 59 1 57.2091 1 55V9Z" fill="#30A5E7"/>
<path d="M31.5669 24.6377C32.0024 23.2282 33.9976 23.2282 34.4331 24.6377L36.3232 30.7542C36.4527 31.1732 36.8401 31.459 37.2787 31.459H43.5656C45.0004 31.459 45.6163 33.2799 44.4762 34.151L39.2838 38.1176C38.9508 38.372 38.8117 38.8071 38.9354 39.2075L40.8849 45.5162C41.3161 46.9116 39.7018 48.0376 38.5412 47.1511L33.6071 43.3817C33.2487 43.1079 32.7513 43.1079 32.3929 43.3817L27.4588 47.1511C26.2982 48.0376 24.6839 46.9116 25.1151 45.5162L27.0646 39.2075C27.1883 38.8071 27.0492 38.372 26.7162 38.1176L21.5239 34.151C20.3837 33.28 20.9996 31.459 22.4344 31.459H28.7213C29.1599 31.459 29.5473 31.1732 29.6768 30.7542L31.5669 24.6377Z" fill="#042A3F"/>
</svg>
