<svg width="64" height="64" viewBox="0 0 64 64" fill="none" xmlns="http://www.w3.org/2000/svg">
<rect x="11.333" y="5" width="51.6667" height="29.16" rx="3" fill="#042A3F"/>
<rect x="3.29639" y="9.32007" width="55.1111" height="39.96" rx="3" fill="white"/>
<path d="M1 9C1 6.79086 2.79086 5 5 5H24.5232C25.9426 5 27.2556 5.75216 27.9737 6.97651L31.989 13.8235C32.707 15.0478 34.0201 15.8 35.4395 15.8H59C61.2091 15.8 63 17.5909 63 19.8V55C63 57.2091 61.2091 59 59 59H5C2.79086 59 1 57.2091 1 55V9Z" fill="#30A5E7"/>
<path d="M27 29.0933L25.0602 28.6062L25 28.846V29.0933H27ZM28.8488 26.1413L27.5819 24.5937L27.5819 24.5937L28.8488 26.1413ZM35.1512 26.1413L33.8843 27.6888L33.8843 27.6888L35.1512 26.1413ZM37 29.0933H39V28.846L38.9398 28.6062L37 29.0933ZM28.9398 29.5805C29.1341 28.8065 29.5567 28.1464 30.1157 27.6888L27.5819 24.5937C26.3328 25.6163 25.4557 27.0315 25.0602 28.6062L28.9398 29.5805ZM30.1157 27.6888C30.6722 27.2332 31.3349 27 32 27V23C30.3861 23 28.8335 23.5691 27.5819 24.5937L30.1157 27.6888ZM32 27C32.6651 27 33.3278 27.2332 33.8843 27.6888L36.4181 24.5937C35.1665 23.5691 33.6139 23 32 23V27ZM33.8843 27.6888C34.4433 28.1464 34.8659 28.8065 35.0602 29.5805L38.9398 28.6062C38.5443 27.0315 37.6672 25.6163 36.4181 24.5937L33.8843 27.6888ZM25 29.0933V30.7273H29V29.0933H25ZM35 29.0933V34H39V29.0933H35Z" fill="#042A3F"/>
<path fill-rule="evenodd" clip-rule="evenodd" d="M41 34H23V48C23 49.1046 23.8954 50 25 50H39C40.1046 50 41 49.1046 41 48V34ZM34 40C34 40.7891 33.543 41.4715 32.8792 41.7969L34 46H30L31.1208 41.7969C30.457 41.4715 30 40.7891 30 40C30 38.8954 30.8954 38 32 38C33.1046 38 34 38.8954 34 40Z" fill="#042A3F"/>
</svg>
