<svg width="64" height="64" viewBox="0 0 64 64" fill="none" xmlns="http://www.w3.org/2000/svg">
<rect x="11.333" y="5" width="51.6667" height="29.16" rx="3" fill="#042A3F"/>
<rect x="3.29639" y="9.32007" width="55.1111" height="39.96" rx="3" fill="white"/>
<path d="M1 9C1 6.79086 2.79086 5 5 5H24.5232C25.9426 5 27.2556 5.75216 27.9737 6.97651L31.989 13.8235C32.707 15.0478 34.0201 15.8 35.4395 15.8H59C61.2091 15.8 63 17.5909 63 19.8V55C63 57.2091 61.2091 59 59 59H5C2.79086 59 1 57.2091 1 55V9Z" fill="#30A5E7"/>
<path d="M21 28.1667C21 27.0622 21.8954 26.1667 23 26.1667H41C42.1046 26.1667 43 27.0622 43 28.1667V46.1667C43 47.2713 42.1046 48.1667 41 48.1667H23C21.8954 48.1667 21 47.2713 21 46.1667V28.1667Z" fill="#042A3F"/>
<path fill-rule="evenodd" clip-rule="evenodd" d="M31 35C29.8954 35 29 35.8954 29 37V42C29 43.1046 29.8954 44 31 44H33C34.1046 44 35 43.1046 35 42V37C35 35.8954 34.1046 35 33 35H31ZM31 40C30.4477 40 30 40.4477 30 41V42C30 42.5523 30.4477 43 31 43H33C33.5523 43 34 42.5523 34 42V41C34 40.4477 33.5523 40 33 40H31Z" fill="#30A5E7"/>
<rect x="30" y="26" width="2" height="2" fill="#30A5E7"/>
<rect x="30" y="30" width="2" height="2" fill="#30A5E7"/>
<rect x="32" y="28" width="2" height="2" fill="#30A5E7"/>
<rect x="32" y="32" width="2" height="2" fill="#30A5E7"/>
</svg>
