<svg width="64" height="64" viewBox="0 0 64 64" fill="none" xmlns="http://www.w3.org/2000/svg">
<rect x="11.333" y="5" width="51.6667" height="29.16" rx="3" fill="#042A3F"/>
<rect x="3.29639" y="9.32007" width="55.1111" height="39.96" rx="3" fill="white"/>
<path d="M1 9C1 6.79086 2.79086 5 5 5H24.5232C25.9426 5 27.2556 5.75216 27.9737 6.97651L31.989 13.8235C32.707 15.0478 34.0201 15.8 35.4395 15.8H59C61.2091 15.8 63 17.5909 63 19.8V55C63 57.2091 61.2091 59 59 59H5C2.79086 59 1 57.2091 1 55V9Z" fill="#30A5E7"/>
<path fill-rule="evenodd" clip-rule="evenodd" d="M21 30C19.8954 30 19 30.8954 19 32V44C19 45.1046 19.8954 46 21 46H23V42C23 39.7909 24.7909 38 27 38H37C39.2091 38 41 39.7909 41 42V46H43C44.1046 46 45 45.1046 45 44V32C45 30.8954 44.1046 30 43 30H21Z" fill="#042A3F"/>
<rect x="25" y="40" width="14" height="11" rx="2" fill="#042A3F"/>
<path d="M25 26C25 24.8954 25.8954 24 27 24H37C38.1046 24 39 24.8954 39 26V28H25V26Z" fill="#042A3F"/>
</svg>
