<svg width="64" height="64" viewBox="0 0 64 64" fill="none" xmlns="http://www.w3.org/2000/svg">
<rect x="11.333" y="4.99988" width="51.6667" height="29.16" rx="3" fill="#042A3F"/>
<rect x="3.29639" y="9.31982" width="55.1111" height="39.96" rx="3" fill="white"/>
<path d="M1 8.99988C1 6.79074 2.79086 4.99988 5 4.99988H24.5232C25.9426 4.99988 27.2556 5.75204 27.9737 6.97639L31.989 13.8234C32.707 15.0477 34.0201 15.7999 35.4395 15.7999H59C61.2091 15.7999 63 17.5907 63 19.7999V54.9999C63 57.209 61.2091 58.9999 59 58.9999H5C2.79086 58.9999 1 57.209 1 54.9999V8.99988Z" fill="#30A5E7"/>
<path fill-rule="evenodd" clip-rule="evenodd" d="M32 50C39.1797 50 45 44.1797 45 37C45 29.8203 39.1797 24 32 24C24.8203 24 19 29.8203 19 37C19 44.1797 24.8203 50 32 50ZM30 29C30 27.8954 30.8954 27 32 27C33.1046 27 34 27.8954 34 29V37C34 38.1046 33.1046 39 32 39C30.8954 39 30 38.1046 30 37V29ZM30 44C30 42.8954 30.8954 42 32 42C33.1046 42 34 42.8954 34 44C34 45.1046 33.1046 46 32 46C30.8954 46 30 45.1046 30 44Z" fill="#042A3F"/>
</svg>
