<svg width="64" height="64" viewBox="0 0 64 64" fill="none" xmlns="http://www.w3.org/2000/svg">
<rect x="11.333" y="5" width="51.6667" height="29.16" rx="3" fill="#042A3F"/>
<rect x="3.29639" y="9.32007" width="55.1111" height="39.96" rx="3" fill="white"/>
<path d="M1 9C1 6.79086 2.79086 5 5 5H24.5232C25.9426 5 27.2556 5.75216 27.9737 6.97651L31.989 13.8235C32.707 15.0478 34.0201 15.8 35.4395 15.8H59C61.2091 15.8 63 17.5909 63 19.8V55C63 57.2091 61.2091 59 59 59H5C2.79086 59 1 57.2091 1 55V9Z" fill="#30A5E7"/>
<path d="M27 30.0933L25.0602 29.6062L25 29.846V30.0933H27ZM28.8488 27.1413L30.1157 28.6888L30.1157 28.6888L28.8488 27.1413ZM37 30.0933H39V29.846L38.9398 29.6062L37 30.0933ZM28.9398 30.5805C29.1341 29.8065 29.5567 29.1464 30.1157 28.6888L27.5819 25.5937C26.3328 26.6163 25.4557 28.0315 25.0602 29.6062L28.9398 30.5805ZM30.1157 28.6888C30.6722 28.2332 31.3349 28 32 28V24C30.3861 24 28.8335 24.5691 27.5819 25.5937L30.1157 28.6888ZM32 28C32.6651 28 33.3278 28.2332 33.8843 28.6888L36.4181 25.5937C35.1665 24.5691 33.6139 24 32 24V28ZM33.8843 28.6888C34.4433 29.1464 34.8659 29.8065 35.0602 30.5805L38.9398 29.6062C38.5443 28.0315 37.6672 26.6163 36.4181 25.5937L33.8843 28.6888ZM25 30.0933V35.7273H29V30.0933H25ZM35 30.0933V35H39V30.0933H35Z" fill="#042A3F"/>
<path d="M23 34H41V48C41 49.1046 40.1046 50 39 50H25C23.8954 50 23 49.1046 23 48V34Z" fill="#042A3F"/>
</svg>
