<svg width="64" height="64" viewBox="0 0 64 64" fill="none" xmlns="http://www.w3.org/2000/svg">
<rect x="11.333" y="5" width="51.6667" height="29.16" rx="3" fill="#042A3F"/>
<rect x="3.29639" y="9.32007" width="55.1111" height="39.96" rx="3" fill="white"/>
<path d="M1 9C1 6.79086 2.79086 5 5 5H24.5232C25.9426 5 27.2556 5.75216 27.9737 6.97651L31.989 13.8235C32.707 15.0478 34.0201 15.8 35.4395 15.8H59C61.2091 15.8 63 17.5909 63 19.8V55C63 57.2091 61.2091 59 59 59H5C2.79086 59 1 57.2091 1 55V9Z" fill="#30A5E7"/>
<path d="M29.2085 30.6904L17.9328 27.6768C17.9328 27.6768 13.184 38.6555 13.5156 44.1202C13.8472 49.5849 21.1976 49.3285 23.7301 44.3147C26.0683 39.6853 29.2085 30.6904 29.2085 30.6904Z" fill="#042A3F"/>
<path d="M34.7915 30.6931L46.0672 27.6795C46.0672 27.6795 50.816 38.6582 50.4844 44.1229C50.1528 49.5876 42.8024 49.3312 40.2699 44.3174C37.9317 39.688 34.7915 30.6931 34.7915 30.6931Z" fill="#042A3F"/>
<path d="M24.0359 25C19.2668 25 15.9395 26.4641 15.9395 33.2215C15.9395 39.9788 20.265 40.5419 24.0359 40.5419C25.0008 40.5419 25.9671 39.887 26.9061 39.2505C27.7935 38.6491 28.6564 38.0642 29.4706 38.0642H34.5796C35.3937 38.0642 36.2567 38.6491 37.1441 39.2505C38.083 39.887 39.0494 40.5419 40.0142 40.5419C43.7852 40.5419 48.1107 39.9788 48.1107 33.2215C48.1107 26.4641 44.7834 25 40.0142 25C36.3541 25 34.5796 27.9282 34.5796 27.9282H29.4706C29.4706 27.9282 27.696 25 24.0359 25Z" fill="#042A3F"/>
<path d="M21.8178 30.4218V28.0237H24.2113V30.4218C24.2113 30.5891 24.2744 30.7495 24.3866 30.8678C24.4988 30.9861 24.651 31.0525 24.8097 31.0525H27.1277V33.5753H24.8097C24.651 33.5753 24.4988 33.6417 24.3866 33.76C24.2744 33.8783 24.2113 34.0387 24.2113 34.206V36.6041H21.8178V34.206C21.8178 34.0387 21.7547 33.8783 21.6425 33.76C21.5303 33.6417 21.3781 33.5753 21.2194 33.5753H18.9014V31.0525H21.2194C21.3781 31.0525 21.5303 30.9861 21.6425 30.8678C21.7547 30.7495 21.8178 30.5891 21.8178 30.4218Z" fill="#2190CF"/>
<ellipse cx="41.0595" cy="29.1788" rx="1.76507" ry="1.80181" fill="#2190CF"/>
<ellipse cx="37.8344" cy="31.9748" rx="1.80181" ry="1.76507" transform="rotate(-90 37.8344 31.9748)" fill="#2190CF"/>
<ellipse cx="41.0595" cy="35.3108" rx="1.76507" ry="1.80181" fill="#2190CF"/>
<ellipse cx="44.2831" cy="31.9748" rx="1.80181" ry="1.76507" transform="rotate(-90 44.2831 31.9748)" fill="#2190CF"/>
</svg>
