<svg width="64" height="64" viewBox="0 0 64 64" fill="none" xmlns="http://www.w3.org/2000/svg">
<rect x="11.333" y="5" width="51.6667" height="29.16" rx="3" fill="#042A3F"/>
<rect x="3.29639" y="9.32007" width="55.1111" height="39.96" rx="3" fill="white"/>
<path d="M1 9C1 6.79086 2.79086 5 5 5H24.5232C25.9426 5 27.2556 5.75216 27.9737 6.97651L31.989 13.8235C32.707 15.0478 34.0201 15.8 35.4395 15.8H59C61.2091 15.8 63 17.5909 63 19.8V55C63 57.2091 61.2091 59 59 59H5C2.79086 59 1 57.2091 1 55V9Z" fill="#30A5E7"/>
<path fill-rule="evenodd" clip-rule="evenodd" d="M20 28C18.8954 28 18 28.8954 18 30V46C18 47.1046 18.8954 48 20 48H44C45.1046 48 46 47.1046 46 46V30C46 28.8954 45.1046 28 44 28H40.9075C40.3308 28 39.7822 27.751 39.4024 27.317L37.0976 24.683C36.7178 24.249 36.1692 24 35.5925 24H32H28.4075C27.8308 24 27.2822 24.249 26.9024 24.683L24.5976 27.317C24.2178 27.751 23.6692 28 23.0925 28H20ZM32 43C35.3137 43 38 40.3137 38 37C38 33.6863 35.3137 31 32 31C28.6863 31 26 33.6863 26 37C26 40.3137 28.6863 43 32 43Z" fill="#042A3F"/>
</svg>
