<svg width="64" height="64" viewBox="0 0 64 64" fill="none" xmlns="http://www.w3.org/2000/svg">
<path d="M47.0729 45.1456C45.3466 47.125 43.2474 48.745 40.895 49.9131C38.5426 51.0812 35.9832 51.7745 33.3628 51.9535C30.7425 52.1325 28.1126 51.7936 25.6232 50.9562C23.1339 50.1188 20.8338 48.7992 18.8544 47.0729C16.875 45.3466 15.255 43.2474 14.0869 40.895C12.9188 38.5426 12.2255 35.9832 12.0465 33.3628C11.8675 30.7425 12.2064 28.1126 13.0438 25.6232C13.8812 23.1339 15.2008 20.8338 16.9271 18.8544C18.6534 16.875 20.7526 15.255 23.105 14.0869C25.4574 12.9188 28.0168 12.2255 30.6372 12.0465C33.2575 11.8675 35.8874 12.2064 38.3768 13.0438C40.8661 13.8812 43.1662 15.2008 45.1456 16.9271C47.125 18.6534 48.745 20.7526 49.9131 23.105C51.0812 25.4574 51.7745 28.0168 51.9535 30.6372C52.1325 33.2575 51.7936 35.8874 50.9562 38.3768C50.1188 40.8661 48.7992 43.1662 47.0729 45.1456L47.0729 45.1456Z" stroke="black" stroke-opacity="0.57" stroke-width="10" stroke-linecap="round"/>
<path d="M22 49.3205C18.9596 47.5651 16.4349 45.0404 14.6795 42C12.9241 38.9596 12 35.5107 12 32C12 28.4893 12.9241 25.0404 14.6795 22C16.4349 18.9596 18.9596 16.4349 22 14.6795C25.0404 12.9241 28.4893 12 32 12C35.5107 12 38.9596 12.9241 42 14.6795C45.0404 16.4349 47.5651 18.9596 49.3205 22C51.0759 25.0404 52 28.4893 52 32" stroke="url(#paint0_radial)" stroke-width="10" stroke-linecap="round"/>
<defs>
<radialGradient id="paint0_radial" cx="0" cy="0" r="1" gradientUnits="userSpaceOnUse" gradientTransform="translate(53 32) rotate(135) scale(45.2548 71.2764)">
<stop offset="0.135417" stop-color="#30A5E7"/>
<stop offset="0.4375" stop-color="#30A5E7" stop-opacity="0.28"/>
<stop offset="0.666667" stop-color="#30A5E7" stop-opacity="0"/>
</radialGradient>
</defs>
</svg>
