<svg width="64" height="64" viewBox="0 0 64 64" fill="none" xmlns="http://www.w3.org/2000/svg">
<rect x="11.333" y="5" width="51.6667" height="29.16" rx="3" fill="#042A3F"/>
<rect x="3.29639" y="9.32007" width="55.1111" height="39.96" rx="3" fill="white"/>
<path d="M1 9C1 6.79086 2.79086 5 5 5H24.5232C25.9426 5 27.2556 5.75216 27.9737 6.97651L31.989 13.8235C32.707 15.0478 34.0201 15.8 35.4395 15.8H59C61.2091 15.8 63 17.5909 63 19.8V55C63 57.2091 61.2091 59 59 59H5C2.79086 59 1 57.2091 1 55V9Z" fill="#30A5E7"/>
<circle cx="32" cy="36" r="4" fill="#042A3F"/>
<path d="M29.5724 43.4253C29.8262 42.5793 30.6048 42 31.4881 42H32.5119C33.3952 42 34.1738 42.5793 34.4276 43.4253L36.2276 49.4253C36.6126 50.7085 35.6517 52 34.3119 52H29.6881C28.3483 52 27.3874 50.7085 27.7724 49.4253L29.5724 43.4253Z" fill="#042A3F"/>
<path d="M25.9896 42.0104C24.8008 40.8217 23.9913 39.3071 23.6633 37.6583C23.3354 36.0094 23.5037 34.3004 24.147 32.7472C24.7904 31.194 25.8798 29.8665 27.2777 28.9325C28.6755 27.9985 30.3189 27.5 32 27.5C33.6811 27.5 35.3245 27.9985 36.7223 28.9325C38.1202 29.8665 39.2096 31.194 39.853 32.7472C40.4963 34.3004 40.6646 36.0094 40.3367 37.6583C40.0087 39.3071 39.1992 40.8217 38.0104 42.0104" stroke="#042A3F" stroke-width="3" stroke-linecap="round"/>
<path d="M21.747 46.253C19.7191 44.2252 18.3381 41.6415 17.7786 38.8288C17.2191 36.0161 17.5063 33.1006 18.6037 30.4511C19.7012 27.8016 21.5597 25.537 23.9442 23.9437C26.3287 22.3504 29.1322 21.5 32 21.5C34.8678 21.5 37.6713 22.3504 40.0558 23.9437C42.4403 25.537 44.2988 27.8016 45.3963 30.4511C46.4937 33.1006 46.7809 36.0161 46.2214 38.8288C45.6619 41.6415 44.2809 44.2252 42.253 46.253" stroke="#042A3F" stroke-width="3" stroke-linecap="round"/>
</svg>
